{"glyphs":{"0":{"ha":853,"x_min":61,"x_max":822,"o":"m 344 -14 q 174 27 240 -14 q 84 153 107 68 q 85 369 61 239 q 100 449 93 411 q 116 524 107 486 q 135 603 125 561 q 219 817 165 732 q 353 944 274 903 q 539 986 433 986 q 710 944 644 986 q 799 817 776 903 q 799 603 822 732 q 784 524 792 561 q 768 449 776 486 q 749 369 760 411 q 663 153 718 239 q 529 27 608 68 q 344 -14 450 -14 m 344 69 q 544 142 464 69 q 663 376 624 214 q 681 452 674 418 q 696 520 689 486 q 710 596 703 554 q 701 831 739 758 q 539 903 663 903 q 340 831 418 903 q 221 596 261 758 q 203 520 211 554 q 188 452 194 486 q 174 376 182 418 q 183 142 144 214 q 344 69 221 69 z "},"1":{"ha":547,"x_min":93,"x_max":550,"o":"m 290 0 q 269 8 276 0 q 265 31 263 17 l 439 847 l 156 661 q 131 654 142 653 q 113 667 119 656 l 99 692 q 97 715 93 703 q 114 735 100 726 l 458 963 q 475 971 469 969 q 493 972 481 972 l 522 972 q 543 964 536 972 q 547 942 550 956 l 353 31 q 340 8 350 17 q 317 0 331 0 l 290 0 z "},"2":{"ha":778,"x_min":8,"x_max":781,"o":"m 35 0 q 15 8 21 0 q 11 31 8 17 l 15 51 q 28 78 18 65 q 63 110 39 92 l 499 469 q 597 554 561 518 q 651 626 633 590 q 678 704 669 661 q 655 850 697 797 q 514 903 613 903 q 401 878 451 903 q 314 808 350 853 q 257 703 278 763 q 239 678 251 686 q 218 671 226 671 l 190 671 q 171 678 176 671 q 167 697 165 686 q 207 795 178 744 q 282 889 236 846 q 390 959 328 932 q 532 986 453 986 q 694 946 638 986 q 765 842 750 906 q 765 704 781 778 q 727 599 754 647 q 657 506 700 551 q 553 414 614 461 l 157 83 l 622 83 q 644 75 638 83 q 647 51 650 67 l 643 31 q 630 8 640 17 q 604 0 619 0 l 35 0 z "},"3":{"ha":800,"x_min":36,"x_max":822,"o":"m 326 -14 q 192 6 249 -14 q 99 60 135 26 q 50 135 64 93 q 44 224 36 178 q 57 243 47 236 q 79 250 67 250 l 99 250 q 119 244 110 250 q 131 218 129 239 q 165 126 132 158 q 247 81 197 93 q 344 69 296 69 q 531 121 451 69 q 632 275 610 172 q 602 422 654 378 q 443 467 550 467 l 321 467 q 301 475 307 467 q 296 497 294 483 l 300 518 q 308 537 303 529 q 321 551 314 544 l 678 889 l 258 889 q 238 897 244 889 q 235 919 232 906 l 239 940 q 252 964 242 956 q 276 972 263 972 l 794 972 q 816 964 810 972 q 819 940 822 956 l 815 919 q 809 905 814 911 q 799 893 804 899 l 432 550 l 460 550 q 621 520 556 550 q 713 429 686 490 q 719 275 740 368 q 643 119 700 183 q 504 20 586 54 q 326 -14 422 -14 z "},"4":{"ha":824,"x_min":15,"x_max":758,"o":"m 478 0 q 457 8 464 0 q 453 31 450 17 l 500 250 l 42 250 q 22 258 28 250 q 17 281 15 267 l 22 303 q 28 322 25 314 q 40 339 31 329 l 597 949 q 653 972 618 972 l 710 972 q 731 964 724 972 q 735 942 738 956 l 606 333 l 732 333 q 752 325 746 333 q 756 303 758 317 l 750 281 q 738 258 749 267 q 714 250 728 250 l 588 250 l 540 31 q 528 8 538 17 q 504 0 518 0 l 478 0 m 151 333 l 518 333 l 628 856 l 151 333 z "},"5":{"ha":793,"x_min":25,"x_max":782,"o":"m 306 -14 q 141 22 204 -14 q 51 117 78 58 q 32 243 25 175 q 43 263 33 256 q 65 269 53 269 l 92 269 q 113 264 103 269 q 119 238 122 258 q 140 140 114 178 q 211 86 167 103 q 306 69 256 69 q 440 97 376 69 q 548 179 503 125 q 610 311 593 233 q 584 481 633 422 q 424 539 535 539 q 335 526 372 539 q 269 497 297 514 q 219 468 242 481 q 175 456 197 456 l 150 456 q 130 465 138 456 q 126 486 122 474 l 264 940 q 278 964 268 956 q 301 972 288 972 l 754 972 q 775 964 768 972 q 779 942 782 956 l 774 919 q 761 897 771 906 q 738 889 751 889 l 339 889 l 242 575 q 302 603 258 585 q 424 622 346 622 q 551 602 493 622 q 647 542 608 582 q 701 445 686 503 q 700 311 715 388 q 622 131 678 203 q 485 22 567 58 q 306 -14 404 -14 z "},"6":{"ha":808,"x_min":58,"x_max":764,"o":"m 343 -14 q 167 33 232 -14 q 80 156 101 81 q 75 314 58 231 q 101 391 83 354 q 138 460 118 428 q 179 517 158 492 q 215 560 200 543 l 571 944 q 590 962 578 951 q 619 972 601 972 l 646 972 q 664 963 658 972 q 667 942 669 954 q 663 931 665 936 q 657 924 660 926 l 385 629 q 433 638 407 635 q 482 640 460 640 q 623 613 565 640 q 713 540 681 586 q 755 435 746 494 q 750 314 764 376 q 679 156 733 231 q 540 33 625 81 q 343 -14 454 -14 m 361 69 q 490 97 426 69 q 599 180 553 125 q 663 314 646 235 q 656 447 679 393 q 581 529 632 501 q 464 557 529 557 q 335 529 399 557 q 226 447 272 501 q 163 314 179 393 q 169 180 146 235 q 244 97 193 125 q 361 69 296 69 z "},"7":{"ha":676,"x_min":121,"x_max":774,"o":"m 144 0 q 126 9 132 0 q 124 31 121 18 q 129 43 124 35 l 665 889 l 192 889 q 172 897 178 889 q 168 919 165 906 l 172 940 q 185 964 175 956 q 210 972 196 972 l 746 972 q 767 964 761 972 q 771 940 774 956 l 767 919 q 759 892 764 903 q 746 868 754 882 l 218 35 q 199 12 210 24 q 174 0 189 0 l 144 0 z "},"8":{"ha":854,"x_min":35,"x_max":819,"o":"m 344 -14 q 172 22 244 -14 q 67 122 100 57 q 51 274 35 186 q 127 426 68 363 q 265 519 186 489 q 194 603 221 550 q 182 731 168 657 q 252 872 199 815 q 382 957 306 928 q 540 986 458 986 q 688 956 624 986 q 786 869 753 926 q 804 731 819 813 q 748 606 790 657 q 638 519 706 556 q 730 417 701 486 q 743 274 758 347 q 669 117 724 181 q 531 19 614 53 q 344 -14 449 -14 m 344 69 q 483 96 418 69 q 593 168 547 122 q 651 274 639 214 q 614 422 672 368 q 449 476 556 476 q 312 452 378 476 q 199 383 246 428 q 139 274 151 338 q 179 124 121 178 q 344 69 238 69 m 449 560 q 566 582 510 561 q 663 640 622 603 q 717 731 704 678 q 688 858 736 813 q 540 903 639 903 q 418 882 475 903 q 322 823 361 861 q 269 731 282 785 q 297 605 251 650 q 449 560 342 560 z "},"9":{"ha":794,"x_min":119,"x_max":804,"o":"m 211 0 q 193 9 199 0 q 190 31 188 18 q 195 42 192 38 q 201 49 199 46 l 486 357 q 393 346 442 346 q 253 374 310 346 q 167 448 197 401 q 128 551 136 494 q 132 665 119 607 q 177 781 144 724 q 260 884 210 838 q 378 958 310 931 q 529 986 446 986 q 669 958 613 986 q 756 884 725 931 q 796 781 788 838 q 792 665 804 724 q 757 567 781 611 q 707 489 733 522 q 660 432 681 456 l 288 28 q 269 10 281 21 q 239 0 258 0 l 211 0 m 411 429 q 538 458 476 429 q 644 540 599 488 q 704 665 689 593 q 697 792 719 739 q 626 874 675 844 q 511 903 576 903 q 385 874 446 903 q 279 792 324 844 q 219 665 235 739 q 226 540 204 593 q 297 458 249 488 q 411 429 346 429 z "},"A":{"ha":907,"x_min":-54,"x_max":800,"o":"m -24 0 q -48 15 -42 0 q -46 43 -54 29 l 497 944 q 516 965 506 958 q 543 972 526 972 l 601 972 q 626 965 618 972 q 636 944 635 958 l 796 43 q 792 11 800 22 q 771 0 785 0 l 742 0 q 721 7 729 0 q 710 29 713 14 l 668 243 l 178 243 l 42 21 q 26 6 36 11 q 7 0 17 0 l -24 0 m 228 326 l 654 326 l 557 874 l 228 326 z "},"Á":{"ha":907,"x_min":-54,"x_max":817,"o":"m -24 0 q -48 15 -42 0 q -46 43 -54 29 l 497 944 q 516 965 506 958 q 543 972 526 972 l 601 972 q 626 965 618 972 q 636 944 635 958 l 796 43 q 792 11 800 22 q 771 0 785 0 l 742 0 q 721 7 729 0 q 710 29 713 14 l 668 243 l 178 243 l 42 21 q 26 6 36 11 q 7 0 17 0 l -24 0 m 228 326 l 654 326 l 557 874 l 228 326 m 560 1042 q 540 1058 540 1042 q 550 1079 540 1069 l 674 1197 q 699 1217 688 1211 q 731 1222 710 1222 l 794 1222 q 811 1216 806 1222 q 817 1203 817 1210 q 804 1179 817 1188 l 626 1056 q 603 1044 613 1046 q 581 1042 594 1042 l 560 1042 z "},"Ă":{"ha":907,"x_min":-54,"x_max":800,"o":"m -24 0 q -48 15 -42 0 q -46 43 -54 29 l 497 944 q 516 965 506 958 q 543 972 526 972 l 601 972 q 626 965 618 972 q 636 944 635 958 l 796 43 q 792 11 800 22 q 771 0 785 0 l 742 0 q 721 7 729 0 q 710 29 713 14 l 668 243 l 178 243 l 42 21 q 26 6 36 11 q 7 0 17 0 l -24 0 m 228 326 l 654 326 l 557 874 l 228 326 m 585 1028 q 495 1051 528 1028 q 452 1113 463 1075 q 450 1189 442 1150 q 461 1208 453 1200 q 482 1215 469 1215 l 503 1215 q 521 1208 515 1215 q 524 1189 526 1200 q 529 1126 518 1156 q 588 1097 540 1097 q 661 1126 636 1097 q 696 1189 686 1156 q 707 1208 699 1200 q 728 1215 715 1215 l 749 1215 q 767 1208 761 1215 q 769 1189 772 1200 q 741 1113 761 1150 q 683 1051 721 1075 q 585 1028 646 1028 z "},"Â":{"ha":907,"x_min":-54,"x_max":800,"o":"m -24 0 q -48 15 -42 0 q -46 43 -54 29 l 497 944 q 516 965 506 958 q 543 972 526 972 l 601 972 q 626 965 618 972 q 636 944 635 958 l 796 43 q 792 11 800 22 q 771 0 785 0 l 742 0 q 721 7 729 0 q 710 29 713 14 l 668 243 l 178 243 l 42 21 q 26 6 36 11 q 7 0 17 0 l -24 0 m 228 326 l 654 326 l 557 874 l 228 326 m 403 1042 q 388 1056 388 1042 q 400 1076 388 1067 l 556 1203 q 584 1220 574 1218 q 604 1222 594 1222 l 618 1222 q 638 1220 629 1222 q 658 1203 647 1218 l 760 1078 q 765 1057 768 1068 q 744 1042 763 1042 l 717 1042 q 703 1044 708 1042 q 693 1051 697 1047 l 603 1135 l 476 1051 q 464 1044 469 1047 q 450 1042 458 1042 l 403 1042 z "},"Ä":{"ha":907,"x_min":-54,"x_max":800,"o":"m -24 0 q -48 15 -42 0 q -46 43 -54 29 l 497 944 q 516 965 506 958 q 543 972 526 972 l 601 972 q 626 965 618 972 q 636 944 635 958 l 796 43 q 792 11 800 22 q 771 0 785 0 l 742 0 q 721 7 729 0 q 710 29 713 14 l 668 243 l 178 243 l 42 21 q 26 6 36 11 q 7 0 17 0 l -24 0 m 228 326 l 654 326 l 557 874 l 228 326 m 681 1042 q 660 1050 667 1042 q 657 1072 654 1058 l 668 1125 q 681 1148 671 1139 q 706 1157 692 1157 l 758 1157 q 779 1148 772 1157 q 783 1125 786 1139 l 772 1072 q 758 1050 769 1058 q 733 1042 747 1042 l 681 1042 m 426 1042 q 406 1050 413 1042 q 403 1072 400 1058 l 414 1125 q 427 1148 417 1139 q 451 1157 438 1157 l 504 1157 q 525 1148 518 1157 q 529 1125 532 1139 l 518 1072 q 504 1050 515 1058 q 479 1042 493 1042 l 426 1042 z "},"À":{"ha":907,"x_min":-54,"x_max":800,"o":"m -24 0 q -48 15 -42 0 q -46 43 -54 29 l 497 944 q 516 965 506 958 q 543 972 526 972 l 601 972 q 626 965 618 972 q 636 944 635 958 l 796 43 q 792 11 800 22 q 771 0 785 0 l 742 0 q 721 7 729 0 q 710 29 713 14 l 668 243 l 178 243 l 42 21 q 26 6 36 11 q 7 0 17 0 l -24 0 m 228 326 l 654 326 l 557 874 l 228 326 m 585 1042 q 563 1044 571 1042 q 544 1056 554 1046 l 424 1175 q 417 1197 414 1185 q 449 1222 422 1222 l 513 1222 q 541 1217 533 1222 q 558 1197 549 1211 l 629 1082 q 632 1064 635 1072 q 606 1042 626 1042 l 585 1042 z "},"Ā":{"ha":907,"x_min":-54,"x_max":800,"o":"m -24 0 q -48 15 -42 0 q -46 43 -54 29 l 497 944 q 516 965 506 958 q 543 972 526 972 l 601 972 q 626 965 618 972 q 636 944 635 958 l 796 43 q 792 11 800 22 q 771 0 785 0 l 742 0 q 721 7 729 0 q 710 29 713 14 l 668 243 l 178 243 l 42 21 q 26 6 36 11 q 7 0 17 0 l -24 0 m 228 326 l 654 326 l 557 874 l 228 326 m 443 1042 q 424 1050 429 1042 q 419 1072 418 1058 l 425 1103 q 438 1125 428 1117 q 463 1133 449 1133 l 739 1133 q 759 1125 753 1133 q 763 1103 765 1117 l 757 1072 q 744 1050 756 1058 q 719 1042 733 1042 l 443 1042 z "},"Ą":{"ha":903,"x_min":-53,"x_max":796,"o":"m 647 -306 q 553 -282 590 -306 q 504 -215 517 -258 q 504 -114 492 -172 q 573 16 521 -35 q 697 76 625 67 q 697 82 697 79 q 696 88 696 85 l 668 243 l 171 243 l 38 21 q 25 8 35 15 q 1 0 15 0 l -29 0 q -47 8 -40 0 q -51 28 -53 17 q -48 35 -50 31 q -44 43 -46 40 l 501 944 q 520 965 510 958 q 547 972 531 972 l 597 972 q 622 965 614 972 q 632 944 631 958 l 794 43 q 795 35 796 40 q 793 28 794 31 q 780 8 790 17 q 758 0 769 0 l 718 0 q 635 -31 672 0 q 588 -114 599 -61 q 600 -197 576 -167 q 671 -226 624 -226 l 692 -226 q 712 -235 706 -226 q 715 -257 718 -243 l 711 -275 q 698 -297 708 -289 q 674 -306 688 -306 l 647 -306 m 224 326 l 653 326 l 556 874 l 224 326 z "},"Å":{"ha":907,"x_min":-54,"x_max":800,"o":"m -24 0 q -48 15 -42 0 q -46 43 -54 29 l 497 944 q 516 965 506 958 q 543 972 526 972 l 601 972 q 626 965 618 972 q 636 944 635 958 l 796 43 q 792 11 800 22 q 771 0 785 0 l 742 0 q 721 7 729 0 q 710 29 713 14 l 668 243 l 178 243 l 42 21 q 26 6 36 11 q 7 0 17 0 l -24 0 m 228 326 l 654 326 l 557 874 l 228 326 m 582 1028 q 508 1058 536 1028 q 489 1132 479 1088 q 536 1207 500 1178 q 618 1236 572 1236 q 693 1207 664 1236 q 711 1132 722 1178 q 665 1056 701 1085 q 582 1028 628 1028 m 586 1090 q 622 1102 607 1090 q 642 1132 638 1114 q 639 1162 646 1150 q 613 1174 632 1174 q 577 1162 592 1174 q 558 1132 563 1150 q 562 1102 554 1114 q 586 1090 569 1090 z "},"Ã":{"ha":907,"x_min":-54,"x_max":800,"o":"m -24 0 q -48 15 -42 0 q -46 43 -54 29 l 497 944 q 516 965 506 958 q 543 972 526 972 l 601 972 q 626 965 618 972 q 636 944 635 958 l 796 43 q 792 11 800 22 q 771 0 785 0 l 742 0 q 721 7 729 0 q 710 29 713 14 l 668 243 l 178 243 l 42 21 q 26 6 36 11 q 7 0 17 0 l -24 0 m 228 326 l 654 326 l 557 874 l 228 326 m 657 1035 q 605 1047 625 1035 q 568 1070 585 1058 q 532 1082 551 1082 q 499 1072 510 1082 q 481 1052 489 1063 q 458 1042 474 1042 l 431 1042 q 416 1049 421 1042 q 413 1064 411 1056 q 426 1103 415 1083 q 453 1138 438 1122 q 490 1163 469 1154 q 532 1172 511 1172 q 585 1160 565 1172 q 622 1137 606 1149 q 657 1125 638 1125 q 691 1135 681 1125 q 708 1156 701 1146 q 731 1167 715 1167 l 758 1167 q 774 1160 769 1167 q 776 1144 778 1153 q 763 1106 774 1125 q 735 1070 751 1086 q 698 1044 718 1054 q 657 1035 678 1035 z "},"Æ":{"ha":1310,"x_min":-40,"x_max":1339,"o":"m -12 0 q -40 19 -39 0 q -33 50 -40 38 l 506 946 q 527 967 517 963 q 547 972 538 972 l 1311 972 q 1333 964 1326 972 q 1336 940 1339 956 l 1332 919 q 1319 897 1329 906 q 1294 889 1310 889 l 810 889 l 733 535 l 1188 535 q 1209 526 1203 535 q 1213 503 1215 518 l 1208 482 q 1196 460 1206 468 q 1171 451 1186 451 l 717 451 l 638 83 l 1133 83 q 1155 75 1149 83 q 1158 51 1161 67 l 1154 31 q 1142 8 1151 17 q 1117 0 1132 0 l 564 0 q 543 8 550 0 q 539 31 536 17 l 585 243 l 186 243 l 50 21 q 35 6 44 11 q 15 0 25 0 l -12 0 m 236 326 l 601 326 l 719 879 l 568 879 l 236 326 z "},"Ǽ":{"ha":1310,"x_min":-40,"x_max":1339,"o":"m -12 0 q -40 19 -39 0 q -33 50 -40 38 l 506 946 q 527 967 517 963 q 547 972 538 972 l 1311 972 q 1333 964 1326 972 q 1336 940 1339 956 l 1332 919 q 1319 897 1329 906 q 1294 889 1310 889 l 810 889 l 733 535 l 1188 535 q 1209 526 1203 535 q 1213 503 1215 518 l 1208 482 q 1196 460 1206 468 q 1171 451 1186 451 l 717 451 l 638 83 l 1133 83 q 1155 75 1149 83 q 1158 51 1161 67 l 1154 31 q 1142 8 1151 17 q 1117 0 1132 0 l 564 0 q 543 8 550 0 q 539 31 536 17 l 585 243 l 186 243 l 50 21 q 35 6 44 11 q 15 0 25 0 l -12 0 m 236 326 l 601 326 l 719 879 l 568 879 l 236 326 m 835 1042 q 815 1058 815 1042 q 825 1079 815 1069 l 949 1197 q 974 1217 963 1211 q 1006 1222 985 1222 l 1069 1222 q 1086 1216 1081 1222 q 1092 1203 1092 1210 q 1079 1179 1092 1188 l 901 1056 q 878 1044 888 1046 q 856 1042 869 1042 l 835 1042 z "},"B":{"ha":913,"x_min":47,"x_max":883,"o":"m 75 0 q 54 8 61 0 q 50 31 47 17 l 243 940 q 256 964 246 956 q 281 972 267 972 l 643 972 q 785 938 731 972 q 862 847 840 903 q 869 724 883 790 q 828 616 856 658 q 767 549 800 574 q 703 513 733 525 q 782 421 751 479 q 794 275 813 363 q 739 142 779 206 q 628 40 699 79 q 449 0 557 0 l 75 0 m 149 83 l 449 83 q 618 138 547 83 q 707 275 689 192 q 688 413 725 360 q 532 467 651 467 l 231 467 l 149 83 m 249 550 l 529 550 q 696 596 628 550 q 782 724 764 642 q 761 847 800 806 q 622 889 722 889 l 321 889 l 249 550 z "},"C":{"ha":903,"x_min":68,"x_max":899,"o":"m 381 -14 q 222 14 286 -14 q 123 93 158 42 q 78 213 88 144 q 82 363 68 282 q 106 485 92 419 q 135 610 121 550 q 217 803 163 718 q 359 938 271 889 q 574 986 447 986 q 738 960 672 986 q 840 889 803 933 q 888 792 876 844 q 890 686 899 739 q 883 666 889 674 q 864 658 876 658 l 832 658 q 811 665 821 658 q 803 688 801 671 q 750 854 815 806 q 574 903 685 903 q 353 831 447 903 q 221 603 260 760 q 171 369 192 489 q 199 141 143 213 q 381 69 254 69 q 577 115 492 69 q 715 285 663 161 q 731 308 722 301 q 750 314 739 314 l 782 314 q 801 306 794 314 q 804 286 808 299 q 760 185 789 238 q 681 87 731 132 q 558 14 632 42 q 381 -14 485 -14 z "},"Ć":{"ha":903,"x_min":68,"x_max":899,"o":"m 381 -14 q 222 14 286 -14 q 123 93 158 42 q 78 213 88 144 q 82 363 68 282 q 106 485 92 419 q 135 610 121 550 q 217 803 163 718 q 359 938 271 889 q 574 986 447 986 q 738 960 672 986 q 840 889 803 933 q 888 792 876 844 q 890 686 899 739 q 883 666 889 674 q 864 658 876 658 l 832 658 q 811 665 821 658 q 803 688 801 671 q 750 854 815 806 q 574 903 685 903 q 353 831 447 903 q 221 603 260 760 q 171 369 192 489 q 199 141 143 213 q 381 69 254 69 q 577 115 492 69 q 715 285 663 161 q 731 308 722 301 q 750 314 739 314 l 782 314 q 801 306 794 314 q 804 286 808 299 q 760 185 789 238 q 681 87 731 132 q 558 14 632 42 q 381 -14 485 -14 m 574 1042 q 554 1058 554 1042 q 564 1079 554 1069 l 688 1197 q 713 1217 701 1211 q 744 1222 724 1222 l 808 1222 q 825 1216 819 1222 q 831 1203 831 1210 q 818 1179 831 1188 l 640 1056 q 617 1044 626 1046 q 594 1042 608 1042 l 574 1042 z "},"Č":{"ha":903,"x_min":68,"x_max":899,"o":"m 381 -14 q 222 14 286 -14 q 123 93 158 42 q 78 213 88 144 q 82 363 68 282 q 106 485 92 419 q 135 610 121 550 q 217 803 163 718 q 359 938 271 889 q 574 986 447 986 q 738 960 672 986 q 840 889 803 933 q 888 792 876 844 q 890 686 899 739 q 883 666 889 674 q 864 658 876 658 l 832 658 q 811 665 821 658 q 803 688 801 671 q 750 854 815 806 q 574 903 685 903 q 353 831 447 903 q 221 603 260 760 q 171 369 192 489 q 199 141 143 213 q 381 69 254 69 q 577 115 492 69 q 715 285 663 161 q 731 308 722 301 q 750 314 739 314 l 782 314 q 801 306 794 314 q 804 286 808 299 q 760 185 789 238 q 681 87 731 132 q 558 14 632 42 q 381 -14 485 -14 m 589 1042 q 569 1044 579 1042 q 549 1061 560 1047 l 447 1186 q 442 1207 439 1196 q 463 1222 444 1222 l 490 1222 q 504 1219 499 1222 q 514 1213 510 1217 l 604 1129 l 731 1213 q 743 1219 738 1217 q 757 1222 749 1222 l 804 1222 q 819 1208 819 1222 q 807 1188 819 1199 l 651 1061 q 624 1044 633 1047 q 603 1042 614 1042 l 589 1042 z "},"Ç":{"ha":903,"x_min":65,"x_max":897,"o":"m 303 -306 q 237 -291 264 -304 q 201 -261 210 -278 q 204 -235 192 -244 l 228 -217 q 250 -212 242 -206 q 272 -231 258 -219 q 317 -242 286 -242 q 362 -227 340 -242 q 389 -186 383 -212 q 379 -147 394 -161 q 340 -133 364 -133 q 302 -140 318 -133 q 275 -148 286 -146 q 256 -139 264 -150 l 239 -115 q 241 -95 233 -107 q 254 -74 249 -83 l 296 -8 q 146 58 199 7 q 79 187 93 108 q 82 363 65 265 q 106 485 92 419 q 135 610 119 550 q 219 803 163 718 q 365 938 275 889 q 582 986 456 986 q 744 958 681 986 q 842 885 808 931 q 887 788 876 840 q 889 686 897 736 q 877 666 888 674 q 854 658 867 658 l 826 658 q 808 665 815 658 q 801 688 801 671 q 738 857 801 811 q 564 903 675 903 q 349 831 438 903 q 219 603 260 760 q 194 488 206 546 q 171 369 182 429 q 202 141 143 213 q 388 69 261 69 q 581 115 499 69 q 717 285 663 161 q 733 308 724 301 q 753 314 742 314 l 781 314 q 801 306 793 314 q 804 286 808 299 q 759 184 792 236 q 673 87 726 132 q 544 14 619 42 q 369 -14 468 -14 l 324 -81 q 349 -72 333 -75 q 379 -69 364 -69 q 448 -101 425 -69 q 460 -183 471 -133 q 409 -270 450 -233 q 303 -306 368 -307 z "},"Ĉ":{"ha":903,"x_min":68,"x_max":899,"o":"m 381 -14 q 222 14 286 -14 q 123 93 158 42 q 78 213 88 144 q 82 363 68 282 q 106 485 92 419 q 135 610 121 550 q 217 803 163 718 q 359 938 271 889 q 574 986 447 986 q 738 960 672 986 q 840 889 803 933 q 888 792 876 844 q 890 686 899 739 q 883 666 889 674 q 864 658 876 658 l 832 658 q 811 665 821 658 q 803 688 801 671 q 750 854 815 806 q 574 903 685 903 q 353 831 447 903 q 221 603 260 760 q 171 369 192 489 q 199 141 143 213 q 381 69 254 69 q 577 115 492 69 q 715 285 663 161 q 731 308 722 301 q 750 314 739 314 l 782 314 q 801 306 794 314 q 804 286 808 299 q 760 185 789 238 q 681 87 731 132 q 558 14 632 42 q 381 -14 485 -14 m 417 1042 q 401 1056 401 1042 q 414 1076 401 1067 l 569 1203 q 598 1220 588 1218 q 618 1222 608 1222 l 632 1222 q 652 1220 643 1222 q 672 1203 661 1218 l 774 1078 q 779 1057 782 1068 q 758 1042 776 1042 l 731 1042 q 717 1044 722 1042 q 707 1051 711 1047 l 617 1135 l 490 1051 q 478 1044 483 1047 q 464 1042 472 1042 l 417 1042 z "},"Ċ":{"ha":903,"x_min":68,"x_max":899,"o":"m 381 -14 q 222 14 286 -14 q 123 93 158 42 q 78 213 88 144 q 82 363 68 282 q 106 485 92 419 q 135 610 121 550 q 217 803 163 718 q 359 938 271 889 q 574 986 447 986 q 738 960 672 986 q 840 889 803 933 q 888 792 876 844 q 890 686 899 739 q 883 666 889 674 q 864 658 876 658 l 832 658 q 811 665 821 658 q 803 688 801 671 q 750 854 815 806 q 574 903 685 903 q 353 831 447 903 q 221 603 260 760 q 171 369 192 489 q 199 141 143 213 q 381 69 254 69 q 577 115 492 69 q 715 285 663 161 q 731 308 722 301 q 750 314 739 314 l 782 314 q 801 306 794 314 q 804 286 808 299 q 760 185 789 238 q 681 87 731 132 q 558 14 632 42 q 381 -14 485 -14 m 561 1042 q 541 1050 547 1042 q 538 1072 535 1058 l 551 1139 q 565 1162 554 1153 q 589 1171 575 1171 l 656 1171 q 676 1162 669 1171 q 681 1139 683 1153 l 667 1072 q 653 1050 664 1058 q 628 1042 642 1042 l 561 1042 z "},"D":{"ha":940,"x_min":47,"x_max":901,"o":"m 75 0 q 54 8 61 0 q 50 31 47 17 l 243 940 q 256 964 246 956 q 281 972 267 972 l 563 972 q 726 948 657 972 q 835 876 794 924 q 889 758 876 828 q 883 597 901 688 q 861 487 871 535 q 836 376 851 439 q 756 165 807 249 q 617 41 704 82 q 392 0 531 0 l 75 0 m 149 83 l 388 83 q 569 113 499 83 q 683 209 640 143 q 750 383 725 275 q 767 456 760 425 q 780 518 774 488 q 794 590 786 549 q 772 816 824 743 q 553 889 719 889 l 321 889 l 149 83 z "},"Ð":{"ha":950,"x_min":36,"x_max":911,"o":"m 85 0 q 64 8 71 0 q 60 31 57 17 l 149 447 l 61 447 q 42 456 47 447 q 38 478 36 464 l 42 500 q 55 522 44 514 q 79 531 65 531 l 167 531 l 253 940 q 266 964 256 956 q 290 972 276 972 l 572 972 q 735 948 667 972 q 845 876 804 924 q 899 758 886 828 q 893 597 911 688 q 871 487 881 535 q 846 376 861 439 q 765 165 817 249 q 627 41 714 82 q 401 0 540 0 l 85 0 m 158 83 l 397 83 q 579 113 508 83 q 692 209 650 143 q 760 383 735 275 q 776 456 769 425 q 790 518 783 488 q 804 590 796 549 q 781 816 833 743 q 563 889 729 889 l 331 889 l 254 531 l 463 531 q 483 522 476 531 q 486 500 489 514 l 482 478 q 469 456 481 464 q 444 447 458 447 l 236 447 l 158 83 z "},"Ď":{"ha":940,"x_min":47,"x_max":901,"o":"m 75 0 q 54 8 61 0 q 50 31 47 17 l 243 940 q 256 964 246 956 q 281 972 267 972 l 563 972 q 726 948 657 972 q 835 876 794 924 q 889 758 876 828 q 883 597 901 688 q 861 487 871 535 q 836 376 851 439 q 756 165 807 249 q 617 41 704 82 q 392 0 531 0 l 75 0 m 149 83 l 388 83 q 569 113 499 83 q 683 209 640 143 q 750 383 725 275 q 767 456 760 425 q 780 518 774 488 q 794 590 786 549 q 772 816 824 743 q 553 889 719 889 l 321 889 l 149 83 m 547 1042 q 528 1044 538 1042 q 507 1061 518 1047 l 406 1186 q 400 1207 397 1196 q 421 1222 403 1222 l 449 1222 q 463 1219 457 1222 q 472 1213 468 1217 l 563 1129 l 689 1213 q 701 1219 696 1217 q 715 1222 707 1222 l 763 1222 q 778 1208 778 1222 q 765 1188 778 1199 l 610 1061 q 582 1044 592 1047 q 561 1042 572 1042 l 547 1042 z "},"Đ":{"ha":950,"x_min":36,"x_max":911,"o":"m 85 0 q 64 8 71 0 q 60 31 57 17 l 149 447 l 61 447 q 42 456 47 447 q 38 478 36 464 l 42 500 q 55 522 44 514 q 79 531 65 531 l 167 531 l 253 940 q 266 964 256 956 q 290 972 276 972 l 572 972 q 735 948 667 972 q 845 876 804 924 q 899 758 886 828 q 893 597 911 688 q 871 487 881 535 q 846 376 861 439 q 765 165 817 249 q 627 41 714 82 q 401 0 540 0 l 85 0 m 158 83 l 397 83 q 579 113 508 83 q 692 209 650 143 q 760 383 735 275 q 776 456 769 425 q 790 518 783 488 q 804 590 796 549 q 781 816 833 743 q 563 889 729 889 l 331 889 l 254 531 l 463 531 q 483 522 476 531 q 486 500 489 514 l 482 478 q 469 456 481 464 q 444 447 458 447 l 236 447 l 158 83 z "},"E":{"ha":821,"x_min":47,"x_max":850,"o":"m 75 0 q 54 8 61 0 q 50 31 47 17 l 243 940 q 256 964 246 956 q 281 972 267 972 l 822 972 q 844 964 838 972 q 847 940 850 956 l 843 919 q 831 897 840 906 q 806 889 821 889 l 321 889 l 244 535 l 699 535 q 720 526 714 535 q 724 503 726 518 l 719 482 q 707 460 717 468 q 682 451 697 451 l 228 451 l 149 83 l 644 83 q 666 75 660 83 q 669 51 672 67 l 665 31 q 653 8 663 17 q 628 0 643 0 l 75 0 z "},"É":{"ha":821,"x_min":47,"x_max":850,"o":"m 75 0 q 54 8 61 0 q 50 31 47 17 l 243 940 q 256 964 246 956 q 281 972 267 972 l 822 972 q 844 964 838 972 q 847 940 850 956 l 843 919 q 831 897 840 906 q 806 889 821 889 l 321 889 l 244 535 l 699 535 q 720 526 714 535 q 724 503 726 518 l 719 482 q 707 460 717 468 q 682 451 697 451 l 228 451 l 149 83 l 644 83 q 666 75 660 83 q 669 51 672 67 l 665 31 q 653 8 663 17 q 628 0 643 0 l 75 0 m 535 1042 q 515 1058 515 1042 q 525 1079 515 1069 l 649 1197 q 674 1217 663 1211 q 706 1222 685 1222 l 769 1222 q 786 1216 781 1222 q 792 1203 792 1210 q 779 1179 792 1188 l 601 1056 q 578 1044 588 1046 q 556 1042 569 1042 l 535 1042 z "},"Ĕ":{"ha":821,"x_min":47,"x_max":850,"o":"m 75 0 q 54 8 61 0 q 50 31 47 17 l 243 940 q 256 964 246 956 q 281 972 267 972 l 822 972 q 844 964 838 972 q 847 940 850 956 l 843 919 q 831 897 840 906 q 806 889 821 889 l 321 889 l 244 535 l 699 535 q 720 526 714 535 q 724 503 726 518 l 719 482 q 707 460 717 468 q 682 451 697 451 l 228 451 l 149 83 l 644 83 q 666 75 660 83 q 669 51 672 67 l 665 31 q 653 8 663 17 q 628 0 643 0 l 75 0 m 560 1028 q 470 1051 503 1028 q 427 1113 438 1075 q 425 1189 417 1150 q 436 1208 428 1200 q 457 1215 444 1215 l 478 1215 q 496 1208 490 1215 q 499 1189 501 1200 q 504 1126 493 1156 q 563 1097 515 1097 q 636 1126 611 1097 q 671 1189 661 1156 q 682 1208 674 1200 q 703 1215 690 1215 l 724 1215 q 742 1208 736 1215 q 744 1189 747 1200 q 716 1113 736 1150 q 658 1051 696 1075 q 560 1028 621 1028 z "},"Ě":{"ha":821,"x_min":47,"x_max":850,"o":"m 75 0 q 54 8 61 0 q 50 31 47 17 l 243 940 q 256 964 246 956 q 281 972 267 972 l 822 972 q 844 964 838 972 q 847 940 850 956 l 843 919 q 831 897 840 906 q 806 889 821 889 l 321 889 l 244 535 l 699 535 q 720 526 714 535 q 724 503 726 518 l 719 482 q 707 460 717 468 q 682 451 697 451 l 228 451 l 149 83 l 644 83 q 666 75 660 83 q 669 51 672 67 l 665 31 q 653 8 663 17 q 628 0 643 0 l 75 0 m 550 1042 q 531 1044 540 1042 q 510 1061 521 1047 l 408 1186 q 403 1207 400 1196 q 424 1222 406 1222 l 451 1222 q 465 1219 460 1222 q 475 1213 471 1217 l 565 1129 l 692 1213 q 704 1219 699 1217 q 718 1222 710 1222 l 765 1222 q 781 1208 781 1222 q 768 1188 781 1199 l 613 1061 q 585 1044 594 1047 q 564 1042 575 1042 l 550 1042 z "},"Ê":{"ha":821,"x_min":47,"x_max":850,"o":"m 75 0 q 54 8 61 0 q 50 31 47 17 l 243 940 q 256 964 246 956 q 281 972 267 972 l 822 972 q 844 964 838 972 q 847 940 850 956 l 843 919 q 831 897 840 906 q 806 889 821 889 l 321 889 l 244 535 l 699 535 q 720 526 714 535 q 724 503 726 518 l 719 482 q 707 460 717 468 q 682 451 697 451 l 228 451 l 149 83 l 644 83 q 666 75 660 83 q 669 51 672 67 l 665 31 q 653 8 663 17 q 628 0 643 0 l 75 0 m 378 1042 q 363 1056 363 1042 q 375 1076 363 1067 l 531 1203 q 559 1220 549 1218 q 579 1222 569 1222 l 593 1222 q 613 1220 604 1222 q 633 1203 622 1218 l 735 1078 q 740 1057 743 1068 q 719 1042 738 1042 l 692 1042 q 678 1044 683 1042 q 668 1051 672 1047 l 578 1135 l 451 1051 q 439 1044 444 1047 q 425 1042 433 1042 l 378 1042 z "},"Ë":{"ha":821,"x_min":47,"x_max":850,"o":"m 75 0 q 54 8 61 0 q 50 31 47 17 l 243 940 q 256 964 246 956 q 281 972 267 972 l 822 972 q 844 964 838 972 q 847 940 850 956 l 843 919 q 831 897 840 906 q 806 889 821 889 l 321 889 l 244 535 l 699 535 q 720 526 714 535 q 724 503 726 518 l 719 482 q 707 460 717 468 q 682 451 697 451 l 228 451 l 149 83 l 644 83 q 666 75 660 83 q 669 51 672 67 l 665 31 q 653 8 663 17 q 628 0 643 0 l 75 0 m 656 1042 q 635 1050 642 1042 q 632 1072 629 1058 l 643 1125 q 656 1148 646 1139 q 681 1157 667 1157 l 733 1157 q 754 1148 747 1157 q 758 1125 761 1139 l 747 1072 q 733 1050 744 1058 q 708 1042 722 1042 l 656 1042 m 401 1042 q 381 1050 388 1042 q 378 1072 375 1058 l 389 1125 q 402 1148 392 1139 q 426 1157 413 1157 l 479 1157 q 500 1148 493 1157 q 504 1125 507 1139 l 493 1072 q 479 1050 490 1058 q 454 1042 468 1042 l 401 1042 z "},"Ė":{"ha":821,"x_min":47,"x_max":850,"o":"m 75 0 q 54 8 61 0 q 50 31 47 17 l 243 940 q 256 964 246 956 q 281 972 267 972 l 822 972 q 844 964 838 972 q 847 940 850 956 l 843 919 q 831 897 840 906 q 806 889 821 889 l 321 889 l 244 535 l 699 535 q 720 526 714 535 q 724 503 726 518 l 719 482 q 707 460 717 468 q 682 451 697 451 l 228 451 l 149 83 l 644 83 q 666 75 660 83 q 669 51 672 67 l 665 31 q 653 8 663 17 q 628 0 643 0 l 75 0 m 522 1042 q 502 1050 508 1042 q 499 1072 496 1058 l 513 1139 q 526 1162 515 1153 q 550 1171 536 1171 l 617 1171 q 638 1162 631 1171 q 642 1139 644 1153 l 628 1072 q 614 1050 625 1058 q 589 1042 603 1042 l 522 1042 z "},"È":{"ha":821,"x_min":47,"x_max":850,"o":"m 75 0 q 54 8 61 0 q 50 31 47 17 l 243 940 q 256 964 246 956 q 281 972 267 972 l 822 972 q 844 964 838 972 q 847 940 850 956 l 843 919 q 831 897 840 906 q 806 889 821 889 l 321 889 l 244 535 l 699 535 q 720 526 714 535 q 724 503 726 518 l 719 482 q 707 460 717 468 q 682 451 697 451 l 228 451 l 149 83 l 644 83 q 666 75 660 83 q 669 51 672 67 l 665 31 q 653 8 663 17 q 628 0 643 0 l 75 0 m 560 1042 q 538 1044 546 1042 q 519 1056 529 1046 l 399 1175 q 392 1197 389 1185 q 424 1222 397 1222 l 488 1222 q 516 1217 508 1222 q 533 1197 524 1211 l 604 1082 q 607 1064 610 1072 q 581 1042 601 1042 l 560 1042 z "},"Ē":{"ha":821,"x_min":47,"x_max":850,"o":"m 75 0 q 54 8 61 0 q 50 31 47 17 l 243 940 q 256 964 246 956 q 281 972 267 972 l 822 972 q 844 964 838 972 q 847 940 850 956 l 843 919 q 831 897 840 906 q 806 889 821 889 l 321 889 l 244 535 l 699 535 q 720 526 714 535 q 724 503 726 518 l 719 482 q 707 460 717 468 q 682 451 697 451 l 228 451 l 149 83 l 644 83 q 666 75 660 83 q 669 51 672 67 l 665 31 q 653 8 663 17 q 628 0 643 0 l 75 0 m 418 1042 q 399 1050 404 1042 q 394 1072 393 1058 l 400 1103 q 413 1125 403 1117 q 438 1133 424 1133 l 714 1133 q 734 1125 728 1133 q 738 1103 740 1117 l 732 1072 q 719 1050 731 1058 q 694 1042 708 1042 l 418 1042 z "},"Ę":{"ha":821,"x_min":47,"x_max":850,"o":"m 538 -306 q 445 -282 482 -306 q 395 -215 408 -258 q 394 -114 382 -172 q 415 -51 401 -81 q 449 0 429 -22 l 75 0 q 54 8 61 0 q 50 31 47 17 l 243 940 q 256 964 246 956 q 281 972 267 972 l 822 972 q 844 964 838 972 q 847 940 850 956 l 843 919 q 831 897 840 906 q 806 889 821 889 l 321 889 l 244 535 l 699 535 q 720 526 714 535 q 724 503 726 518 l 719 482 q 707 460 717 468 q 682 451 697 451 l 228 451 l 149 83 l 644 83 q 666 75 660 83 q 669 51 672 67 l 665 31 q 653 8 663 17 q 628 0 643 0 l 599 0 q 522 -33 556 -3 q 478 -114 489 -62 q 490 -197 467 -167 q 560 -226 514 -226 l 581 -226 q 601 -235 594 -226 q 604 -257 607 -243 l 600 -275 q 588 -297 599 -289 q 564 -306 578 -306 l 538 -306 z "},"F":{"ha":796,"x_min":47,"x_max":844,"o":"m 75 0 q 54 8 61 0 q 50 31 47 17 l 243 940 q 256 964 246 956 q 281 972 267 972 l 817 972 q 838 964 832 972 q 842 940 844 956 l 838 919 q 825 897 835 906 q 800 889 815 889 l 321 889 l 240 515 l 692 515 q 713 507 707 515 q 717 483 719 499 l 713 463 q 701 440 711 449 q 675 432 690 432 l 224 432 l 138 31 q 125 8 135 17 q 100 0 115 0 l 75 0 z "},"G":{"ha":922,"x_min":81,"x_max":917,"o":"m 393 -14 q 202 33 274 -14 q 106 163 131 79 q 100 354 81 246 q 126 486 111 417 q 157 618 142 556 q 244 810 183 728 q 396 940 304 893 q 606 986 488 986 q 764 958 701 986 q 860 887 826 929 q 906 801 894 844 q 913 729 917 758 q 901 709 911 717 q 878 701 892 701 l 847 701 q 831 708 835 701 q 824 729 826 714 q 795 812 819 772 q 721 877 771 851 q 588 903 671 903 q 373 835 464 903 q 243 611 282 768 q 214 486 228 549 q 189 361 200 424 q 225 138 163 206 q 411 69 288 69 q 565 101 493 69 q 688 197 636 132 q 760 361 739 261 l 775 432 l 533 432 q 513 441 519 432 q 510 464 507 450 l 514 483 q 527 507 517 499 q 551 515 538 515 l 849 515 q 870 507 864 515 q 874 483 876 499 l 847 361 q 762 165 824 250 q 606 33 700 81 q 393 -14 513 -14 z "},"Ğ":{"ha":922,"x_min":81,"x_max":917,"o":"m 393 -14 q 202 33 274 -14 q 106 163 131 79 q 100 354 81 246 q 126 486 111 417 q 157 618 142 556 q 244 810 183 728 q 396 940 304 893 q 606 986 488 986 q 764 958 701 986 q 860 887 826 929 q 906 801 894 844 q 913 729 917 758 q 901 709 911 717 q 878 701 892 701 l 847 701 q 831 708 835 701 q 824 729 826 714 q 795 812 819 772 q 721 877 771 851 q 588 903 671 903 q 373 835 464 903 q 243 611 282 768 q 214 486 228 549 q 189 361 200 424 q 225 138 163 206 q 411 69 288 69 q 565 101 493 69 q 688 197 636 132 q 760 361 739 261 l 775 432 l 533 432 q 513 441 519 432 q 510 464 507 450 l 514 483 q 527 507 517 499 q 551 515 538 515 l 849 515 q 870 507 864 515 q 874 483 876 499 l 847 361 q 762 165 824 250 q 606 33 700 81 q 393 -14 513 -14 m 611 1028 q 522 1051 554 1028 q 478 1113 489 1075 q 476 1189 468 1150 q 488 1208 479 1200 q 508 1215 496 1215 l 529 1215 q 547 1208 542 1215 q 550 1189 553 1200 q 556 1126 544 1156 q 614 1097 567 1097 q 688 1126 663 1097 q 722 1189 713 1156 q 733 1208 725 1200 q 754 1215 742 1215 l 775 1215 q 793 1208 788 1215 q 796 1189 799 1200 q 767 1113 788 1150 q 710 1051 747 1075 q 611 1028 672 1028 z "},"Ĝ":{"ha":922,"x_min":81,"x_max":917,"o":"m 393 -14 q 202 33 274 -14 q 106 163 131 79 q 100 354 81 246 q 126 486 111 417 q 157 618 142 556 q 244 810 183 728 q 396 940 304 893 q 606 986 488 986 q 764 958 701 986 q 860 887 826 929 q 906 801 894 844 q 913 729 917 758 q 901 709 911 717 q 878 701 892 701 l 847 701 q 831 708 835 701 q 824 729 826 714 q 795 812 819 772 q 721 877 771 851 q 588 903 671 903 q 373 835 464 903 q 243 611 282 768 q 214 486 228 549 q 189 361 200 424 q 225 138 163 206 q 411 69 288 69 q 565 101 493 69 q 688 197 636 132 q 760 361 739 261 l 775 432 l 533 432 q 513 441 519 432 q 510 464 507 450 l 514 483 q 527 507 517 499 q 551 515 538 515 l 849 515 q 870 507 864 515 q 874 483 876 499 l 847 361 q 762 165 824 250 q 606 33 700 81 q 393 -14 513 -14 m 429 1042 q 414 1056 414 1042 q 426 1076 414 1067 l 582 1203 q 610 1220 600 1218 q 631 1222 621 1222 l 644 1222 q 665 1220 656 1222 q 685 1203 674 1218 l 786 1078 q 792 1057 794 1068 q 771 1042 789 1042 l 743 1042 q 729 1044 735 1042 q 719 1051 724 1047 l 629 1135 l 503 1051 q 490 1044 496 1047 q 476 1042 485 1042 l 429 1042 z "},"Ģ":{"ha":922,"x_min":81,"x_max":917,"o":"m 393 -14 q 202 33 274 -14 q 106 163 131 79 q 100 354 81 246 q 126 486 111 417 q 157 618 142 556 q 244 810 183 728 q 396 940 304 893 q 606 986 488 986 q 764 958 701 986 q 860 887 826 929 q 906 801 894 844 q 913 729 917 758 q 901 709 911 717 q 878 701 892 701 l 847 701 q 831 708 835 701 q 824 729 826 714 q 795 812 819 772 q 721 877 771 851 q 588 903 671 903 q 373 835 464 903 q 243 611 282 768 q 214 486 228 549 q 189 361 200 424 q 225 138 163 206 q 411 69 288 69 q 565 101 493 69 q 688 197 636 132 q 760 361 739 261 l 775 432 l 533 432 q 513 441 519 432 q 510 464 507 450 l 514 483 q 527 507 517 499 q 551 515 538 515 l 849 515 q 870 507 864 515 q 874 483 876 499 l 847 361 q 762 165 824 250 q 606 33 700 81 q 393 -14 513 -14 m 263 -292 q 248 -283 251 -292 q 249 -262 244 -275 l 306 -107 q 322 -80 313 -90 q 349 -69 332 -69 l 411 -69 q 425 -76 421 -69 q 426 -92 429 -83 q 417 -117 424 -104 l 329 -262 q 312 -284 321 -276 q 288 -292 303 -292 l 263 -292 z "},"Ġ":{"ha":922,"x_min":81,"x_max":917,"o":"m 393 -14 q 202 33 274 -14 q 106 163 131 79 q 100 354 81 246 q 126 486 111 417 q 157 618 142 556 q 244 810 183 728 q 396 940 304 893 q 606 986 488 986 q 764 958 701 986 q 860 887 826 929 q 906 801 894 844 q 913 729 917 758 q 901 709 911 717 q 878 701 892 701 l 847 701 q 831 708 835 701 q 824 729 826 714 q 795 812 819 772 q 721 877 771 851 q 588 903 671 903 q 373 835 464 903 q 243 611 282 768 q 214 486 228 549 q 189 361 200 424 q 225 138 163 206 q 411 69 288 69 q 565 101 493 69 q 688 197 636 132 q 760 361 739 261 l 775 432 l 533 432 q 513 441 519 432 q 510 464 507 450 l 514 483 q 527 507 517 499 q 551 515 538 515 l 849 515 q 870 507 864 515 q 874 483 876 499 l 847 361 q 762 165 824 250 q 606 33 700 81 q 393 -14 513 -14 m 574 1042 q 553 1050 560 1042 q 550 1072 547 1058 l 564 1139 q 577 1162 567 1153 q 601 1171 588 1171 l 668 1171 q 689 1162 682 1171 q 693 1139 696 1153 l 679 1072 q 665 1050 676 1058 q 640 1042 654 1042 l 574 1042 z "},"H":{"ha":974,"x_min":47,"x_max":957,"o":"m 75 0 q 54 8 61 0 q 50 31 47 17 l 243 940 q 256 964 246 956 q 281 972 267 972 l 306 972 q 327 964 321 972 q 331 940 333 956 l 244 535 l 781 535 l 867 940 q 880 964 869 956 q 904 972 890 972 l 929 972 q 951 964 944 972 q 954 940 957 956 l 761 31 q 749 8 758 17 q 724 0 739 0 l 699 0 q 678 8 685 0 q 674 31 671 17 l 764 451 l 228 451 l 138 31 q 125 8 135 17 q 100 0 115 0 l 75 0 z "},"Ħ":{"ha":986,"x_min":47,"x_max":1038,"o":"m 121 710 q 101 718 107 710 q 97 740 94 726 l 101 761 q 115 785 104 776 q 139 793 125 793 l 1010 793 q 1031 785 1025 793 q 1035 761 1038 776 l 1031 740 q 1017 718 1028 726 q 992 710 1007 710 l 121 710 m 75 0 q 54 8 61 0 q 50 31 47 17 l 243 940 q 256 964 246 956 q 281 972 267 972 l 306 972 q 327 964 321 972 q 331 940 333 956 l 244 535 l 781 535 l 867 940 q 880 964 869 956 q 904 972 890 972 l 929 972 q 951 964 944 972 q 954 940 957 956 l 761 31 q 749 8 758 17 q 724 0 739 0 l 699 0 q 678 8 685 0 q 674 31 671 17 l 764 451 l 228 451 l 138 31 q 125 8 135 17 q 100 0 115 0 l 75 0 z "},"Ĥ":{"ha":974,"x_min":47,"x_max":957,"o":"m 75 0 q 54 8 61 0 q 50 31 47 17 l 243 940 q 256 964 246 956 q 281 972 267 972 l 306 972 q 327 964 321 972 q 331 940 333 956 l 244 535 l 781 535 l 867 940 q 880 964 869 956 q 904 972 890 972 l 929 972 q 951 964 944 972 q 954 940 957 956 l 761 31 q 749 8 758 17 q 724 0 739 0 l 699 0 q 678 8 685 0 q 674 31 671 17 l 764 451 l 228 451 l 138 31 q 125 8 135 17 q 100 0 115 0 l 75 0 m 426 1042 q 411 1056 411 1042 q 424 1076 411 1067 l 579 1203 q 608 1220 597 1218 q 628 1222 618 1222 l 642 1222 q 662 1220 653 1222 q 682 1203 671 1218 l 783 1078 q 789 1057 792 1068 q 768 1042 786 1042 l 740 1042 q 726 1044 732 1042 q 717 1051 721 1047 l 626 1135 l 500 1051 q 488 1044 493 1047 q 474 1042 482 1042 l 426 1042 z "},"I":{"ha":350,"x_min":46,"x_max":335,"o":"m 74 0 q 53 8 60 0 q 49 31 46 17 l 244 942 q 257 964 247 956 q 281 972 267 972 l 307 972 q 328 964 321 972 q 332 942 335 956 l 138 31 q 125 8 135 17 q 101 0 115 0 l 74 0 z "},"Ĳ":{"ha":819,"x_min":47,"x_max":811,"o":"m 269 -14 q 249 -6 256 -14 q 246 17 243 3 l 250 38 q 263 61 253 53 q 288 69 274 69 q 490 149 410 69 q 597 356 571 229 l 722 942 q 735 964 725 956 q 758 972 744 972 l 783 972 q 805 964 799 972 q 808 940 811 956 l 685 354 q 615 163 663 246 q 483 33 567 79 q 269 -14 400 -14 m 75 0 q 54 8 61 0 q 50 31 47 17 l 244 942 q 257 964 247 956 q 281 972 267 972 l 307 972 q 328 964 321 972 q 332 942 335 956 l 138 31 q 125 8 135 17 q 101 0 115 0 l 75 0 z "},"Í":{"ha":350,"x_min":46,"x_max":542,"o":"m 74 0 q 53 8 60 0 q 49 31 46 17 l 244 942 q 257 964 247 956 q 281 972 267 972 l 307 972 q 328 964 321 972 q 332 942 335 956 l 138 31 q 125 8 135 17 q 101 0 115 0 l 74 0 m 285 1042 q 265 1058 265 1042 q 275 1079 265 1069 l 399 1197 q 424 1217 413 1211 q 456 1222 435 1222 l 519 1222 q 536 1216 531 1222 q 542 1203 542 1210 q 529 1179 542 1188 l 351 1056 q 328 1044 338 1046 q 306 1042 319 1042 l 285 1042 z "},"Ĭ":{"ha":350,"x_min":46,"x_max":497,"o":"m 74 0 q 53 8 60 0 q 49 31 46 17 l 244 942 q 257 964 247 956 q 281 972 267 972 l 307 972 q 328 964 321 972 q 332 942 335 956 l 138 31 q 125 8 135 17 q 101 0 115 0 l 74 0 m 310 1028 q 220 1051 253 1028 q 177 1113 188 1075 q 175 1189 167 1150 q 186 1208 178 1200 q 207 1215 194 1215 l 228 1215 q 246 1208 240 1215 q 249 1189 251 1200 q 254 1126 243 1156 q 313 1097 265 1097 q 386 1126 361 1097 q 421 1189 411 1156 q 432 1208 424 1200 q 453 1215 440 1215 l 474 1215 q 492 1208 486 1215 q 494 1189 497 1200 q 466 1113 486 1150 q 408 1051 446 1075 q 310 1028 371 1028 z "},"Î":{"ha":350,"x_min":46,"x_max":493,"o":"m 74 0 q 53 8 60 0 q 49 31 46 17 l 244 942 q 257 964 247 956 q 281 972 267 972 l 307 972 q 328 964 321 972 q 332 942 335 956 l 138 31 q 125 8 135 17 q 101 0 115 0 l 74 0 m 128 1042 q 113 1056 113 1042 q 125 1076 113 1067 l 281 1203 q 309 1220 299 1218 q 329 1222 319 1222 l 343 1222 q 363 1220 354 1222 q 383 1203 372 1218 l 485 1078 q 490 1057 493 1068 q 469 1042 488 1042 l 442 1042 q 428 1044 433 1042 q 418 1051 422 1047 l 328 1135 l 201 1051 q 189 1044 194 1047 q 175 1042 183 1042 l 128 1042 z "},"Ï":{"ha":350,"x_min":46,"x_max":511,"o":"m 74 0 q 53 8 60 0 q 49 31 46 17 l 244 942 q 257 964 247 956 q 281 972 267 972 l 307 972 q 328 964 321 972 q 332 942 335 956 l 138 31 q 125 8 135 17 q 101 0 115 0 l 74 0 m 406 1042 q 385 1050 392 1042 q 382 1072 379 1058 l 393 1125 q 406 1148 396 1139 q 431 1157 417 1157 l 483 1157 q 504 1148 497 1157 q 508 1125 511 1139 l 497 1072 q 483 1050 494 1058 q 458 1042 472 1042 l 406 1042 m 151 1042 q 131 1050 138 1042 q 128 1072 125 1058 l 139 1125 q 152 1148 142 1139 q 176 1157 163 1157 l 229 1157 q 250 1148 243 1157 q 254 1125 257 1139 l 243 1072 q 229 1050 240 1058 q 204 1042 218 1042 l 151 1042 z "},"İ":{"ha":350,"x_min":46,"x_max":394,"o":"m 74 0 q 53 8 60 0 q 49 31 46 17 l 244 942 q 257 964 247 956 q 281 972 267 972 l 307 972 q 328 964 321 972 q 332 942 335 956 l 138 31 q 125 8 135 17 q 101 0 115 0 l 74 0 m 272 1042 q 252 1050 258 1042 q 249 1072 246 1058 l 263 1139 q 276 1162 265 1153 q 300 1171 286 1171 l 367 1171 q 388 1162 381 1171 q 392 1139 394 1153 l 378 1072 q 364 1050 375 1058 q 339 1042 353 1042 l 272 1042 z "},"Ì":{"ha":350,"x_min":46,"x_max":360,"o":"m 74 0 q 53 8 60 0 q 49 31 46 17 l 244 942 q 257 964 247 956 q 281 972 267 972 l 307 972 q 328 964 321 972 q 332 942 335 956 l 138 31 q 125 8 135 17 q 101 0 115 0 l 74 0 m 310 1042 q 288 1044 296 1042 q 269 1056 279 1046 l 149 1175 q 142 1197 139 1185 q 174 1222 147 1222 l 238 1222 q 266 1217 258 1222 q 283 1197 274 1211 l 354 1082 q 357 1064 360 1072 q 331 1042 351 1042 l 310 1042 z "},"Ī":{"ha":350,"x_min":46,"x_max":490,"o":"m 74 0 q 53 8 60 0 q 49 31 46 17 l 244 942 q 257 964 247 956 q 281 972 267 972 l 307 972 q 328 964 321 972 q 332 942 335 956 l 138 31 q 125 8 135 17 q 101 0 115 0 l 74 0 m 168 1042 q 149 1050 154 1042 q 144 1072 143 1058 l 150 1103 q 163 1125 153 1117 q 188 1133 174 1133 l 464 1133 q 484 1125 478 1133 q 488 1103 490 1117 l 482 1072 q 469 1050 481 1058 q 444 1042 458 1042 l 168 1042 z "},"Į":{"ha":374,"x_min":-101,"x_max":378,"o":"m 53 -306 q -39 -282 -3 -306 q -88 -215 -75 -258 q -89 -114 -101 -172 q -20 17 -72 -33 q 104 76 32 67 l 107 89 q 108 96 107 92 q 110 103 108 100 l 288 942 q 301 964 290 956 q 325 972 311 972 l 351 972 q 372 964 365 972 q 375 942 378 956 l 182 31 q 169 8 179 17 q 144 0 158 0 l 124 0 q 42 -31 78 0 q -6 -114 6 -61 q 7 -197 -17 -167 q 76 -226 31 -226 l 97 -226 q 117 -235 111 -226 q 121 -257 124 -243 l 117 -275 q 103 -297 114 -289 q 79 -306 93 -306 l 53 -306 z "},"Ĩ":{"ha":350,"x_min":46,"x_max":503,"o":"m 74 0 q 53 8 60 0 q 49 31 46 17 l 244 942 q 257 964 247 956 q 281 972 267 972 l 307 972 q 328 964 321 972 q 332 942 335 956 l 138 31 q 125 8 135 17 q 101 0 115 0 l 74 0 m 382 1035 q 330 1047 350 1035 q 293 1070 310 1058 q 257 1082 276 1082 q 224 1072 235 1082 q 206 1052 214 1063 q 183 1042 199 1042 l 156 1042 q 141 1049 146 1042 q 138 1064 136 1056 q 151 1103 140 1083 q 178 1138 163 1122 q 215 1163 194 1154 q 257 1172 236 1172 q 310 1160 290 1172 q 347 1137 331 1149 q 382 1125 363 1125 q 416 1135 406 1125 q 433 1156 426 1146 q 456 1167 440 1167 l 483 1167 q 499 1160 494 1167 q 501 1144 503 1153 q 488 1106 499 1125 q 460 1070 476 1086 q 423 1044 443 1054 q 382 1035 403 1035 z "},"J":{"ha":853,"x_min":17,"x_max":844,"o":"m 314 -14 q 195 3 251 -14 q 97 54 139 19 q 36 142 56 89 q 26 269 17 196 q 37 291 29 282 q 58 300 44 300 l 89 300 q 110 292 103 300 q 114 271 117 283 q 156 116 100 163 q 314 69 213 69 q 527 149 451 69 q 629 356 603 229 l 743 889 l 232 889 q 211 897 218 889 q 207 919 204 906 l 213 942 q 225 964 215 956 q 249 972 235 972 l 817 972 q 838 964 832 972 q 842 940 844 956 l 718 354 q 648 163 696 246 q 519 33 600 79 q 314 -14 438 -14 z "},"Ĵ":{"ha":853,"x_min":17,"x_max":844,"o":"m 314 -14 q 195 3 251 -14 q 97 54 139 19 q 36 142 56 89 q 26 269 17 196 q 37 291 29 282 q 58 300 44 300 l 89 300 q 110 292 103 300 q 114 271 117 283 q 156 116 100 163 q 314 69 213 69 q 527 149 451 69 q 629 356 603 229 l 743 889 l 232 889 q 211 897 218 889 q 207 919 204 906 l 213 942 q 225 964 215 956 q 249 972 235 972 l 817 972 q 838 964 832 972 q 842 940 844 956 l 718 354 q 648 163 696 246 q 519 33 600 79 q 314 -14 438 -14 m 378 1042 q 363 1056 363 1042 q 375 1076 363 1067 l 531 1203 q 559 1220 549 1218 q 579 1222 569 1222 l 593 1222 q 613 1220 604 1222 q 633 1203 622 1218 l 735 1078 q 740 1057 743 1068 q 719 1042 738 1042 l 692 1042 q 678 1044 683 1042 q 668 1051 672 1047 l 578 1135 l 451 1051 q 439 1044 444 1047 q 425 1042 433 1042 l 378 1042 z "},"K":{"ha":781,"x_min":47,"x_max":829,"o":"m 75 0 q 54 8 61 0 q 50 31 47 17 l 243 940 q 255 964 246 956 q 278 972 264 972 l 306 972 q 327 964 321 972 q 331 940 333 956 l 258 593 l 717 951 q 735 964 722 956 q 772 972 749 972 l 797 972 q 824 953 818 972 q 817 925 829 935 l 282 507 l 676 47 q 682 15 692 29 q 657 0 672 0 l 632 0 q 600 8 610 0 q 586 21 590 15 l 225 442 l 138 31 q 126 8 135 17 q 103 0 118 0 l 75 0 z "},"Ķ":{"ha":781,"x_min":47,"x_max":829,"o":"m 75 0 q 54 8 61 0 q 50 31 47 17 l 243 940 q 255 964 246 956 q 278 972 264 972 l 306 972 q 327 964 321 972 q 331 940 333 956 l 258 593 l 717 951 q 735 964 722 956 q 772 972 749 972 l 797 972 q 824 953 818 972 q 817 925 829 935 l 282 507 l 676 47 q 682 15 692 29 q 657 0 672 0 l 632 0 q 600 8 610 0 q 586 21 590 15 l 225 442 l 138 31 q 126 8 135 17 q 103 0 118 0 l 75 0 m 201 -292 q 187 -283 190 -292 q 188 -262 183 -275 l 244 -107 q 261 -80 251 -90 q 288 -69 271 -69 l 350 -69 q 364 -76 360 -69 q 365 -92 368 -83 q 356 -117 363 -104 l 268 -262 q 251 -284 260 -276 q 226 -292 242 -292 l 201 -292 z "},"L":{"ha":750,"x_min":47,"x_max":656,"o":"m 75 0 q 54 8 61 0 q 50 31 47 17 l 244 942 q 257 964 247 956 q 281 972 267 972 l 307 972 q 328 964 321 972 q 332 942 335 956 l 149 83 l 628 83 q 649 75 643 83 q 653 51 656 67 l 649 31 q 636 8 646 17 q 611 0 626 0 l 75 0 z "},"Ĺ":{"ha":750,"x_min":47,"x_max":656,"o":"m 75 0 q 54 8 61 0 q 50 31 47 17 l 244 942 q 257 964 247 956 q 281 972 267 972 l 307 972 q 328 964 321 972 q 332 942 335 956 l 149 83 l 628 83 q 649 75 643 83 q 653 51 656 67 l 649 31 q 636 8 646 17 q 611 0 626 0 l 75 0 m 286 1042 q 267 1058 267 1042 q 276 1079 267 1069 l 400 1197 q 425 1217 414 1211 q 457 1222 436 1222 l 521 1222 q 538 1216 532 1222 q 543 1203 543 1210 q 531 1179 543 1188 l 353 1056 q 330 1044 339 1046 q 307 1042 321 1042 l 286 1042 z "},"Ľ":{"ha":750,"x_min":47,"x_max":656,"o":"m 453 764 q 438 772 442 764 q 439 793 435 781 l 496 949 q 513 976 503 965 q 539 986 522 986 l 601 986 q 615 979 611 986 q 617 964 619 972 q 607 939 614 951 l 519 793 q 502 772 511 779 q 478 764 493 764 l 453 764 m 75 0 q 54 8 61 0 q 50 31 47 17 l 244 942 q 257 964 247 956 q 281 972 267 972 l 307 972 q 328 964 321 972 q 332 942 335 956 l 149 83 l 628 83 q 649 75 643 83 q 653 51 656 67 l 649 31 q 636 8 646 17 q 611 0 626 0 l 75 0 z "},"Ļ":{"ha":750,"x_min":47,"x_max":656,"o":"m 75 0 q 54 8 61 0 q 50 31 47 17 l 244 942 q 257 964 247 956 q 281 972 267 972 l 307 972 q 328 964 321 972 q 332 942 335 956 l 149 83 l 628 83 q 649 75 643 83 q 653 51 656 67 l 649 31 q 636 8 646 17 q 611 0 626 0 l 75 0 m 208 -292 q 194 -283 197 -292 q 194 -262 190 -275 l 251 -107 q 268 -80 258 -90 q 294 -69 278 -69 l 357 -69 q 371 -76 367 -69 q 372 -92 375 -83 q 363 -117 369 -104 l 275 -262 q 258 -284 267 -276 q 233 -292 249 -292 l 208 -292 z "},"Ŀ":{"ha":750,"x_min":47,"x_max":656,"o":"m 75 0 q 54 8 61 0 q 50 31 47 17 l 244 942 q 257 964 247 956 q 281 972 267 972 l 307 972 q 328 964 321 972 q 332 942 335 956 l 149 83 l 628 83 q 649 75 643 83 q 653 51 656 67 l 649 31 q 636 8 646 17 q 611 0 626 0 l 75 0 m 515 435 q 494 443 501 435 q 490 465 488 451 l 506 532 q 518 555 508 546 q 542 564 528 564 l 608 564 q 630 555 622 564 q 635 532 638 546 l 619 465 q 606 443 617 451 q 582 435 596 435 l 515 435 z "},"Ł":{"ha":761,"x_min":13,"x_max":668,"o":"m 86 0 q 65 8 72 0 q 61 31 58 17 l 142 406 l 54 375 q 35 371 42 371 q 18 377 24 371 q 14 396 13 383 l 19 422 q 31 444 22 438 q 57 457 39 451 l 160 493 l 256 942 q 268 964 258 956 q 292 972 278 972 l 318 972 q 339 964 332 972 q 343 942 346 956 l 254 528 l 472 606 q 492 610 485 610 q 509 603 503 610 q 513 585 515 597 l 507 558 q 496 537 504 543 q 469 524 488 531 l 236 440 l 160 83 l 640 83 q 661 75 654 83 q 665 53 668 67 l 660 31 q 647 8 657 17 q 624 0 638 0 l 86 0 z "},"M":{"ha":1088,"x_min":47,"x_max":1071,"o":"m 76 0 q 55 8 63 0 q 50 31 47 17 l 243 940 q 257 964 246 956 q 282 972 268 972 l 318 972 q 338 965 332 972 q 344 954 343 958 l 529 340 l 976 954 q 987 965 979 958 q 1008 972 994 972 l 1043 972 q 1065 964 1058 972 q 1068 940 1071 956 l 875 31 q 863 8 872 17 q 838 0 853 0 l 811 0 q 790 8 797 0 q 786 31 783 17 l 942 761 l 578 261 q 557 241 568 249 q 529 233 546 233 l 500 233 q 475 240 483 233 q 463 261 467 247 l 301 797 l 139 31 q 126 8 136 17 q 103 0 117 0 l 76 0 z "},"N":{"ha":954,"x_min":47,"x_max":938,"o":"m 75 0 q 54 8 61 0 q 50 31 47 17 l 243 940 q 256 964 246 956 q 279 972 265 972 l 307 972 q 326 967 321 972 q 333 956 332 961 l 682 163 l 847 940 q 860 964 850 956 q 885 972 871 972 l 910 972 q 931 964 925 972 q 935 940 938 956 l 742 32 q 729 9 739 18 q 706 0 719 0 l 678 0 q 659 6 664 0 q 651 17 654 11 l 304 807 l 139 31 q 126 8 136 17 q 101 0 117 0 l 75 0 z "},"Ń":{"ha":954,"x_min":47,"x_max":938,"o":"m 75 0 q 54 8 61 0 q 50 31 47 17 l 243 940 q 256 964 246 956 q 279 972 265 972 l 307 972 q 326 967 321 972 q 333 956 332 961 l 682 163 l 847 940 q 860 964 850 956 q 885 972 871 972 l 910 972 q 931 964 925 972 q 935 940 938 956 l 742 32 q 729 9 739 18 q 706 0 719 0 l 678 0 q 659 6 664 0 q 651 17 654 11 l 304 807 l 139 31 q 126 8 136 17 q 101 0 117 0 l 75 0 m 578 1042 q 558 1058 558 1042 q 568 1079 558 1069 l 692 1197 q 717 1217 706 1211 q 749 1222 728 1222 l 813 1222 q 829 1216 824 1222 q 835 1203 835 1210 q 822 1179 835 1188 l 644 1056 q 622 1044 631 1046 q 599 1042 613 1042 l 578 1042 z "},"Ň":{"ha":954,"x_min":47,"x_max":938,"o":"m 75 0 q 54 8 61 0 q 50 31 47 17 l 243 940 q 256 964 246 956 q 279 972 265 972 l 307 972 q 326 967 321 972 q 333 956 332 961 l 682 163 l 847 940 q 860 964 850 956 q 885 972 871 972 l 910 972 q 931 964 925 972 q 935 940 938 956 l 742 32 q 729 9 739 18 q 706 0 719 0 l 678 0 q 659 6 664 0 q 651 17 654 11 l 304 807 l 139 31 q 126 8 136 17 q 101 0 117 0 l 75 0 m 593 1042 q 574 1044 583 1042 q 553 1061 564 1047 l 451 1186 q 446 1207 443 1196 q 467 1222 449 1222 l 494 1222 q 508 1219 503 1222 q 518 1213 514 1217 l 608 1129 l 735 1213 q 747 1219 742 1217 q 761 1222 753 1222 l 808 1222 q 824 1208 824 1222 q 811 1188 824 1199 l 656 1061 q 628 1044 638 1047 q 607 1042 618 1042 l 593 1042 z "},"Ņ":{"ha":954,"x_min":47,"x_max":938,"o":"m 75 0 q 54 8 61 0 q 50 31 47 17 l 243 940 q 256 964 246 956 q 279 972 265 972 l 307 972 q 326 967 321 972 q 333 956 332 961 l 682 163 l 847 940 q 860 964 850 956 q 885 972 871 972 l 910 972 q 931 964 925 972 q 935 940 938 956 l 742 32 q 729 9 739 18 q 706 0 719 0 l 678 0 q 659 6 664 0 q 651 17 654 11 l 304 807 l 139 31 q 126 8 136 17 q 101 0 117 0 l 75 0 m 279 -292 q 265 -283 268 -292 q 265 -262 261 -275 l 322 -107 q 339 -80 329 -90 q 365 -69 349 -69 l 428 -69 q 442 -76 438 -69 q 443 -92 446 -83 q 433 -117 440 -104 l 346 -262 q 328 -284 338 -276 q 304 -292 319 -292 l 279 -292 z "},"Ñ":{"ha":954,"x_min":47,"x_max":938,"o":"m 75 0 q 54 8 61 0 q 50 31 47 17 l 243 940 q 256 964 246 956 q 279 972 265 972 l 307 972 q 326 967 321 972 q 333 956 332 961 l 682 163 l 847 940 q 860 964 850 956 q 885 972 871 972 l 910 972 q 931 964 925 972 q 935 940 938 956 l 742 32 q 729 9 739 18 q 706 0 719 0 l 678 0 q 659 6 664 0 q 651 17 654 11 l 304 807 l 139 31 q 126 8 136 17 q 101 0 117 0 l 75 0 m 675 1035 q 623 1047 643 1035 q 586 1070 603 1058 q 550 1082 569 1082 q 517 1072 528 1082 q 499 1052 507 1063 q 476 1042 492 1042 l 449 1042 q 434 1049 439 1042 q 431 1064 429 1056 q 444 1103 433 1083 q 472 1138 456 1122 q 508 1163 488 1154 q 550 1172 529 1172 q 603 1160 583 1172 q 640 1137 624 1149 q 675 1125 656 1125 q 709 1135 699 1125 q 726 1156 719 1146 q 749 1167 733 1167 l 776 1167 q 792 1160 788 1167 q 794 1144 796 1153 q 781 1106 792 1125 q 753 1070 769 1086 q 716 1044 736 1054 q 675 1035 696 1035 z "},"Ŋ":{"ha":950,"x_min":67,"x_max":954,"o":"m 469 -312 q 449 -304 456 -312 q 446 -282 443 -296 l 450 -260 q 463 -237 453 -246 q 488 -229 474 -229 l 493 -229 q 576 -209 546 -229 q 623 -155 607 -189 q 647 -79 639 -121 l 667 11 l 319 797 l 157 31 q 144 8 154 17 q 118 0 133 0 l 93 0 q 73 8 79 0 q 69 31 67 17 l 263 940 q 276 964 265 956 q 300 972 286 972 l 329 972 q 348 965 343 972 q 354 956 353 958 l 701 172 l 864 940 q 877 964 867 956 q 901 972 888 972 l 926 972 q 948 964 942 972 q 951 940 954 956 l 735 -79 q 693 -197 721 -144 q 614 -281 665 -250 q 475 -312 563 -312 l 469 -312 z "},"O":{"ha":919,"x_min":65,"x_max":885,"o":"m 378 -14 q 234 9 297 -14 q 131 79 171 32 q 78 199 92 126 q 83 369 65 271 q 106 486 94 432 q 133 603 118 540 q 294 892 179 797 q 572 986 408 986 q 717 963 654 986 q 819 891 779 939 q 872 772 858 843 q 867 603 885 700 q 844 486 856 540 q 817 369 832 432 q 655 79 769 172 q 378 -14 540 -14 m 378 69 q 597 142 501 69 q 731 376 692 214 q 756 486 746 439 q 778 596 767 533 q 753 831 807 758 q 572 903 700 903 q 353 831 446 903 q 219 596 260 758 q 194 486 204 533 q 172 376 183 439 q 196 142 143 214 q 378 69 249 69 z "},"Ó":{"ha":919,"x_min":65,"x_max":885,"o":"m 378 -14 q 234 9 297 -14 q 131 79 171 32 q 78 199 92 126 q 83 369 65 271 q 106 486 94 432 q 133 603 118 540 q 294 892 179 797 q 572 986 408 986 q 717 963 654 986 q 819 891 779 939 q 872 772 858 843 q 867 603 885 700 q 844 486 856 540 q 817 369 832 432 q 655 79 769 172 q 378 -14 540 -14 m 378 69 q 597 142 501 69 q 731 376 692 214 q 756 486 746 439 q 778 596 767 533 q 753 831 807 758 q 572 903 700 903 q 353 831 446 903 q 219 596 260 758 q 194 486 204 533 q 172 376 183 439 q 196 142 143 214 q 378 69 249 69 m 567 1042 q 547 1058 547 1042 q 557 1079 547 1069 l 681 1197 q 706 1217 694 1211 q 738 1222 717 1222 l 801 1222 q 818 1216 813 1222 q 824 1203 824 1210 q 811 1179 824 1188 l 633 1056 q 610 1044 619 1046 q 588 1042 601 1042 l 567 1042 z "},"Ŏ":{"ha":919,"x_min":65,"x_max":885,"o":"m 378 -14 q 234 9 297 -14 q 131 79 171 32 q 78 199 92 126 q 83 369 65 271 q 106 486 94 432 q 133 603 118 540 q 294 892 179 797 q 572 986 408 986 q 717 963 654 986 q 819 891 779 939 q 872 772 858 843 q 867 603 885 700 q 844 486 856 540 q 817 369 832 432 q 655 79 769 172 q 378 -14 540 -14 m 378 69 q 597 142 501 69 q 731 376 692 214 q 756 486 746 439 q 778 596 767 533 q 753 831 807 758 q 572 903 700 903 q 353 831 446 903 q 219 596 260 758 q 194 486 204 533 q 172 376 183 439 q 196 142 143 214 q 378 69 249 69 m 592 1028 q 502 1051 535 1028 q 459 1113 469 1075 q 457 1189 449 1150 q 468 1208 460 1200 q 489 1215 476 1215 l 510 1215 q 528 1208 522 1215 q 531 1189 533 1200 q 536 1126 525 1156 q 594 1097 547 1097 q 668 1126 643 1097 q 703 1189 693 1156 q 714 1208 706 1200 q 735 1215 722 1215 l 756 1215 q 774 1208 768 1215 q 776 1189 779 1200 q 748 1113 768 1150 q 690 1051 728 1075 q 592 1028 653 1028 z "},"Ô":{"ha":919,"x_min":65,"x_max":885,"o":"m 378 -14 q 234 9 297 -14 q 131 79 171 32 q 78 199 92 126 q 83 369 65 271 q 106 486 94 432 q 133 603 118 540 q 294 892 179 797 q 572 986 408 986 q 717 963 654 986 q 819 891 779 939 q 872 772 858 843 q 867 603 885 700 q 844 486 856 540 q 817 369 832 432 q 655 79 769 172 q 378 -14 540 -14 m 378 69 q 597 142 501 69 q 731 376 692 214 q 756 486 746 439 q 778 596 767 533 q 753 831 807 758 q 572 903 700 903 q 353 831 446 903 q 219 596 260 758 q 194 486 204 533 q 172 376 183 439 q 196 142 143 214 q 378 69 249 69 m 410 1042 q 394 1056 394 1042 q 407 1076 394 1067 l 563 1203 q 591 1220 581 1218 q 611 1222 601 1222 l 625 1222 q 645 1220 636 1222 q 665 1203 654 1218 l 767 1078 q 772 1057 775 1068 q 751 1042 769 1042 l 724 1042 q 710 1044 715 1042 q 700 1051 704 1047 l 610 1135 l 483 1051 q 471 1044 476 1047 q 457 1042 465 1042 l 410 1042 z "},"Ö":{"ha":919,"x_min":65,"x_max":885,"o":"m 378 -14 q 234 9 297 -14 q 131 79 171 32 q 78 199 92 126 q 83 369 65 271 q 106 486 94 432 q 133 603 118 540 q 294 892 179 797 q 572 986 408 986 q 717 963 654 986 q 819 891 779 939 q 872 772 858 843 q 867 603 885 700 q 844 486 856 540 q 817 369 832 432 q 655 79 769 172 q 378 -14 540 -14 m 378 69 q 597 142 501 69 q 731 376 692 214 q 756 486 746 439 q 778 596 767 533 q 753 831 807 758 q 572 903 700 903 q 353 831 446 903 q 219 596 260 758 q 194 486 204 533 q 172 376 183 439 q 196 142 143 214 q 378 69 249 69 m 688 1042 q 667 1050 674 1042 q 664 1072 661 1058 l 675 1125 q 688 1148 678 1139 q 713 1157 699 1157 l 765 1157 q 786 1148 779 1157 q 790 1125 793 1139 l 779 1072 q 765 1050 776 1058 q 740 1042 754 1042 l 688 1042 m 433 1042 q 413 1050 419 1042 q 410 1072 407 1058 l 421 1125 q 434 1148 424 1139 q 458 1157 444 1157 l 511 1157 q 532 1148 525 1157 q 536 1125 539 1139 l 525 1072 q 511 1050 522 1058 q 486 1042 500 1042 l 433 1042 z "},"Ò":{"ha":919,"x_min":65,"x_max":885,"o":"m 378 -14 q 234 9 297 -14 q 131 79 171 32 q 78 199 92 126 q 83 369 65 271 q 106 486 94 432 q 133 603 118 540 q 294 892 179 797 q 572 986 408 986 q 717 963 654 986 q 819 891 779 939 q 872 772 858 843 q 867 603 885 700 q 844 486 856 540 q 817 369 832 432 q 655 79 769 172 q 378 -14 540 -14 m 378 69 q 597 142 501 69 q 731 376 692 214 q 756 486 746 439 q 778 596 767 533 q 753 831 807 758 q 572 903 700 903 q 353 831 446 903 q 219 596 260 758 q 194 486 204 533 q 172 376 183 439 q 196 142 143 214 q 378 69 249 69 m 592 1042 q 569 1044 578 1042 q 551 1056 561 1046 l 431 1175 q 424 1197 421 1185 q 456 1222 429 1222 l 519 1222 q 548 1217 540 1222 q 565 1197 556 1211 l 636 1082 q 639 1064 642 1072 q 613 1042 633 1042 l 592 1042 z "},"Ő":{"ha":919,"x_min":65,"x_max":885,"o":"m 378 -14 q 234 9 297 -14 q 131 79 171 32 q 78 199 92 126 q 83 369 65 271 q 106 486 94 432 q 133 603 118 540 q 294 892 179 797 q 572 986 408 986 q 717 963 654 986 q 819 891 779 939 q 872 772 858 843 q 867 603 885 700 q 844 486 856 540 q 817 369 832 432 q 655 79 769 172 q 378 -14 540 -14 m 378 69 q 597 142 501 69 q 731 376 692 214 q 756 486 746 439 q 778 596 767 533 q 753 831 807 758 q 572 903 700 903 q 353 831 446 903 q 219 596 260 758 q 194 486 204 533 q 172 376 183 439 q 196 142 143 214 q 378 69 249 69 m 667 1042 q 647 1057 647 1042 q 649 1066 647 1061 q 654 1075 651 1071 l 735 1196 q 756 1216 743 1210 q 792 1222 769 1222 l 847 1222 q 869 1203 869 1222 q 860 1181 869 1190 l 733 1061 q 688 1042 711 1042 l 667 1042 m 461 1042 q 442 1057 442 1042 q 444 1066 442 1061 q 449 1075 446 1071 l 529 1196 q 551 1216 538 1210 q 586 1222 564 1222 l 642 1222 q 664 1203 664 1222 q 654 1181 664 1190 l 528 1061 q 482 1042 506 1042 l 461 1042 z "},"Ō":{"ha":919,"x_min":65,"x_max":885,"o":"m 378 -14 q 234 9 297 -14 q 131 79 171 32 q 78 199 92 126 q 83 369 65 271 q 106 486 94 432 q 133 603 118 540 q 294 892 179 797 q 572 986 408 986 q 717 963 654 986 q 819 891 779 939 q 872 772 858 843 q 867 603 885 700 q 844 486 856 540 q 817 369 832 432 q 655 79 769 172 q 378 -14 540 -14 m 378 69 q 597 142 501 69 q 731 376 692 214 q 756 486 746 439 q 778 596 767 533 q 753 831 807 758 q 572 903 700 903 q 353 831 446 903 q 219 596 260 758 q 194 486 204 533 q 172 376 183 439 q 196 142 143 214 q 378 69 249 69 m 450 1042 q 431 1050 436 1042 q 426 1072 425 1058 l 432 1103 q 445 1125 435 1117 q 469 1133 456 1133 l 746 1133 q 766 1125 760 1133 q 769 1103 772 1117 l 764 1072 q 751 1050 763 1058 q 726 1042 740 1042 l 450 1042 z "},"Ø":{"ha":919,"x_min":44,"x_max":926,"o":"m 378 -14 q 234 9 297 -14 q 131 79 171 32 q 78 199 92 126 q 83 369 65 271 q 106 486 94 432 q 133 603 118 540 q 294 892 179 797 q 572 986 408 986 q 717 963 654 986 q 819 891 779 939 q 872 772 858 843 q 867 603 885 700 q 844 486 856 540 q 817 369 832 432 q 655 79 769 172 q 378 -14 540 -14 m 378 69 q 597 142 501 69 q 731 376 692 214 q 756 486 746 439 q 778 596 767 533 q 753 831 807 758 q 572 903 700 903 q 353 831 446 903 q 219 596 260 758 q 194 486 204 533 q 172 376 183 439 q 196 142 143 214 q 378 69 249 69 m 76 -90 q 53 -79 63 -90 q 58 -50 44 -68 l 838 1042 q 849 1055 840 1047 q 872 1063 858 1063 l 896 1063 q 918 1052 910 1063 q 914 1022 926 1042 l 135 -69 q 123 -83 132 -75 q 100 -90 114 -90 l 76 -90 z "},"Ǿ":{"ha":944,"x_min":44,"x_max":926,"o":"m 574 1042 q 554 1058 554 1042 q 564 1079 554 1069 l 688 1197 q 713 1217 701 1211 q 744 1222 724 1222 l 808 1222 q 825 1216 819 1222 q 831 1203 831 1210 q 818 1179 831 1188 l 640 1056 q 617 1044 626 1046 q 594 1042 608 1042 l 574 1042 m 378 -14 q 234 9 297 -14 q 131 79 171 32 q 78 199 92 126 q 83 369 65 271 q 106 486 94 432 q 133 603 118 540 q 294 892 179 797 q 572 986 408 986 q 717 963 654 986 q 819 891 779 939 q 872 772 858 843 q 867 603 885 700 q 844 486 856 540 q 817 369 832 432 q 655 79 769 172 q 378 -14 540 -14 m 378 69 q 597 142 501 69 q 731 376 692 214 q 756 486 746 439 q 778 596 767 533 q 753 831 807 758 q 572 903 700 903 q 353 831 446 903 q 219 596 260 758 q 194 486 204 533 q 172 376 183 439 q 196 142 143 214 q 378 69 249 69 m 76 -90 q 53 -79 63 -90 q 58 -50 44 -68 l 838 1042 q 849 1055 840 1047 q 872 1063 858 1063 l 896 1063 q 918 1052 910 1063 q 914 1022 926 1042 l 135 -69 q 123 -83 132 -75 q 100 -90 114 -90 l 76 -90 z "},"Õ":{"ha":919,"x_min":65,"x_max":885,"o":"m 378 -14 q 234 9 297 -14 q 131 79 171 32 q 78 199 92 126 q 83 369 65 271 q 106 486 94 432 q 133 603 118 540 q 294 892 179 797 q 572 986 408 986 q 717 963 654 986 q 819 891 779 939 q 872 772 858 843 q 867 603 885 700 q 844 486 856 540 q 817 369 832 432 q 655 79 769 172 q 378 -14 540 -14 m 378 69 q 597 142 501 69 q 731 376 692 214 q 756 486 746 439 q 778 596 767 533 q 753 831 807 758 q 572 903 700 903 q 353 831 446 903 q 219 596 260 758 q 194 486 204 533 q 172 376 183 439 q 196 142 143 214 q 378 69 249 69 m 664 1035 q 612 1047 632 1035 q 575 1070 592 1058 q 539 1082 558 1082 q 506 1072 517 1082 q 488 1052 496 1063 q 465 1042 481 1042 l 438 1042 q 423 1049 428 1042 q 419 1064 418 1056 q 433 1103 422 1083 q 460 1138 444 1122 q 497 1163 476 1154 q 539 1172 518 1172 q 592 1160 572 1172 q 628 1137 613 1149 q 664 1125 644 1125 q 698 1135 688 1125 q 715 1156 708 1146 q 738 1167 722 1167 l 765 1167 q 781 1160 776 1167 q 783 1144 785 1153 q 769 1106 781 1125 q 742 1070 758 1086 q 705 1044 725 1054 q 664 1035 685 1035 z "},"Œ":{"ha":1246,"x_min":69,"x_max":1276,"o":"m 408 0 q 245 24 314 0 q 135 97 176 49 q 82 215 94 144 q 88 375 69 285 q 110 485 100 438 q 135 596 121 533 q 216 807 165 724 q 354 931 267 890 q 579 972 442 972 l 1249 972 q 1270 964 1264 972 q 1274 940 1276 956 l 1269 919 q 1257 897 1267 906 q 1232 889 1247 889 l 803 889 l 726 535 l 1125 535 q 1147 526 1140 535 q 1150 503 1153 518 l 1146 482 q 1133 460 1143 468 q 1108 451 1124 451 l 710 451 l 631 83 l 1071 83 q 1092 75 1086 83 q 1096 51 1099 67 l 1092 31 q 1079 8 1089 17 q 1054 0 1069 0 l 408 0 m 418 83 l 543 83 l 715 889 l 583 889 q 402 859 474 889 q 288 763 331 829 q 221 589 246 697 q 204 517 211 547 q 191 455 197 486 q 176 382 185 424 q 199 157 147 231 q 418 83 251 83 z "},"P":{"ha":874,"x_min":47,"x_max":892,"o":"m 75 0 q 54 8 61 0 q 50 31 47 17 l 243 940 q 256 964 246 956 q 281 972 267 972 l 611 972 q 744 954 688 972 q 835 899 801 936 q 881 809 869 863 q 876 685 892 756 q 749 470 846 543 q 504 397 653 397 l 215 397 l 138 31 q 125 8 135 17 q 100 0 115 0 l 75 0 m 233 481 l 497 481 q 690 533 611 481 q 789 685 768 586 q 794 797 803 751 q 741 865 786 842 q 601 889 696 889 l 321 889 l 233 481 z "},"Þ":{"ha":879,"x_min":47,"x_max":850,"o":"m 75 0 q 54 8 61 0 q 50 31 47 17 l 244 942 q 257 964 247 956 q 281 972 267 972 l 307 972 q 328 964 321 972 q 332 942 335 956 l 296 774 l 569 774 q 703 756 646 774 q 794 701 760 738 q 839 610 828 664 q 835 486 850 557 q 708 272 804 344 q 463 199 611 199 l 174 199 l 138 31 q 125 8 135 17 q 100 0 115 0 l 75 0 m 192 282 l 456 282 q 648 335 569 282 q 747 486 726 388 q 753 598 761 553 q 699 667 744 643 q 560 690 654 690 l 278 690 l 192 282 z "},"Q":{"ha":919,"x_min":81,"x_max":911,"o":"m 672 -90 q 649 -78 657 -90 q 635 -58 640 -67 l 592 26 q 389 -14 500 -14 q 202 27 274 -14 q 106 153 131 68 q 104 369 81 239 q 127 486 115 432 q 153 603 139 540 q 249 817 185 732 q 403 944 313 903 q 601 986 493 986 q 782 944 710 986 q 883 817 854 903 q 886 603 911 732 q 865 486 876 540 q 838 369 853 432 q 674 78 789 171 l 736 -47 q 738 -62 739 -53 q 724 -82 735 -74 q 703 -90 714 -90 l 672 -90 m 407 69 q 619 142 526 69 q 751 376 713 214 q 777 486 767 439 q 797 596 788 533 q 795 772 818 704 q 717 872 772 840 q 583 903 663 903 q 372 831 465 903 q 239 596 279 758 q 215 486 225 533 q 193 376 204 439 q 196 201 174 268 q 273 101 218 133 q 407 69 328 69 z "},"R":{"ha":889,"x_min":67,"x_max":914,"o":"m 93 0 q 73 8 79 0 q 69 31 67 17 l 263 940 q 276 964 265 956 q 300 972 286 972 l 624 972 q 842 903 769 972 q 883 692 914 833 q 790 514 860 581 q 617 424 721 447 l 760 43 q 761 35 761 39 q 760 28 761 32 q 748 8 758 17 q 726 0 738 0 l 710 0 q 679 12 688 0 q 665 38 671 24 l 524 411 l 238 411 l 157 31 q 144 8 154 17 q 118 0 133 0 l 93 0 m 256 494 l 515 494 q 706 544 636 494 q 796 692 775 593 q 768 840 817 790 q 599 889 719 889 l 339 889 l 256 494 z "},"Ŕ":{"ha":889,"x_min":67,"x_max":914,"o":"m 93 0 q 73 8 79 0 q 69 31 67 17 l 263 940 q 276 964 265 956 q 300 972 286 972 l 624 972 q 842 903 769 972 q 883 692 914 833 q 790 514 860 581 q 617 424 721 447 l 760 43 q 761 35 761 39 q 760 28 761 32 q 748 8 758 17 q 726 0 738 0 l 710 0 q 679 12 688 0 q 665 38 671 24 l 524 411 l 238 411 l 157 31 q 144 8 154 17 q 118 0 133 0 l 93 0 m 256 494 l 515 494 q 706 544 636 494 q 796 692 775 593 q 768 840 817 790 q 599 889 719 889 l 339 889 l 256 494 m 504 1042 q 485 1058 485 1042 q 494 1079 485 1069 l 618 1197 q 643 1217 632 1211 q 675 1222 654 1222 l 739 1222 q 756 1216 750 1222 q 761 1203 761 1210 q 749 1179 761 1188 l 571 1056 q 548 1044 557 1046 q 525 1042 539 1042 l 504 1042 z "},"Ř":{"ha":889,"x_min":67,"x_max":914,"o":"m 93 0 q 73 8 79 0 q 69 31 67 17 l 263 940 q 276 964 265 956 q 300 972 286 972 l 624 972 q 842 903 769 972 q 883 692 914 833 q 790 514 860 581 q 617 424 721 447 l 760 43 q 761 35 761 39 q 760 28 761 32 q 748 8 758 17 q 726 0 738 0 l 710 0 q 679 12 688 0 q 665 38 671 24 l 524 411 l 238 411 l 157 31 q 144 8 154 17 q 118 0 133 0 l 93 0 m 256 494 l 515 494 q 706 544 636 494 q 796 692 775 593 q 768 840 817 790 q 599 889 719 889 l 339 889 l 256 494 m 519 1042 q 500 1044 510 1042 q 479 1061 490 1047 l 378 1186 q 372 1207 369 1196 q 393 1222 375 1222 l 421 1222 q 435 1219 429 1222 q 444 1213 440 1217 l 535 1129 l 661 1213 q 674 1219 668 1217 q 688 1222 679 1222 l 735 1222 q 750 1208 750 1222 q 738 1188 750 1199 l 582 1061 q 554 1044 564 1047 q 533 1042 544 1042 l 519 1042 z "},"Ŗ":{"ha":889,"x_min":67,"x_max":914,"o":"m 93 0 q 73 8 79 0 q 69 31 67 17 l 263 940 q 276 964 265 956 q 300 972 286 972 l 624 972 q 842 903 769 972 q 883 692 914 833 q 790 514 860 581 q 617 424 721 447 l 760 43 q 761 35 761 39 q 760 28 761 32 q 748 8 758 17 q 726 0 738 0 l 710 0 q 679 12 688 0 q 665 38 671 24 l 524 411 l 238 411 l 157 31 q 144 8 154 17 q 118 0 133 0 l 93 0 m 256 494 l 515 494 q 706 544 636 494 q 796 692 775 593 q 768 840 817 790 q 599 889 719 889 l 339 889 l 256 494 m 246 -292 q 231 -283 235 -292 q 232 -262 228 -275 l 289 -107 q 306 -80 296 -90 q 332 -69 315 -69 l 394 -69 q 408 -76 404 -69 q 410 -92 413 -83 q 400 -117 407 -104 l 313 -262 q 295 -284 304 -276 q 271 -292 286 -292 l 246 -292 z "},"S":{"ha":836,"x_min":19,"x_max":818,"o":"m 339 -14 q 155 21 226 -14 q 51 113 83 56 q 28 236 19 171 q 37 256 29 247 q 57 264 44 264 l 90 264 q 110 256 104 264 q 115 236 115 247 q 134 159 113 197 q 206 95 156 121 q 339 69 256 69 q 552 119 475 69 q 647 251 629 168 q 634 341 660 307 q 547 402 608 375 q 389 463 486 429 q 242 531 297 494 q 169 619 188 568 q 165 747 150 671 q 281 919 189 853 q 526 986 372 986 q 666 964 608 986 q 758 905 724 942 q 806 826 793 868 q 811 743 818 783 q 803 724 810 733 q 782 715 797 715 l 749 715 q 732 721 742 715 q 724 743 722 726 q 674 858 731 813 q 526 903 618 903 q 346 863 424 903 q 249 736 268 822 q 259 645 238 681 q 337 583 281 610 q 486 524 393 556 q 643 454 583 490 q 726 367 703 418 q 732 240 749 317 q 603 50 706 114 q 339 -14 500 -14 z "},"Ś":{"ha":836,"x_min":19,"x_max":818,"o":"m 339 -14 q 155 21 226 -14 q 51 113 83 56 q 28 236 19 171 q 37 256 29 247 q 57 264 44 264 l 90 264 q 110 256 104 264 q 115 236 115 247 q 134 159 113 197 q 206 95 156 121 q 339 69 256 69 q 552 119 475 69 q 647 251 629 168 q 634 341 660 307 q 547 402 608 375 q 389 463 486 429 q 242 531 297 494 q 169 619 188 568 q 165 747 150 671 q 281 919 189 853 q 526 986 372 986 q 666 964 608 986 q 758 905 724 942 q 806 826 793 868 q 811 743 818 783 q 803 724 810 733 q 782 715 797 715 l 749 715 q 732 721 742 715 q 724 743 722 726 q 674 858 731 813 q 526 903 618 903 q 346 863 424 903 q 249 736 268 822 q 259 645 238 681 q 337 583 281 610 q 486 524 393 556 q 643 454 583 490 q 726 367 703 418 q 732 240 749 317 q 603 50 706 114 q 339 -14 500 -14 m 515 1042 q 496 1058 496 1042 q 506 1079 496 1069 l 629 1197 q 654 1217 643 1211 q 686 1222 665 1222 l 750 1222 q 767 1216 761 1222 q 772 1203 772 1210 q 760 1179 772 1188 l 582 1056 q 559 1044 568 1046 q 536 1042 550 1042 l 515 1042 z "},"Š":{"ha":836,"x_min":19,"x_max":818,"o":"m 339 -14 q 155 21 226 -14 q 51 113 83 56 q 28 236 19 171 q 37 256 29 247 q 57 264 44 264 l 90 264 q 110 256 104 264 q 115 236 115 247 q 134 159 113 197 q 206 95 156 121 q 339 69 256 69 q 552 119 475 69 q 647 251 629 168 q 634 341 660 307 q 547 402 608 375 q 389 463 486 429 q 242 531 297 494 q 169 619 188 568 q 165 747 150 671 q 281 919 189 853 q 526 986 372 986 q 666 964 608 986 q 758 905 724 942 q 806 826 793 868 q 811 743 818 783 q 803 724 810 733 q 782 715 797 715 l 749 715 q 732 721 742 715 q 724 743 722 726 q 674 858 731 813 q 526 903 618 903 q 346 863 424 903 q 249 736 268 822 q 259 645 238 681 q 337 583 281 610 q 486 524 393 556 q 643 454 583 490 q 726 367 703 418 q 732 240 749 317 q 603 50 706 114 q 339 -14 500 -14 m 531 1042 q 511 1044 521 1042 q 490 1061 501 1047 l 389 1186 q 383 1207 381 1196 q 404 1222 386 1222 l 432 1222 q 446 1219 440 1222 q 456 1213 451 1217 l 546 1129 l 672 1213 q 685 1219 679 1217 q 699 1222 690 1222 l 746 1222 q 761 1208 761 1222 q 749 1188 761 1199 l 593 1061 q 565 1044 575 1047 q 544 1042 556 1042 l 531 1042 z "},"Ş":{"ha":839,"x_min":17,"x_max":819,"o":"m 319 -306 q 253 -291 281 -304 q 217 -261 226 -278 q 221 -235 208 -244 l 244 -217 q 267 -212 258 -206 q 289 -231 275 -219 q 333 -242 303 -242 q 378 -227 357 -242 q 406 -186 400 -212 q 396 -147 411 -161 q 357 -133 381 -133 q 319 -140 335 -133 q 292 -148 303 -146 q 272 -139 281 -150 l 256 -115 q 258 -95 250 -107 q 271 -74 265 -83 l 308 -14 q 134 32 200 -6 q 42 123 68 69 q 28 236 17 176 q 41 256 31 247 q 64 264 51 264 l 92 264 q 111 256 106 264 q 115 236 117 247 q 133 159 113 197 q 206 95 154 121 q 349 69 258 69 q 558 119 485 69 q 649 251 631 168 q 635 341 660 307 q 549 402 610 375 q 390 463 488 429 q 242 528 299 494 q 166 611 186 563 q 163 736 146 660 q 227 863 178 807 q 355 953 276 919 q 536 986 433 986 q 674 964 618 986 q 763 905 731 942 q 808 826 796 868 q 813 743 819 783 q 802 724 811 733 q 778 715 793 715 l 750 715 q 733 721 743 715 q 725 743 724 726 q 676 858 732 813 q 518 903 621 903 q 342 863 415 903 q 250 736 268 822 q 260 645 239 681 q 338 583 282 610 q 486 524 394 556 q 644 457 583 490 q 729 376 706 424 q 736 251 753 328 q 672 119 719 175 q 553 30 625 63 q 388 -11 481 -3 l 340 -81 q 365 -72 350 -75 q 396 -69 381 -69 q 465 -101 442 -69 q 476 -183 488 -133 q 426 -270 467 -233 q 319 -306 385 -307 z "},"Ŝ":{"ha":836,"x_min":19,"x_max":818,"o":"m 339 -14 q 155 21 226 -14 q 51 113 83 56 q 28 236 19 171 q 37 256 29 247 q 57 264 44 264 l 90 264 q 110 256 104 264 q 115 236 115 247 q 134 159 113 197 q 206 95 156 121 q 339 69 256 69 q 552 119 475 69 q 647 251 629 168 q 634 341 660 307 q 547 402 608 375 q 389 463 486 429 q 242 531 297 494 q 169 619 188 568 q 165 747 150 671 q 281 919 189 853 q 526 986 372 986 q 666 964 608 986 q 758 905 724 942 q 806 826 793 868 q 811 743 818 783 q 803 724 810 733 q 782 715 797 715 l 749 715 q 732 721 742 715 q 724 743 722 726 q 674 858 731 813 q 526 903 618 903 q 346 863 424 903 q 249 736 268 822 q 259 645 238 681 q 337 583 281 610 q 486 524 393 556 q 643 454 583 490 q 726 367 703 418 q 732 240 749 317 q 603 50 706 114 q 339 -14 500 -14 m 358 1042 q 343 1056 343 1042 q 356 1076 343 1067 l 511 1203 q 540 1220 529 1218 q 560 1222 550 1222 l 574 1222 q 594 1220 585 1222 q 614 1203 603 1218 l 715 1078 q 721 1057 724 1068 q 700 1042 718 1042 l 672 1042 q 658 1044 664 1042 q 649 1051 653 1047 l 558 1135 l 432 1051 q 419 1044 425 1047 q 406 1042 414 1042 l 358 1042 z "},"Ș":{"ha":836,"x_min":19,"x_max":818,"o":"m 339 -14 q 155 21 226 -14 q 51 113 83 56 q 28 236 19 171 q 37 256 29 247 q 57 264 44 264 l 90 264 q 110 256 104 264 q 115 236 115 247 q 134 159 113 197 q 206 95 156 121 q 339 69 256 69 q 552 119 475 69 q 647 251 629 168 q 634 341 660 307 q 547 402 608 375 q 389 463 486 429 q 242 531 297 494 q 169 619 188 568 q 165 747 150 671 q 281 919 189 853 q 526 986 372 986 q 666 964 608 986 q 758 905 724 942 q 806 826 793 868 q 811 743 818 783 q 803 724 810 733 q 782 715 797 715 l 749 715 q 732 721 742 715 q 724 743 722 726 q 674 858 731 813 q 526 903 618 903 q 346 863 424 903 q 249 736 268 822 q 259 645 238 681 q 337 583 281 610 q 486 524 393 556 q 643 454 583 490 q 726 367 703 418 q 732 240 749 317 q 603 50 706 114 q 339 -14 500 -14 m 219 -292 q 205 -283 208 -292 q 206 -262 201 -275 l 263 -107 q 279 -80 269 -90 q 306 -69 289 -69 l 368 -69 q 382 -76 378 -69 q 383 -92 386 -83 q 374 -117 381 -104 l 286 -262 q 269 -284 278 -276 q 244 -292 260 -292 l 219 -292 z "},"ẞ":{"ha":867,"x_min":31,"x_max":842,"o":"m 57 0 q 38 8 44 0 q 33 31 31 17 l 163 642 q 310 903 200 821 q 568 986 419 986 q 704 965 642 986 q 804 910 767 944 q 842 835 842 876 q 819 768 842 794 q 776 725 796 742 l 479 479 l 493 536 q 709 481 633 536 q 785 322 785 425 q 734 158 785 231 q 597 42 683 85 q 401 0 510 0 l 228 0 q 208 8 215 0 q 204 31 201 17 l 208 51 q 222 74 211 67 q 246 82 232 82 l 404 82 q 616 144 538 82 q 694 308 694 206 q 643 417 694 381 q 489 454 592 454 l 426 454 q 406 463 414 454 q 401 485 399 471 l 406 501 q 413 520 408 513 q 435 542 418 528 l 706 764 q 734 792 722 778 q 746 819 746 806 q 692 877 746 850 q 554 904 638 904 q 360 842 439 904 q 250 635 282 781 l 121 31 q 107 8 118 17 q 83 0 96 0 l 57 0 z "},"T":{"ha":765,"x_min":138,"x_max":846,"o":"m 282 0 q 261 8 268 0 q 257 31 254 17 l 440 889 l 165 889 q 144 897 151 889 q 140 919 138 906 l 144 940 q 158 964 147 956 q 182 972 168 972 l 818 972 q 840 964 833 972 q 843 940 846 956 l 839 919 q 826 897 836 906 q 801 889 817 889 l 528 889 l 344 31 q 332 8 342 17 q 307 0 322 0 l 282 0 z "},"Ŧ":{"ha":783,"x_min":146,"x_max":854,"o":"m 290 0 q 269 8 276 0 q 265 31 263 17 l 363 486 l 199 486 q 178 494 185 486 q 175 517 172 503 l 179 538 q 192 561 182 553 q 217 569 203 569 l 381 569 l 449 889 l 174 889 q 153 897 160 889 q 149 919 146 906 l 153 940 q 166 964 156 956 q 190 972 176 972 l 826 972 q 848 964 842 972 q 851 940 854 956 l 847 919 q 835 897 844 906 q 810 889 825 889 l 536 889 l 468 569 l 631 569 q 652 561 646 569 q 656 538 658 553 l 651 517 q 638 494 649 503 q 613 486 628 486 l 450 486 l 353 31 q 340 8 350 17 q 315 0 331 0 l 290 0 z "},"Ť":{"ha":765,"x_min":138,"x_max":846,"o":"m 282 0 q 261 8 268 0 q 257 31 254 17 l 440 889 l 165 889 q 144 897 151 889 q 140 919 138 906 l 144 940 q 158 964 147 956 q 182 972 168 972 l 818 972 q 840 964 833 972 q 843 940 846 956 l 839 919 q 826 897 836 906 q 801 889 817 889 l 528 889 l 344 31 q 332 8 342 17 q 307 0 322 0 l 282 0 m 511 1042 q 492 1044 501 1042 q 471 1061 482 1047 l 369 1186 q 364 1207 361 1196 q 385 1222 367 1222 l 413 1222 q 426 1219 421 1222 q 436 1213 432 1217 l 526 1129 l 653 1213 q 665 1219 660 1217 q 679 1222 671 1222 l 726 1222 q 742 1208 742 1222 q 729 1188 742 1199 l 574 1061 q 546 1044 556 1047 q 525 1042 536 1042 l 511 1042 z "},"Ț":{"ha":765,"x_min":138,"x_max":846,"o":"m 282 0 q 261 8 268 0 q 257 31 254 17 l 440 889 l 165 889 q 144 897 151 889 q 140 919 138 906 l 144 940 q 158 964 147 956 q 182 972 168 972 l 818 972 q 840 964 833 972 q 843 940 846 956 l 839 919 q 826 897 836 906 q 801 889 817 889 l 528 889 l 344 31 q 332 8 342 17 q 307 0 322 0 l 282 0 m 168 -292 q 153 -283 157 -292 q 154 -262 150 -275 l 211 -107 q 228 -80 218 -90 q 254 -69 238 -69 l 317 -69 q 331 -76 326 -69 q 332 -92 335 -83 q 322 -117 329 -104 l 235 -262 q 217 -284 226 -276 q 193 -292 208 -292 l 168 -292 z "},"U":{"ha":960,"x_min":94,"x_max":953,"o":"m 397 -14 q 244 9 308 -14 q 145 80 181 32 q 102 201 110 128 q 115 376 94 275 l 235 940 q 248 964 238 956 q 272 972 258 972 l 297 972 q 319 964 313 972 q 322 940 325 956 l 201 372 q 213 143 168 217 q 397 69 257 69 q 620 143 532 69 q 742 372 708 217 l 863 940 q 876 964 865 956 q 901 972 888 972 l 926 972 q 947 964 940 972 q 950 940 953 956 l 831 376 q 683 81 788 175 q 397 -14 578 -14 z "},"Ú":{"ha":960,"x_min":94,"x_max":953,"o":"m 397 -14 q 244 9 308 -14 q 145 80 181 32 q 102 201 110 128 q 115 376 94 275 l 235 940 q 248 964 238 956 q 272 972 258 972 l 297 972 q 319 964 313 972 q 322 940 325 956 l 201 372 q 213 143 168 217 q 397 69 257 69 q 620 143 532 69 q 742 372 708 217 l 863 940 q 876 964 865 956 q 901 972 888 972 l 926 972 q 947 964 940 972 q 950 940 953 956 l 831 376 q 683 81 788 175 q 397 -14 578 -14 m 576 1042 q 557 1058 557 1042 q 567 1079 557 1069 l 690 1197 q 715 1217 704 1211 q 747 1222 726 1222 l 811 1222 q 828 1216 822 1222 q 833 1203 833 1210 q 821 1179 833 1188 l 643 1056 q 620 1044 629 1046 q 597 1042 611 1042 l 576 1042 z "},"Ŭ":{"ha":960,"x_min":94,"x_max":953,"o":"m 397 -14 q 244 9 308 -14 q 145 80 181 32 q 102 201 110 128 q 115 376 94 275 l 235 940 q 248 964 238 956 q 272 972 258 972 l 297 972 q 319 964 313 972 q 322 940 325 956 l 201 372 q 213 143 168 217 q 397 69 257 69 q 620 143 532 69 q 742 372 708 217 l 863 940 q 876 964 865 956 q 901 972 888 972 l 926 972 q 947 964 940 972 q 950 940 953 956 l 831 376 q 683 81 788 175 q 397 -14 578 -14 m 601 1028 q 512 1051 544 1028 q 469 1113 479 1075 q 467 1189 458 1150 q 478 1208 469 1200 q 499 1215 486 1215 l 519 1215 q 538 1208 532 1215 q 540 1189 543 1200 q 546 1126 535 1156 q 604 1097 557 1097 q 678 1126 653 1097 q 713 1189 703 1156 q 724 1208 715 1200 q 744 1215 732 1215 l 765 1215 q 783 1208 778 1215 q 786 1189 789 1200 q 758 1113 778 1150 q 700 1051 738 1075 q 601 1028 663 1028 z "},"Û":{"ha":960,"x_min":94,"x_max":953,"o":"m 397 -14 q 244 9 308 -14 q 145 80 181 32 q 102 201 110 128 q 115 376 94 275 l 235 940 q 248 964 238 956 q 272 972 258 972 l 297 972 q 319 964 313 972 q 322 940 325 956 l 201 372 q 213 143 168 217 q 397 69 257 69 q 620 143 532 69 q 742 372 708 217 l 863 940 q 876 964 865 956 q 901 972 888 972 l 926 972 q 947 964 940 972 q 950 940 953 956 l 831 376 q 683 81 788 175 q 397 -14 578 -14 m 419 1042 q 404 1056 404 1042 q 417 1076 404 1067 l 572 1203 q 601 1220 590 1218 q 621 1222 611 1222 l 635 1222 q 655 1220 646 1222 q 675 1203 664 1218 l 776 1078 q 782 1057 785 1068 q 761 1042 779 1042 l 733 1042 q 719 1044 725 1042 q 710 1051 714 1047 l 619 1135 l 493 1051 q 481 1044 486 1047 q 467 1042 475 1042 l 419 1042 z "},"Ü":{"ha":960,"x_min":94,"x_max":953,"o":"m 397 -14 q 244 9 308 -14 q 145 80 181 32 q 102 201 110 128 q 115 376 94 275 l 235 940 q 248 964 238 956 q 272 972 258 972 l 297 972 q 319 964 313 972 q 322 940 325 956 l 201 372 q 213 143 168 217 q 397 69 257 69 q 620 143 532 69 q 742 372 708 217 l 863 940 q 876 964 865 956 q 901 972 888 972 l 926 972 q 947 964 940 972 q 950 940 953 956 l 831 376 q 683 81 788 175 q 397 -14 578 -14 m 697 1042 q 677 1050 683 1042 q 674 1072 671 1058 l 685 1125 q 698 1148 688 1139 q 722 1157 708 1157 l 775 1157 q 796 1148 789 1157 q 800 1125 803 1139 l 789 1072 q 775 1050 786 1058 q 750 1042 764 1042 l 697 1042 m 443 1042 q 423 1050 429 1042 q 419 1072 417 1058 l 431 1125 q 444 1148 433 1139 q 468 1157 454 1157 l 521 1157 q 542 1148 535 1157 q 546 1125 549 1139 l 535 1072 q 521 1050 532 1058 q 496 1042 510 1042 l 443 1042 z "},"Ù":{"ha":960,"x_min":94,"x_max":953,"o":"m 397 -14 q 244 9 308 -14 q 145 80 181 32 q 102 201 110 128 q 115 376 94 275 l 235 940 q 248 964 238 956 q 272 972 258 972 l 297 972 q 319 964 313 972 q 322 940 325 956 l 201 372 q 213 143 168 217 q 397 69 257 69 q 620 143 532 69 q 742 372 708 217 l 863 940 q 876 964 865 956 q 901 972 888 972 l 926 972 q 947 964 940 972 q 950 940 953 956 l 831 376 q 683 81 788 175 q 397 -14 578 -14 m 601 1042 q 579 1044 588 1042 q 561 1056 571 1046 l 440 1175 q 433 1197 431 1185 q 465 1222 439 1222 l 529 1222 q 558 1217 550 1222 q 575 1197 565 1211 l 646 1082 q 649 1064 651 1072 q 622 1042 643 1042 l 601 1042 z "},"Ű":{"ha":960,"x_min":94,"x_max":953,"o":"m 397 -14 q 244 9 308 -14 q 145 80 181 32 q 102 201 110 128 q 115 376 94 275 l 235 940 q 248 964 238 956 q 272 972 258 972 l 297 972 q 319 964 313 972 q 322 940 325 956 l 201 372 q 213 143 168 217 q 397 69 257 69 q 620 143 532 69 q 742 372 708 217 l 863 940 q 876 964 865 956 q 901 972 888 972 l 926 972 q 947 964 940 972 q 950 940 953 956 l 831 376 q 683 81 788 175 q 397 -14 578 -14 m 676 1042 q 657 1057 657 1042 q 659 1066 657 1061 q 664 1075 661 1071 l 744 1196 q 766 1216 753 1210 q 801 1222 779 1222 l 857 1222 q 879 1203 879 1222 q 869 1181 879 1190 l 743 1061 q 697 1042 721 1042 l 676 1042 m 471 1042 q 451 1057 451 1042 q 453 1066 451 1061 q 458 1075 456 1071 l 539 1196 q 560 1216 547 1210 q 596 1222 574 1222 l 651 1222 q 674 1203 674 1222 q 664 1181 674 1190 l 538 1061 q 492 1042 515 1042 l 471 1042 z "},"Ū":{"ha":960,"x_min":94,"x_max":953,"o":"m 397 -14 q 244 9 308 -14 q 145 80 181 32 q 102 201 110 128 q 115 376 94 275 l 235 940 q 248 964 238 956 q 272 972 258 972 l 297 972 q 319 964 313 972 q 322 940 325 956 l 201 372 q 213 143 168 217 q 397 69 257 69 q 620 143 532 69 q 742 372 708 217 l 863 940 q 876 964 865 956 q 901 972 888 972 l 926 972 q 947 964 940 972 q 950 940 953 956 l 831 376 q 683 81 788 175 q 397 -14 578 -14 m 460 1042 q 440 1050 446 1042 q 436 1072 435 1058 l 442 1103 q 455 1125 444 1117 q 479 1133 465 1133 l 756 1133 q 776 1125 769 1133 q 779 1103 782 1117 l 774 1072 q 761 1050 772 1058 q 736 1042 750 1042 l 460 1042 z "},"Ų":{"ha":961,"x_min":90,"x_max":953,"o":"m 433 -306 q 344 -282 385 -306 q 283 -215 303 -258 q 272 -114 263 -172 q 290 -55 278 -81 q 318 -8 301 -29 q 174 50 228 4 q 105 177 119 96 q 115 376 90 258 l 235 940 q 248 964 238 956 q 272 972 258 972 l 297 972 q 319 964 313 972 q 322 940 325 956 l 201 372 q 213 143 168 217 q 397 69 257 69 q 620 143 532 69 q 742 372 708 217 l 863 940 q 876 964 865 956 q 901 972 888 972 l 926 972 q 947 964 940 972 q 950 940 953 956 l 831 376 q 754 158 808 242 q 626 35 700 75 q 465 -10 551 -4 q 399 -38 431 -11 q 356 -114 367 -65 q 372 -197 344 -167 q 433 -226 399 -226 l 458 -226 q 478 -235 472 -226 q 482 -257 485 -243 l 475 -282 q 464 -301 471 -296 q 442 -306 457 -306 l 433 -306 z "},"Ů":{"ha":960,"x_min":94,"x_max":953,"o":"m 397 -14 q 244 9 308 -14 q 145 80 181 32 q 102 201 110 128 q 115 376 94 275 l 235 940 q 248 964 238 956 q 272 972 258 972 l 297 972 q 319 964 313 972 q 322 940 325 956 l 201 372 q 213 143 168 217 q 397 69 257 69 q 620 143 532 69 q 742 372 708 217 l 863 940 q 876 964 865 956 q 901 972 888 972 l 926 972 q 947 964 940 972 q 950 940 953 956 l 831 376 q 683 81 788 175 q 397 -14 578 -14 m 599 1028 q 524 1058 553 1028 q 506 1132 496 1088 q 553 1207 517 1178 q 635 1236 589 1236 q 710 1207 681 1236 q 728 1132 739 1178 q 681 1056 718 1085 q 599 1028 644 1028 m 603 1090 q 639 1102 624 1090 q 658 1132 654 1114 q 656 1162 663 1150 q 629 1174 649 1174 q 594 1162 608 1174 q 575 1132 579 1150 q 578 1102 571 1114 q 603 1090 586 1090 z "},"Ũ":{"ha":960,"x_min":94,"x_max":953,"o":"m 397 -14 q 244 9 308 -14 q 145 80 181 32 q 102 201 110 128 q 115 376 94 275 l 235 940 q 248 964 238 956 q 272 972 258 972 l 297 972 q 319 964 313 972 q 322 940 325 956 l 201 372 q 213 143 168 217 q 397 69 257 69 q 620 143 532 69 q 742 372 708 217 l 863 940 q 876 964 865 956 q 901 972 888 972 l 926 972 q 947 964 940 972 q 950 940 953 956 l 831 376 q 683 81 788 175 q 397 -14 578 -14 m 674 1035 q 622 1047 642 1035 q 585 1070 601 1058 q 549 1082 568 1082 q 516 1072 526 1082 q 498 1052 506 1063 q 475 1042 490 1042 l 447 1042 q 433 1049 438 1042 q 429 1064 428 1056 q 443 1103 432 1083 q 470 1138 454 1122 q 507 1163 486 1154 q 549 1172 528 1172 q 602 1160 582 1172 q 638 1137 622 1149 q 674 1125 654 1125 q 708 1135 697 1125 q 725 1156 718 1146 q 747 1167 732 1167 l 775 1167 q 790 1160 786 1167 q 793 1144 794 1153 q 779 1106 790 1125 q 751 1070 768 1086 q 715 1044 735 1054 q 674 1035 694 1035 z "},"V":{"ha":888,"x_min":161,"x_max":951,"o":"m 335 0 q 307 8 317 0 q 294 33 297 17 l 163 939 q 169 964 161 956 q 190 972 176 972 l 221 972 q 240 966 235 972 q 247 951 246 960 l 371 101 l 856 951 q 865 965 858 958 q 885 972 871 972 l 926 972 q 947 958 943 972 q 943 928 951 943 l 432 33 q 410 8 422 17 q 378 0 397 0 l 335 0 z "},"W":{"ha":1078,"x_min":171,"x_max":1138,"o":"m 203 0 q 178 8 186 0 q 171 33 171 15 l 171 944 q 178 964 171 956 q 200 972 186 972 l 226 972 q 247 964 240 972 q 254 944 254 956 l 254 175 l 542 725 q 561 747 549 738 q 592 757 574 757 l 621 757 q 648 747 640 757 q 657 725 656 738 l 715 161 l 1046 951 q 1081 972 1054 972 l 1111 972 q 1134 962 1131 972 q 1131 936 1138 951 l 753 33 q 734 8 744 15 q 707 0 724 0 l 678 0 q 652 8 661 0 q 642 33 643 17 l 582 617 l 278 33 q 257 8 269 17 q 228 0 244 0 l 203 0 z "},"Ẃ":{"ha":1078,"x_min":171,"x_max":1138,"o":"m 203 0 q 178 8 186 0 q 171 33 171 15 l 171 944 q 178 964 171 956 q 200 972 186 972 l 226 972 q 247 964 240 972 q 254 944 254 956 l 254 175 l 542 725 q 561 747 549 738 q 592 757 574 757 l 621 757 q 648 747 640 757 q 657 725 656 738 l 715 161 l 1046 951 q 1081 972 1054 972 l 1111 972 q 1134 962 1131 972 q 1131 936 1138 951 l 753 33 q 734 8 744 15 q 707 0 724 0 l 678 0 q 652 8 661 0 q 642 33 643 17 l 582 617 l 278 33 q 257 8 269 17 q 228 0 244 0 l 203 0 m 635 1042 q 615 1058 615 1042 q 625 1079 615 1069 l 749 1197 q 774 1217 763 1211 q 806 1222 785 1222 l 869 1222 q 886 1216 881 1222 q 892 1203 892 1210 q 879 1179 892 1188 l 701 1056 q 678 1044 688 1046 q 656 1042 669 1042 l 635 1042 z "},"Ŵ":{"ha":1078,"x_min":171,"x_max":1138,"o":"m 203 0 q 178 8 186 0 q 171 33 171 15 l 171 944 q 178 964 171 956 q 200 972 186 972 l 226 972 q 247 964 240 972 q 254 944 254 956 l 254 175 l 542 725 q 561 747 549 738 q 592 757 574 757 l 621 757 q 648 747 640 757 q 657 725 656 738 l 715 161 l 1046 951 q 1081 972 1054 972 l 1111 972 q 1134 962 1131 972 q 1131 936 1138 951 l 753 33 q 734 8 744 15 q 707 0 724 0 l 678 0 q 652 8 661 0 q 642 33 643 17 l 582 617 l 278 33 q 257 8 269 17 q 228 0 244 0 l 203 0 m 478 1042 q 463 1056 463 1042 q 475 1076 463 1067 l 631 1203 q 659 1220 649 1218 q 679 1222 669 1222 l 693 1222 q 713 1220 704 1222 q 733 1203 722 1218 l 835 1078 q 840 1057 843 1068 q 819 1042 838 1042 l 792 1042 q 778 1044 783 1042 q 768 1051 772 1047 l 678 1135 l 551 1051 q 539 1044 544 1047 q 525 1042 533 1042 l 478 1042 z "},"Ẅ":{"ha":1078,"x_min":171,"x_max":1138,"o":"m 203 0 q 178 8 186 0 q 171 33 171 15 l 171 944 q 178 964 171 956 q 200 972 186 972 l 226 972 q 247 964 240 972 q 254 944 254 956 l 254 175 l 542 725 q 561 747 549 738 q 592 757 574 757 l 621 757 q 648 747 640 757 q 657 725 656 738 l 715 161 l 1046 951 q 1081 972 1054 972 l 1111 972 q 1134 962 1131 972 q 1131 936 1138 951 l 753 33 q 734 8 744 15 q 707 0 724 0 l 678 0 q 652 8 661 0 q 642 33 643 17 l 582 617 l 278 33 q 257 8 269 17 q 228 0 244 0 l 203 0 m 756 1042 q 735 1050 742 1042 q 732 1072 729 1058 l 743 1125 q 756 1148 746 1139 q 781 1157 767 1157 l 833 1157 q 854 1148 847 1157 q 858 1125 861 1139 l 847 1072 q 833 1050 844 1058 q 808 1042 822 1042 l 756 1042 m 501 1042 q 481 1050 488 1042 q 478 1072 475 1058 l 489 1125 q 502 1148 492 1139 q 526 1157 513 1157 l 579 1157 q 600 1148 593 1157 q 604 1125 607 1139 l 593 1072 q 579 1050 590 1058 q 554 1042 568 1042 l 501 1042 z "},"Ẁ":{"ha":1078,"x_min":171,"x_max":1138,"o":"m 203 0 q 178 8 186 0 q 171 33 171 15 l 171 944 q 178 964 171 956 q 200 972 186 972 l 226 972 q 247 964 240 972 q 254 944 254 956 l 254 175 l 542 725 q 561 747 549 738 q 592 757 574 757 l 621 757 q 648 747 640 757 q 657 725 656 738 l 715 161 l 1046 951 q 1081 972 1054 972 l 1111 972 q 1134 962 1131 972 q 1131 936 1138 951 l 753 33 q 734 8 744 15 q 707 0 724 0 l 678 0 q 652 8 661 0 q 642 33 643 17 l 582 617 l 278 33 q 257 8 269 17 q 228 0 244 0 l 203 0 m 660 1042 q 638 1044 646 1042 q 619 1056 629 1046 l 499 1175 q 492 1197 489 1185 q 524 1222 497 1222 l 588 1222 q 616 1217 608 1222 q 633 1197 624 1211 l 704 1082 q 707 1064 710 1072 q 681 1042 701 1042 l 660 1042 z "},"X":{"ha":847,"x_min":-47,"x_max":914,"o":"m -14 0 q -39 16 -31 0 q -35 46 -47 32 l 389 500 l 172 929 q 172 958 164 944 q 196 972 181 972 l 218 972 q 247 965 240 972 q 257 951 254 958 l 454 563 l 810 951 q 825 965 817 958 q 857 972 833 972 l 881 972 q 906 957 897 972 q 901 926 914 942 l 494 482 l 721 40 q 719 13 728 26 q 696 0 711 0 l 674 0 q 645 8 653 0 q 635 21 638 15 l 431 419 l 57 21 q 42 8 51 15 q 11 0 33 0 l -14 0 z "},"Y":{"ha":874,"x_min":156,"x_max":940,"o":"m 336 0 q 315 8 322 0 q 311 31 308 17 l 382 371 l 161 926 q 165 957 156 942 q 193 972 175 972 l 217 972 q 233 967 226 972 q 244 951 240 963 l 438 465 l 836 951 q 853 967 844 963 q 872 972 863 972 l 915 972 q 940 957 939 972 q 928 926 940 942 l 471 371 l 397 31 q 385 8 394 17 q 360 0 375 0 l 336 0 z "},"Ý":{"ha":874,"x_min":156,"x_max":940,"o":"m 336 0 q 315 8 322 0 q 311 31 308 17 l 382 371 l 161 926 q 165 957 156 942 q 193 972 175 972 l 217 972 q 233 967 226 972 q 244 951 240 963 l 438 465 l 836 951 q 853 967 844 963 q 872 972 863 972 l 915 972 q 940 957 939 972 q 928 926 940 942 l 471 371 l 397 31 q 385 8 394 17 q 360 0 375 0 l 336 0 m 508 1042 q 489 1058 489 1042 q 499 1079 489 1069 l 622 1197 q 647 1217 636 1211 q 679 1222 658 1222 l 743 1222 q 760 1216 754 1222 q 765 1203 765 1210 q 753 1179 765 1188 l 575 1056 q 552 1044 561 1046 q 529 1042 543 1042 l 508 1042 z "},"Ŷ":{"ha":874,"x_min":156,"x_max":940,"o":"m 336 0 q 315 8 322 0 q 311 31 308 17 l 382 371 l 161 926 q 165 957 156 942 q 193 972 175 972 l 217 972 q 233 967 226 972 q 244 951 240 963 l 438 465 l 836 951 q 853 967 844 963 q 872 972 863 972 l 915 972 q 940 957 939 972 q 928 926 940 942 l 471 371 l 397 31 q 385 8 394 17 q 360 0 375 0 l 336 0 m 351 1042 q 336 1056 336 1042 q 349 1076 336 1067 l 504 1203 q 533 1220 522 1218 q 553 1222 543 1222 l 567 1222 q 587 1220 578 1222 q 607 1203 596 1218 l 708 1078 q 714 1057 717 1068 q 693 1042 711 1042 l 665 1042 q 651 1044 657 1042 q 642 1051 646 1047 l 551 1135 l 425 1051 q 413 1044 418 1047 q 399 1042 407 1042 l 351 1042 z "},"Ÿ":{"ha":874,"x_min":156,"x_max":940,"o":"m 336 0 q 315 8 322 0 q 311 31 308 17 l 382 371 l 161 926 q 165 957 156 942 q 193 972 175 972 l 217 972 q 233 967 226 972 q 244 951 240 963 l 438 465 l 836 951 q 853 967 844 963 q 872 972 863 972 l 915 972 q 940 957 939 972 q 928 926 940 942 l 471 371 l 397 31 q 385 8 394 17 q 360 0 375 0 l 336 0 m 629 1042 q 609 1050 615 1042 q 606 1072 603 1058 l 617 1125 q 630 1148 619 1139 q 654 1157 640 1157 l 707 1157 q 728 1148 721 1157 q 732 1125 735 1139 l 721 1072 q 707 1050 718 1058 q 682 1042 696 1042 l 629 1042 m 375 1042 q 355 1050 361 1042 q 351 1072 349 1058 l 363 1125 q 376 1148 365 1139 q 400 1157 386 1157 l 453 1157 q 474 1148 467 1157 q 478 1125 481 1139 l 467 1072 q 453 1050 464 1058 q 428 1042 442 1042 l 375 1042 z "},"Ỳ":{"ha":874,"x_min":156,"x_max":940,"o":"m 336 0 q 315 8 322 0 q 311 31 308 17 l 382 371 l 161 926 q 165 957 156 942 q 193 972 175 972 l 217 972 q 233 967 226 972 q 244 951 240 963 l 438 465 l 836 951 q 853 967 844 963 q 872 972 863 972 l 915 972 q 940 957 939 972 q 928 926 940 942 l 471 371 l 397 31 q 385 8 394 17 q 360 0 375 0 l 336 0 m 533 1042 q 511 1044 519 1042 q 493 1056 503 1046 l 372 1175 q 365 1197 363 1185 q 397 1222 371 1222 l 461 1222 q 490 1217 482 1222 q 507 1197 497 1211 l 578 1082 q 581 1064 583 1072 q 554 1042 575 1042 l 533 1042 z "},"Z":{"ha":797,"x_min":-28,"x_max":844,"o":"m 0 0 q -21 9 -14 0 q -25 32 -28 18 l -18 60 q -3 93 -12 81 q 13 111 7 106 l 715 889 l 201 889 q 181 897 188 889 q 176 919 174 906 l 181 940 q 194 964 183 956 q 218 972 204 972 l 817 972 q 838 964 832 972 q 842 940 844 956 l 836 913 q 824 883 833 894 q 807 863 815 872 l 103 83 l 642 83 q 663 75 657 83 q 667 51 669 67 l 663 31 q 650 8 660 17 q 625 0 640 0 l 0 0 z "},"Ź":{"ha":797,"x_min":-28,"x_max":844,"o":"m 0 0 q -21 9 -14 0 q -25 32 -28 18 l -18 60 q -3 93 -12 81 q 13 111 7 106 l 715 889 l 201 889 q 181 897 188 889 q 176 919 174 906 l 181 940 q 194 964 183 956 q 218 972 204 972 l 817 972 q 838 964 832 972 q 842 940 844 956 l 836 913 q 824 883 833 894 q 807 863 815 872 l 103 83 l 642 83 q 663 75 657 83 q 667 51 669 67 l 663 31 q 650 8 660 17 q 625 0 640 0 l 0 0 m 508 1042 q 489 1058 489 1042 q 499 1079 489 1069 l 622 1197 q 647 1217 636 1211 q 679 1222 658 1222 l 743 1222 q 760 1216 754 1222 q 765 1203 765 1210 q 753 1179 765 1188 l 575 1056 q 552 1044 561 1046 q 529 1042 543 1042 l 508 1042 z "},"Ž":{"ha":797,"x_min":-28,"x_max":844,"o":"m 0 0 q -21 9 -14 0 q -25 32 -28 18 l -18 60 q -3 93 -12 81 q 13 111 7 106 l 715 889 l 201 889 q 181 897 188 889 q 176 919 174 906 l 181 940 q 194 964 183 956 q 218 972 204 972 l 817 972 q 838 964 832 972 q 842 940 844 956 l 836 913 q 824 883 833 894 q 807 863 815 872 l 103 83 l 642 83 q 663 75 657 83 q 667 51 669 67 l 663 31 q 650 8 660 17 q 625 0 640 0 l 0 0 m 524 1042 q 504 1044 514 1042 q 483 1061 494 1047 l 382 1186 q 376 1207 374 1196 q 397 1222 379 1222 l 425 1222 q 439 1219 433 1222 q 449 1213 444 1217 l 539 1129 l 665 1213 q 678 1219 672 1217 q 692 1222 683 1222 l 739 1222 q 754 1208 754 1222 q 742 1188 754 1199 l 586 1061 q 558 1044 568 1047 q 538 1042 549 1042 l 524 1042 z "},"Ż":{"ha":797,"x_min":-28,"x_max":844,"o":"m 0 0 q -21 9 -14 0 q -25 32 -28 18 l -18 60 q -3 93 -12 81 q 13 111 7 106 l 715 889 l 201 889 q 181 897 188 889 q 176 919 174 906 l 181 940 q 194 964 183 956 q 218 972 204 972 l 817 972 q 838 964 832 972 q 842 940 844 956 l 836 913 q 824 883 833 894 q 807 863 815 872 l 103 83 l 642 83 q 663 75 657 83 q 667 51 669 67 l 663 31 q 650 8 660 17 q 625 0 640 0 l 0 0 m 496 1042 q 476 1050 482 1042 q 472 1072 469 1058 l 486 1139 q 499 1162 489 1153 q 524 1171 510 1171 l 590 1171 q 611 1162 604 1171 q 615 1139 618 1153 l 601 1072 q 588 1050 599 1058 q 563 1042 576 1042 l 496 1042 z "},"a":{"ha":790,"x_min":47,"x_max":739,"o":"m 288 -14 q 157 15 207 -14 q 82 93 107 44 q 52 201 57 142 q 57 322 47 261 q 64 361 60 343 q 74 400 68 379 q 115 520 89 461 q 183 628 142 579 q 286 707 225 678 q 431 736 347 736 q 568 704 522 736 q 638 626 614 672 l 651 692 q 664 714 654 706 q 688 722 674 722 l 711 722 q 732 714 725 722 q 736 692 739 706 l 596 31 q 583 8 593 17 q 560 0 574 0 l 536 0 q 515 8 522 0 q 511 31 508 17 l 525 96 q 431 17 482 49 q 288 -14 379 -14 m 288 67 q 425 104 367 67 q 520 198 483 142 q 571 311 557 254 q 583 365 576 332 q 594 419 590 399 q 596 529 606 475 q 547 619 586 583 q 431 656 508 656 q 302 619 356 656 q 214 525 249 583 q 160 400 179 467 q 150 361 154 379 q 143 322 146 343 q 138 197 133 256 q 178 103 143 139 q 288 67 213 67 z "},"á":{"ha":790,"x_min":47,"x_max":739,"o":"m 288 -14 q 157 15 207 -14 q 82 93 107 44 q 52 201 57 142 q 57 322 47 261 q 64 361 60 343 q 74 400 68 379 q 115 520 89 461 q 183 628 142 579 q 286 707 225 678 q 431 736 347 736 q 568 704 522 736 q 638 626 614 672 l 651 692 q 664 714 654 706 q 688 722 674 722 l 711 722 q 732 714 725 722 q 736 692 739 706 l 596 31 q 583 8 593 17 q 560 0 574 0 l 536 0 q 515 8 522 0 q 511 31 508 17 l 525 96 q 431 17 482 49 q 288 -14 379 -14 m 288 67 q 425 104 367 67 q 520 198 483 142 q 571 311 557 254 q 583 365 576 332 q 594 419 590 399 q 596 529 606 475 q 547 619 586 583 q 431 656 508 656 q 302 619 356 656 q 214 525 249 583 q 160 400 179 467 q 150 361 154 379 q 143 322 146 343 q 138 197 133 256 q 178 103 143 139 q 288 67 213 67 m 428 826 q 411 849 406 826 q 422 867 414 858 l 543 982 q 569 1001 558 996 q 600 1007 579 1007 l 657 1007 q 678 986 678 1007 q 667 964 678 971 l 489 840 q 466 828 475 831 q 443 826 457 826 l 428 826 z "},"ă":{"ha":790,"x_min":47,"x_max":739,"o":"m 288 -14 q 157 15 207 -14 q 82 93 107 44 q 52 201 57 142 q 57 322 47 261 q 64 361 60 343 q 74 400 68 379 q 115 520 89 461 q 183 628 142 579 q 286 707 225 678 q 431 736 347 736 q 568 704 522 736 q 638 626 614 672 l 651 692 q 664 714 654 706 q 688 722 674 722 l 711 722 q 732 714 725 722 q 736 692 739 706 l 596 31 q 583 8 593 17 q 560 0 574 0 l 536 0 q 515 8 522 0 q 511 31 508 17 l 525 96 q 431 17 482 49 q 288 -14 379 -14 m 288 67 q 425 104 367 67 q 520 198 483 142 q 571 311 557 254 q 583 365 576 332 q 594 419 590 399 q 596 529 606 475 q 547 619 586 583 q 431 656 508 656 q 302 619 356 656 q 214 525 249 583 q 160 400 179 467 q 150 361 154 379 q 143 322 146 343 q 138 197 133 256 q 178 103 143 139 q 288 67 213 67 m 472 819 q 384 843 415 819 q 344 904 353 867 q 344 981 336 942 q 356 999 347 992 q 376 1007 364 1007 l 397 1007 q 415 999 410 1007 q 418 981 421 992 q 419 918 411 947 q 475 889 428 889 q 545 918 524 889 q 576 981 567 947 q 588 999 579 992 q 608 1007 596 1007 l 629 1007 q 647 999 642 1007 q 650 981 653 992 q 624 904 642 942 q 569 843 606 867 q 472 819 533 819 z "},"â":{"ha":790,"x_min":47,"x_max":739,"o":"m 288 -14 q 157 15 207 -14 q 82 93 107 44 q 52 201 57 142 q 57 322 47 261 q 64 361 60 343 q 74 400 68 379 q 115 520 89 461 q 183 628 142 579 q 286 707 225 678 q 431 736 347 736 q 568 704 522 736 q 638 626 614 672 l 651 692 q 664 714 654 706 q 688 722 674 722 l 711 722 q 732 714 725 722 q 736 692 739 706 l 596 31 q 583 8 593 17 q 560 0 574 0 l 536 0 q 515 8 522 0 q 511 31 508 17 l 525 96 q 431 17 482 49 q 288 -14 379 -14 m 288 67 q 425 104 367 67 q 520 198 483 142 q 571 311 557 254 q 583 365 576 332 q 594 419 590 399 q 596 529 606 475 q 547 619 586 583 q 431 656 508 656 q 302 619 356 656 q 214 525 249 583 q 160 400 179 467 q 150 361 154 379 q 143 322 146 343 q 138 197 133 256 q 178 103 143 139 q 288 67 213 67 m 285 826 q 269 840 269 826 q 282 861 269 851 l 438 988 q 466 1005 456 1003 q 486 1007 476 1007 l 500 1007 q 520 1005 511 1007 q 540 988 529 1003 l 642 863 q 647 842 650 853 q 626 826 644 826 l 599 826 q 585 829 590 826 q 575 836 579 832 l 485 919 l 358 836 q 346 829 351 832 q 332 826 340 826 l 285 826 z "},"ä":{"ha":790,"x_min":47,"x_max":739,"o":"m 288 -14 q 157 15 207 -14 q 82 93 107 44 q 52 201 57 142 q 57 322 47 261 q 64 361 60 343 q 74 400 68 379 q 115 520 89 461 q 183 628 142 579 q 286 707 225 678 q 431 736 347 736 q 568 704 522 736 q 638 626 614 672 l 651 692 q 664 714 654 706 q 688 722 674 722 l 711 722 q 732 714 725 722 q 736 692 739 706 l 596 31 q 583 8 593 17 q 560 0 574 0 l 536 0 q 515 8 522 0 q 511 31 508 17 l 525 96 q 431 17 482 49 q 288 -14 379 -14 m 288 67 q 425 104 367 67 q 520 198 483 142 q 571 311 557 254 q 583 365 576 332 q 594 419 590 399 q 596 529 606 475 q 547 619 586 583 q 431 656 508 656 q 302 619 356 656 q 214 525 249 583 q 160 400 179 467 q 150 361 154 379 q 143 322 146 343 q 138 197 133 256 q 178 103 143 139 q 288 67 213 67 m 551 871 q 531 879 538 871 q 526 901 525 888 l 539 954 q 551 977 542 968 q 575 986 561 986 l 628 986 q 649 977 642 986 q 654 954 657 968 l 642 901 q 628 879 639 888 q 604 871 618 871 l 551 871 m 339 871 q 319 879 325 871 q 314 901 313 888 l 326 954 q 339 977 329 968 q 363 986 349 986 l 415 986 q 437 977 429 986 q 442 954 444 968 l 429 901 q 416 879 426 888 q 392 871 406 871 l 339 871 z "},"à":{"ha":790,"x_min":47,"x_max":739,"o":"m 288 -14 q 157 15 207 -14 q 82 93 107 44 q 52 201 57 142 q 57 322 47 261 q 64 361 60 343 q 74 400 68 379 q 115 520 89 461 q 183 628 142 579 q 286 707 225 678 q 431 736 347 736 q 568 704 522 736 q 638 626 614 672 l 651 692 q 664 714 654 706 q 688 722 674 722 l 711 722 q 732 714 725 722 q 736 692 739 706 l 596 31 q 583 8 593 17 q 560 0 574 0 l 536 0 q 515 8 522 0 q 511 31 508 17 l 525 96 q 431 17 482 49 q 288 -14 379 -14 m 288 67 q 425 104 367 67 q 520 198 483 142 q 571 311 557 254 q 583 365 576 332 q 594 419 590 399 q 596 529 606 475 q 547 619 586 583 q 431 656 508 656 q 302 619 356 656 q 214 525 249 583 q 160 400 179 467 q 150 361 154 379 q 143 322 146 343 q 138 197 133 256 q 178 103 143 139 q 288 67 213 67 m 472 826 q 450 828 458 826 q 432 840 442 831 l 311 960 q 304 982 301 969 q 333 1007 310 1007 l 393 1007 q 422 1001 414 1007 q 439 982 431 996 l 508 869 q 513 847 515 858 q 486 826 507 826 l 472 826 z "},"ā":{"ha":790,"x_min":47,"x_max":739,"o":"m 288 -14 q 157 15 207 -14 q 82 93 107 44 q 52 201 57 142 q 57 322 47 261 q 64 361 60 343 q 74 400 68 379 q 115 520 89 461 q 183 628 142 579 q 286 707 225 678 q 431 736 347 736 q 568 704 522 736 q 638 626 614 672 l 651 692 q 664 714 654 706 q 688 722 674 722 l 711 722 q 732 714 725 722 q 736 692 739 706 l 596 31 q 583 8 593 17 q 560 0 574 0 l 536 0 q 515 8 522 0 q 511 31 508 17 l 525 96 q 431 17 482 49 q 288 -14 379 -14 m 288 67 q 425 104 367 67 q 520 198 483 142 q 571 311 557 254 q 583 365 576 332 q 594 419 590 399 q 596 529 606 475 q 547 619 586 583 q 431 656 508 656 q 302 619 356 656 q 214 525 249 583 q 160 400 179 467 q 150 361 154 379 q 143 322 146 343 q 138 197 133 256 q 178 103 143 139 q 288 67 213 67 m 333 864 q 313 872 319 864 q 308 894 307 881 l 313 914 q 326 936 315 928 q 350 944 336 944 l 626 944 q 647 936 640 944 q 650 914 653 928 l 646 894 q 634 872 644 881 q 610 864 624 864 l 333 864 z "},"ą":{"ha":789,"x_min":49,"x_max":739,"o":"m 493 -306 q 406 -268 440 -306 q 371 -171 371 -231 q 390 -81 371 -125 q 453 3 410 -37 q 567 76 496 43 l 556 0 l 533 0 q 517 6 525 0 q 511 26 508 11 l 525 96 q 431 17 482 49 q 288 -14 379 -14 q 154 17 204 -14 q 80 97 104 47 q 52 205 56 146 q 57 322 49 264 q 64 361 60 343 q 74 400 68 379 q 115 520 89 461 q 183 628 142 579 q 286 707 225 678 q 431 736 347 736 q 568 704 522 736 q 638 626 614 672 l 651 692 q 664 714 654 706 q 688 722 674 722 l 711 722 q 732 714 725 722 q 736 692 739 706 l 596 25 q 590 6 594 15 q 575 -8 585 -4 l 568 -11 q 490 -67 525 -29 q 456 -162 456 -104 q 472 -211 456 -196 q 517 -226 489 -226 l 524 -226 q 544 -235 538 -226 q 547 -257 550 -243 l 543 -275 q 530 -297 540 -289 q 506 -306 519 -306 l 493 -306 m 288 67 q 425 104 367 67 q 520 198 483 142 q 571 311 557 254 q 583 365 576 332 q 594 419 590 399 q 600 497 603 456 q 580 574 597 538 q 526 633 563 610 q 431 656 490 656 q 302 619 356 656 q 214 525 249 583 q 160 400 179 467 q 150 361 154 379 q 143 322 146 343 q 137 231 138 276 q 149 149 136 186 q 195 89 163 111 q 288 67 228 67 z "},"å":{"ha":790,"x_min":47,"x_max":739,"o":"m 288 -14 q 157 15 207 -14 q 82 93 107 44 q 52 201 57 142 q 57 322 47 261 q 64 361 60 343 q 74 400 68 379 q 115 520 89 461 q 183 628 142 579 q 286 707 225 678 q 431 736 347 736 q 568 704 522 736 q 638 626 614 672 l 651 692 q 664 714 654 706 q 688 722 674 722 l 711 722 q 732 714 725 722 q 736 692 739 706 l 596 31 q 583 8 593 17 q 560 0 574 0 l 536 0 q 515 8 522 0 q 511 31 508 17 l 525 96 q 431 17 482 49 q 288 -14 379 -14 m 288 67 q 425 104 367 67 q 520 198 483 142 q 571 311 557 254 q 583 365 576 332 q 594 419 590 399 q 596 529 606 475 q 547 619 586 583 q 431 656 508 656 q 302 619 356 656 q 214 525 249 583 q 160 400 179 467 q 150 361 154 379 q 143 322 146 343 q 138 197 133 256 q 178 103 143 139 q 288 67 213 67 m 465 819 q 391 849 419 819 q 372 924 363 879 q 419 999 383 969 q 501 1028 456 1028 q 576 999 547 1028 q 594 924 606 969 q 548 848 585 876 q 465 819 511 819 m 469 882 q 506 894 490 882 q 525 924 521 906 q 522 953 529 942 q 496 965 515 965 q 460 953 475 965 q 442 924 446 942 q 445 894 438 906 q 469 882 453 882 z "},"ã":{"ha":790,"x_min":47,"x_max":739,"o":"m 288 -14 q 157 15 207 -14 q 82 93 107 44 q 52 201 57 142 q 57 322 47 261 q 64 361 60 343 q 74 400 68 379 q 115 520 89 461 q 183 628 142 579 q 286 707 225 678 q 431 736 347 736 q 568 704 522 736 q 638 626 614 672 l 651 692 q 664 714 654 706 q 688 722 674 722 l 711 722 q 732 714 725 722 q 736 692 739 706 l 596 31 q 583 8 593 17 q 560 0 574 0 l 536 0 q 515 8 522 0 q 511 31 508 17 l 525 96 q 431 17 482 49 q 288 -14 379 -14 m 288 67 q 425 104 367 67 q 520 198 483 142 q 571 311 557 254 q 583 365 576 332 q 594 419 590 399 q 596 529 606 475 q 547 619 586 583 q 431 656 508 656 q 302 619 356 656 q 214 525 249 583 q 160 400 179 467 q 150 361 154 379 q 143 322 146 343 q 138 197 133 256 q 178 103 143 139 q 288 67 213 67 m 535 819 q 485 831 503 819 q 452 855 467 843 q 418 867 438 867 q 392 857 403 867 q 372 837 382 847 q 347 826 363 826 l 319 826 q 305 833 310 826 q 301 849 300 840 q 315 886 304 868 q 341 919 325 904 q 377 942 357 933 q 418 950 397 950 q 469 938 451 950 q 501 915 488 926 q 535 903 515 903 q 561 913 551 903 q 580 934 571 924 q 604 944 589 944 l 632 944 q 647 938 643 944 q 650 922 651 931 q 637 884 647 903 q 610 851 626 865 q 575 828 594 836 q 535 819 556 819 z "},"æ":{"ha":1224,"x_min":21,"x_max":1182,"o":"m 238 -14 q 114 14 164 -14 q 42 88 64 42 q 33 193 21 135 q 142 347 53 288 q 357 422 231 406 l 583 453 l 592 497 q 572 613 607 571 q 438 656 536 656 q 347 642 386 656 q 281 606 307 628 q 242 561 254 585 q 224 538 233 544 q 203 532 215 532 l 183 532 q 164 541 171 532 q 158 563 157 550 q 183 611 163 582 q 241 669 204 640 q 331 717 278 697 q 454 736 385 736 q 610 701 560 736 q 675 614 661 665 q 789 702 722 668 q 943 736 856 736 q 1069 713 1021 736 q 1142 650 1117 689 q 1174 564 1167 611 q 1178 468 1182 517 q 1165 378 1174 419 l 1161 357 q 1147 335 1158 343 q 1122 326 1136 326 l 642 326 l 639 313 q 644 168 622 222 q 708 90 665 114 q 799 67 751 67 q 910 88 853 67 q 1011 157 968 110 q 1035 178 1026 174 q 1058 182 1043 182 l 1075 182 q 1094 174 1088 182 q 1099 154 1101 167 q 1072 111 1094 139 q 1007 55 1049 83 q 909 6 965 26 q 782 -14 853 -14 q 627 29 681 -14 q 554 139 574 72 q 419 24 499 63 q 238 -14 340 -14 m 268 67 q 391 94 332 67 q 494 180 450 122 q 556 325 538 238 l 565 372 l 381 347 q 197 294 264 332 q 119 200 131 257 q 130 125 110 154 q 188 81 150 96 q 268 67 225 67 m 658 404 l 1086 404 l 1088 410 q 1092 536 1103 481 q 1040 624 1081 592 q 926 656 1000 656 q 820 629 874 656 q 724 549 767 603 q 660 410 681 494 l 658 404 z "},"ǽ":{"ha":1224,"x_min":21,"x_max":1182,"o":"m 238 -14 q 114 14 164 -14 q 42 88 64 42 q 33 193 21 135 q 142 347 53 288 q 357 422 231 406 l 583 453 l 592 497 q 572 613 607 571 q 438 656 536 656 q 347 642 386 656 q 281 606 307 628 q 242 561 254 585 q 224 538 233 544 q 203 532 215 532 l 183 532 q 164 541 171 532 q 158 563 157 550 q 183 611 163 582 q 241 669 204 640 q 331 717 278 697 q 454 736 385 736 q 610 701 560 736 q 675 614 661 665 q 789 702 722 668 q 943 736 856 736 q 1069 713 1021 736 q 1142 650 1117 689 q 1174 564 1167 611 q 1178 468 1182 517 q 1165 378 1174 419 l 1161 357 q 1147 335 1158 343 q 1122 326 1136 326 l 642 326 l 639 313 q 644 168 622 222 q 708 90 665 114 q 799 67 751 67 q 910 88 853 67 q 1011 157 968 110 q 1035 178 1026 174 q 1058 182 1043 182 l 1075 182 q 1094 174 1088 182 q 1099 154 1101 167 q 1072 111 1094 139 q 1007 55 1049 83 q 909 6 965 26 q 782 -14 853 -14 q 627 29 681 -14 q 554 139 574 72 q 419 24 499 63 q 238 -14 340 -14 m 268 67 q 391 94 332 67 q 494 180 450 122 q 556 325 538 238 l 565 372 l 381 347 q 197 294 264 332 q 119 200 131 257 q 130 125 110 154 q 188 81 150 96 q 268 67 225 67 m 658 404 l 1086 404 l 1088 410 q 1092 536 1103 481 q 1040 624 1081 592 q 926 656 1000 656 q 820 629 874 656 q 724 549 767 603 q 660 410 681 494 l 658 404 m 686 826 q 669 849 664 826 q 681 867 672 858 l 801 982 q 827 1001 817 996 q 858 1007 838 1007 l 915 1007 q 936 986 936 1007 q 925 964 936 971 l 747 840 q 724 828 733 831 q 701 826 715 826 l 686 826 z "},"b":{"ha":806,"x_min":31,"x_max":738,"o":"m 346 -14 q 208 17 260 -14 q 132 96 156 49 l 118 31 q 105 8 115 17 q 81 0 94 0 l 57 0 q 37 8 43 0 q 33 31 31 17 l 229 956 q 242 978 232 969 q 267 986 253 986 l 290 986 q 310 978 304 986 q 314 956 317 969 l 244 626 q 345 704 289 672 q 488 736 401 736 q 621 708 569 736 q 699 632 672 679 q 731 526 725 585 q 728 407 738 468 q 719 361 725 386 q 708 315 714 336 q 644 159 689 235 q 527 35 600 83 q 346 -14 454 -14 m 346 67 q 480 103 425 67 q 570 198 535 139 q 625 322 606 257 q 635 361 632 343 q 642 400 639 379 q 647 525 653 467 q 605 619 640 583 q 488 656 569 656 q 351 619 411 656 q 252 529 290 583 q 200 419 214 475 q 188 365 194 399 q 178 311 181 332 q 178 198 168 254 q 227 104 188 142 q 346 67 267 67 z "},"c":{"ha":743,"x_min":38,"x_max":699,"o":"m 303 -14 q 151 24 213 -14 q 63 135 89 63 q 56 306 38 207 q 67 361 60 326 q 79 417 74 396 q 207 651 115 565 q 446 736 299 736 q 572 715 522 736 q 651 660 622 694 q 689 585 679 625 q 694 508 699 546 q 685 486 693 494 q 665 478 678 478 l 639 478 q 617 484 625 478 q 611 507 610 490 q 569 621 614 586 q 446 656 524 656 q 273 598 351 656 q 163 410 194 540 q 151 361 157 389 q 142 313 146 333 q 164 124 119 182 q 303 67 208 67 q 441 98 376 67 q 546 208 506 129 q 563 232 556 226 q 583 238 569 238 l 608 238 q 627 229 621 238 q 629 207 633 221 q 593 131 618 169 q 528 59 568 92 q 433 6 489 26 q 303 -14 376 -14 z "},"ć":{"ha":743,"x_min":38,"x_max":699,"o":"m 303 -14 q 151 24 213 -14 q 63 135 89 63 q 56 306 38 207 q 67 361 60 326 q 79 417 74 396 q 207 651 115 565 q 446 736 299 736 q 572 715 522 736 q 651 660 622 694 q 689 585 679 625 q 694 508 699 546 q 685 486 693 494 q 665 478 678 478 l 639 478 q 617 484 625 478 q 611 507 610 490 q 569 621 614 586 q 446 656 524 656 q 273 598 351 656 q 163 410 194 540 q 151 361 157 389 q 142 313 146 333 q 164 124 119 182 q 303 67 208 67 q 441 98 376 67 q 546 208 506 129 q 563 232 556 226 q 583 238 569 238 l 608 238 q 627 229 621 238 q 629 207 633 221 q 593 131 618 169 q 528 59 568 92 q 433 6 489 26 q 303 -14 376 -14 m 433 826 q 417 849 411 826 q 428 867 419 858 l 549 982 q 574 1001 564 996 q 606 1007 585 1007 l 663 1007 q 683 986 683 1007 q 672 964 683 971 l 494 840 q 472 828 481 831 q 449 826 463 826 l 433 826 z "},"č":{"ha":743,"x_min":38,"x_max":699,"o":"m 303 -14 q 151 24 213 -14 q 63 135 89 63 q 56 306 38 207 q 67 361 60 326 q 79 417 74 396 q 207 651 115 565 q 446 736 299 736 q 572 715 522 736 q 651 660 622 694 q 689 585 679 625 q 694 508 699 546 q 685 486 693 494 q 665 478 678 478 l 639 478 q 617 484 625 478 q 611 507 610 490 q 569 621 614 586 q 446 656 524 656 q 273 598 351 656 q 163 410 194 540 q 151 361 157 389 q 142 313 146 333 q 164 124 119 182 q 303 67 208 67 q 441 98 376 67 q 546 208 506 129 q 563 232 556 226 q 583 238 569 238 l 608 238 q 627 229 621 238 q 629 207 633 221 q 593 131 618 169 q 528 59 568 92 q 433 6 489 26 q 303 -14 376 -14 m 464 826 q 444 829 454 826 q 424 846 435 832 l 322 971 q 315 988 315 981 q 322 1001 315 996 q 338 1007 329 1007 l 365 1007 q 379 1004 374 1007 q 389 997 385 1001 l 479 914 l 606 997 q 618 1004 613 1001 q 632 1007 624 1007 l 679 1007 q 694 993 694 1007 q 682 972 694 983 l 526 846 q 499 829 508 832 q 478 826 489 826 l 464 826 z "},"ç":{"ha":743,"x_min":40,"x_max":699,"o":"m 251 -306 q 181 -292 213 -306 q 138 -262 150 -279 q 139 -235 125 -244 l 161 -217 q 181 -214 174 -207 q 204 -231 189 -221 q 251 -242 219 -242 q 296 -227 275 -242 q 322 -186 317 -212 q 313 -147 328 -161 q 274 -133 297 -133 q 235 -140 251 -133 q 208 -148 219 -146 q 189 -139 197 -150 l 172 -115 q 174 -95 167 -107 q 188 -74 182 -83 l 231 -7 q 118 49 163 7 q 57 156 74 90 q 56 306 40 221 q 67 361 60 326 q 79 417 74 396 q 207 651 115 565 q 446 736 299 736 q 572 715 522 736 q 651 660 622 694 q 689 585 679 625 q 694 508 699 546 q 685 486 693 494 q 665 478 678 478 l 639 478 q 617 484 625 478 q 611 507 610 490 q 569 621 614 586 q 446 656 524 656 q 273 598 351 656 q 163 410 194 540 q 151 361 157 389 q 142 313 146 333 q 164 124 119 182 q 303 67 208 67 q 441 98 376 67 q 546 208 506 129 q 563 232 556 226 q 583 238 569 238 l 608 238 q 627 229 621 238 q 629 207 633 221 q 593 131 618 169 q 528 59 568 92 q 433 6 489 26 q 304 -14 378 -14 l 257 -79 q 282 -72 267 -74 q 313 -69 297 -69 q 378 -103 353 -69 q 392 -187 403 -137 q 347 -272 382 -237 q 251 -306 313 -306 z "},"ĉ":{"ha":743,"x_min":38,"x_max":699,"o":"m 303 -14 q 151 24 213 -14 q 63 135 89 63 q 56 306 38 207 q 67 361 60 326 q 79 417 74 396 q 207 651 115 565 q 446 736 299 736 q 572 715 522 736 q 651 660 622 694 q 689 585 679 625 q 694 508 699 546 q 685 486 693 494 q 665 478 678 478 l 639 478 q 617 484 625 478 q 611 507 610 490 q 569 621 614 586 q 446 656 524 656 q 273 598 351 656 q 163 410 194 540 q 151 361 157 389 q 142 313 146 333 q 164 124 119 182 q 303 67 208 67 q 441 98 376 67 q 546 208 506 129 q 563 232 556 226 q 583 238 569 238 l 608 238 q 627 229 621 238 q 629 207 633 221 q 593 131 618 169 q 528 59 568 92 q 433 6 489 26 q 303 -14 376 -14 m 290 826 q 275 840 275 826 q 288 861 275 851 l 443 988 q 472 1005 461 1003 q 492 1007 482 1007 l 506 1007 q 526 1005 517 1007 q 546 988 535 1003 l 647 863 q 653 842 656 853 q 632 826 650 826 l 604 826 q 590 829 596 826 q 581 836 585 832 l 490 919 l 364 836 q 351 829 357 832 q 338 826 346 826 l 290 826 z "},"ċ":{"ha":743,"x_min":38,"x_max":699,"o":"m 303 -14 q 151 24 213 -14 q 63 135 89 63 q 56 306 38 207 q 67 361 60 326 q 79 417 74 396 q 207 651 115 565 q 446 736 299 736 q 572 715 522 736 q 651 660 622 694 q 689 585 679 625 q 694 508 699 546 q 685 486 693 494 q 665 478 678 478 l 639 478 q 617 484 625 478 q 611 507 610 490 q 569 621 614 586 q 446 656 524 656 q 273 598 351 656 q 163 410 194 540 q 151 361 157 389 q 142 313 146 333 q 164 124 119 182 q 303 67 208 67 q 441 98 376 67 q 546 208 506 129 q 563 232 556 226 q 583 238 569 238 l 608 238 q 627 229 621 238 q 629 207 633 221 q 593 131 618 169 q 528 59 568 92 q 433 6 489 26 q 303 -14 376 -14 m 436 857 q 415 865 422 857 q 411 888 408 874 l 426 954 q 439 977 429 968 q 463 986 449 986 l 529 986 q 551 977 543 986 q 556 954 558 968 l 540 888 q 527 865 538 874 q 503 857 517 857 l 436 857 z "},"d":{"ha":804,"x_min":46,"x_max":808,"o":"m 293 -14 q 161 15 213 -14 q 84 93 110 44 q 52 201 58 142 q 56 322 46 261 q 63 361 58 343 q 72 400 67 379 q 115 520 88 461 q 186 628 143 579 q 291 707 229 678 q 436 736 353 736 q 577 704 528 736 q 650 626 626 672 l 721 956 q 733 978 724 969 q 757 986 743 986 l 781 986 q 801 978 794 986 q 806 956 808 969 l 608 31 q 596 8 606 17 q 572 0 586 0 l 549 0 q 528 8 535 0 q 524 31 521 17 l 538 96 q 440 17 494 49 q 293 -14 385 -14 m 293 67 q 433 104 372 67 q 531 198 493 142 q 583 311 569 254 q 596 365 589 332 q 607 419 603 399 q 606 529 618 475 q 554 619 594 583 q 436 656 514 656 q 306 619 361 656 q 214 525 250 583 q 158 400 178 467 q 149 361 153 379 q 142 322 144 343 q 139 197 132 256 q 182 103 146 139 q 293 67 218 67 z "},"ð":{"ha":764,"x_min":54,"x_max":794,"o":"m 308 -14 q 150 30 208 -14 q 73 150 92 74 q 75 321 54 226 q 145 492 94 417 q 273 610 196 567 q 450 653 350 653 q 549 639 506 653 q 622 599 592 625 q 603 690 617 649 q 568 768 589 732 l 424 717 q 404 713 411 713 q 388 719 393 713 q 383 738 382 725 l 389 764 q 400 786 392 779 q 426 799 408 793 l 521 832 q 485 872 504 851 q 444 914 465 893 q 429 932 432 925 q 428 944 426 939 q 440 965 431 957 q 461 972 449 972 l 489 972 q 516 967 506 972 q 535 954 526 963 q 576 910 557 932 q 611 864 594 888 l 751 914 q 771 918 763 918 q 788 912 782 918 q 792 893 794 906 l 786 867 q 775 845 783 851 q 749 832 767 839 l 654 799 q 710 611 699 722 q 685 322 721 500 q 683 320 683 321 q 683 318 683 319 q 613 148 664 224 q 485 29 563 72 q 308 -14 408 -14 m 325 67 q 453 100 397 67 q 546 190 508 133 q 599 317 583 247 q 599 319 599 318 q 600 322 599 321 q 603 449 615 392 q 549 539 590 506 q 433 572 507 572 q 305 539 361 572 q 213 449 249 506 q 161 322 176 392 q 159 317 160 319 q 158 314 158 315 q 158 190 146 246 q 213 100 171 133 q 325 67 254 67 z "},"ď":{"ha":804,"x_min":46,"x_max":1022,"o":"m 293 -14 q 161 15 213 -14 q 84 93 110 44 q 52 201 58 142 q 56 322 46 261 q 63 361 58 343 q 72 400 67 379 q 115 520 88 461 q 186 628 143 579 q 291 707 229 678 q 436 736 353 736 q 577 704 528 736 q 650 626 626 672 l 721 956 q 733 978 724 969 q 757 986 743 986 l 781 986 q 801 978 794 986 q 806 956 808 969 l 608 31 q 596 8 606 17 q 572 0 586 0 l 549 0 q 528 8 535 0 q 524 31 521 17 l 538 96 q 440 17 494 49 q 293 -14 385 -14 m 293 67 q 433 104 372 67 q 531 198 493 142 q 583 311 569 254 q 596 365 589 332 q 607 419 603 399 q 606 529 618 475 q 554 619 594 583 q 436 656 514 656 q 306 619 361 656 q 214 525 250 583 q 158 400 178 467 q 149 361 153 379 q 142 322 144 343 q 139 197 132 256 q 182 103 146 139 q 293 67 218 67 m 856 764 q 841 772 844 764 q 842 793 838 781 l 899 949 q 915 976 906 965 q 942 986 925 986 l 1004 986 q 1018 979 1014 986 q 1019 964 1022 972 q 1015 952 1018 958 q 1008 939 1013 946 l 922 793 q 904 772 913 779 q 881 764 896 764 l 856 764 z "},"đ":{"ha":806,"x_min":49,"x_max":899,"o":"m 283 -14 q 141 19 192 -14 q 69 103 90 51 q 49 214 49 156 q 58 322 49 272 q 65 361 61 343 q 75 400 69 379 q 112 508 88 450 q 179 619 136 567 q 287 703 222 671 q 443 736 351 736 q 579 704 529 736 q 653 626 629 672 l 689 793 l 608 793 q 588 801 594 793 q 585 824 582 810 l 589 843 q 601 865 592 857 q 625 874 611 874 l 706 874 l 724 956 q 736 978 726 969 q 760 986 746 986 l 783 986 q 804 978 797 986 q 808 956 811 969 l 790 874 l 871 874 q 892 865 885 874 q 896 843 899 857 l 892 824 q 878 801 889 810 q 854 793 868 793 l 774 793 l 611 31 q 599 8 608 17 q 575 0 589 0 l 551 0 q 531 8 538 0 q 526 31 524 17 l 540 96 q 433 17 497 49 q 283 -14 369 -14 m 310 67 q 446 104 389 67 q 538 198 503 142 q 586 311 572 254 q 599 365 592 332 q 610 419 606 399 q 608 529 621 475 q 553 619 594 583 q 435 656 513 656 q 299 619 354 656 q 210 525 243 583 q 160 400 176 467 q 150 361 154 379 q 143 322 146 343 q 140 197 131 256 q 189 103 149 139 q 310 67 229 67 z "},"e":{"ha":756,"x_min":61,"x_max":722,"o":"m 310 -14 q 163 26 221 -14 q 83 139 106 67 q 74 306 61 211 q 84 361 76 326 q 97 417 92 396 q 178 583 125 511 q 305 696 231 656 q 469 736 379 736 q 625 693 567 736 q 703 569 683 650 q 700 378 722 489 l 696 357 q 682 335 693 343 q 657 326 671 326 l 163 326 q 162 321 163 326 q 160 313 161 315 q 164 194 150 250 q 219 102 178 138 q 326 67 260 67 q 430 85 386 67 q 501 124 474 103 q 539 157 529 146 q 563 178 556 175 q 586 182 571 182 l 608 182 q 628 174 621 182 q 632 154 635 167 q 601 106 626 135 q 531 50 575 78 q 431 4 488 22 q 310 -14 375 -14 m 179 404 l 621 404 l 622 410 q 625 535 640 479 q 566 623 610 590 q 453 656 522 656 q 328 623 383 656 q 236 535 274 590 q 181 410 199 479 l 179 404 z "},"é":{"ha":756,"x_min":61,"x_max":722,"o":"m 310 -14 q 163 26 221 -14 q 83 139 106 67 q 74 306 61 211 q 84 361 76 326 q 97 417 92 396 q 178 583 125 511 q 305 696 231 656 q 469 736 379 736 q 625 693 567 736 q 703 569 683 650 q 700 378 722 489 l 696 357 q 682 335 693 343 q 657 326 671 326 l 163 326 q 162 321 163 326 q 160 313 161 315 q 164 194 150 250 q 219 102 178 138 q 326 67 260 67 q 430 85 386 67 q 501 124 474 103 q 539 157 529 146 q 563 178 556 175 q 586 182 571 182 l 608 182 q 628 174 621 182 q 632 154 635 167 q 601 106 626 135 q 531 50 575 78 q 431 4 488 22 q 310 -14 375 -14 m 179 404 l 621 404 l 622 410 q 625 535 640 479 q 566 623 610 590 q 453 656 522 656 q 328 623 383 656 q 236 535 274 590 q 181 410 199 479 l 179 404 m 453 826 q 436 849 431 826 q 447 867 439 858 l 568 982 q 594 1001 583 996 q 625 1007 604 1007 l 682 1007 q 703 986 703 1007 q 692 964 703 971 l 514 840 q 491 828 500 831 q 468 826 482 826 l 453 826 z "},"ĕ":{"ha":756,"x_min":61,"x_max":722,"o":"m 310 -14 q 163 26 221 -14 q 83 139 106 67 q 74 306 61 211 q 84 361 76 326 q 97 417 92 396 q 178 583 125 511 q 305 696 231 656 q 469 736 379 736 q 625 693 567 736 q 703 569 683 650 q 700 378 722 489 l 696 357 q 682 335 693 343 q 657 326 671 326 l 163 326 q 162 321 163 326 q 160 313 161 315 q 164 194 150 250 q 219 102 178 138 q 326 67 260 67 q 430 85 386 67 q 501 124 474 103 q 539 157 529 146 q 563 178 556 175 q 586 182 571 182 l 608 182 q 628 174 621 182 q 632 154 635 167 q 601 106 626 135 q 531 50 575 78 q 431 4 488 22 q 310 -14 375 -14 m 179 404 l 621 404 l 622 410 q 625 535 640 479 q 566 623 610 590 q 453 656 522 656 q 328 623 383 656 q 236 535 274 590 q 181 410 199 479 l 179 404 m 497 819 q 409 843 440 819 q 369 904 378 867 q 369 981 361 942 q 381 999 372 992 q 401 1007 389 1007 l 422 1007 q 440 999 435 1007 q 443 981 446 992 q 444 918 436 947 q 500 889 453 889 q 570 918 549 889 q 601 981 592 947 q 613 999 604 992 q 633 1007 621 1007 l 654 1007 q 672 999 667 1007 q 675 981 678 992 q 649 904 667 942 q 594 843 631 867 q 497 819 558 819 z "},"ě":{"ha":756,"x_min":61,"x_max":722,"o":"m 310 -14 q 163 26 221 -14 q 83 139 106 67 q 74 306 61 211 q 84 361 76 326 q 97 417 92 396 q 178 583 125 511 q 305 696 231 656 q 469 736 379 736 q 625 693 567 736 q 703 569 683 650 q 700 378 722 489 l 696 357 q 682 335 693 343 q 657 326 671 326 l 163 326 q 162 321 163 326 q 160 313 161 315 q 164 194 150 250 q 219 102 178 138 q 326 67 260 67 q 430 85 386 67 q 501 124 474 103 q 539 157 529 146 q 563 178 556 175 q 586 182 571 182 l 608 182 q 628 174 621 182 q 632 154 635 167 q 601 106 626 135 q 531 50 575 78 q 431 4 488 22 q 310 -14 375 -14 m 179 404 l 621 404 l 622 410 q 625 535 640 479 q 566 623 610 590 q 453 656 522 656 q 328 623 383 656 q 236 535 274 590 q 181 410 199 479 l 179 404 m 483 826 q 464 829 474 826 q 443 846 454 832 l 342 971 q 335 988 335 981 q 342 1001 335 996 q 357 1007 349 1007 l 385 1007 q 399 1004 393 1007 q 408 997 404 1001 l 499 914 l 625 997 q 638 1004 632 1001 q 651 1007 643 1007 l 699 1007 q 714 993 714 1007 q 701 972 714 983 l 546 846 q 518 829 528 832 q 497 826 508 826 l 483 826 z "},"ê":{"ha":756,"x_min":61,"x_max":722,"o":"m 310 -14 q 163 26 221 -14 q 83 139 106 67 q 74 306 61 211 q 84 361 76 326 q 97 417 92 396 q 178 583 125 511 q 305 696 231 656 q 469 736 379 736 q 625 693 567 736 q 703 569 683 650 q 700 378 722 489 l 696 357 q 682 335 693 343 q 657 326 671 326 l 163 326 q 162 321 163 326 q 160 313 161 315 q 164 194 150 250 q 219 102 178 138 q 326 67 260 67 q 430 85 386 67 q 501 124 474 103 q 539 157 529 146 q 563 178 556 175 q 586 182 571 182 l 608 182 q 628 174 621 182 q 632 154 635 167 q 601 106 626 135 q 531 50 575 78 q 431 4 488 22 q 310 -14 375 -14 m 179 404 l 621 404 l 622 410 q 625 535 640 479 q 566 623 610 590 q 453 656 522 656 q 328 623 383 656 q 236 535 274 590 q 181 410 199 479 l 179 404 m 310 826 q 294 840 294 826 q 307 861 294 851 l 463 988 q 491 1005 481 1003 q 511 1007 501 1007 l 525 1007 q 545 1005 536 1007 q 565 988 554 1003 l 667 863 q 672 842 675 853 q 651 826 669 826 l 624 826 q 610 829 615 826 q 600 836 604 832 l 510 919 l 383 836 q 371 829 376 832 q 357 826 365 826 l 310 826 z "},"ë":{"ha":756,"x_min":61,"x_max":722,"o":"m 310 -14 q 163 26 221 -14 q 83 139 106 67 q 74 306 61 211 q 84 361 76 326 q 97 417 92 396 q 178 583 125 511 q 305 696 231 656 q 469 736 379 736 q 625 693 567 736 q 703 569 683 650 q 700 378 722 489 l 696 357 q 682 335 693 343 q 657 326 671 326 l 163 326 q 162 321 163 326 q 160 313 161 315 q 164 194 150 250 q 219 102 178 138 q 326 67 260 67 q 430 85 386 67 q 501 124 474 103 q 539 157 529 146 q 563 178 556 175 q 586 182 571 182 l 608 182 q 628 174 621 182 q 632 154 635 167 q 601 106 626 135 q 531 50 575 78 q 431 4 488 22 q 310 -14 375 -14 m 179 404 l 621 404 l 622 410 q 625 535 640 479 q 566 623 610 590 q 453 656 522 656 q 328 623 383 656 q 236 535 274 590 q 181 410 199 479 l 179 404 m 576 871 q 556 879 563 871 q 551 901 550 888 l 564 954 q 576 977 567 968 q 600 986 586 986 l 653 986 q 674 977 667 986 q 679 954 682 968 l 667 901 q 653 879 664 888 q 629 871 643 871 l 576 871 m 364 871 q 344 879 350 871 q 339 901 338 888 l 351 954 q 364 977 354 968 q 388 986 374 986 l 440 986 q 462 977 454 986 q 467 954 469 968 l 454 901 q 441 879 451 888 q 417 871 431 871 l 364 871 z "},"ė":{"ha":756,"x_min":61,"x_max":722,"o":"m 310 -14 q 163 26 221 -14 q 83 139 106 67 q 74 306 61 211 q 84 361 76 326 q 97 417 92 396 q 178 583 125 511 q 305 696 231 656 q 469 736 379 736 q 625 693 567 736 q 703 569 683 650 q 700 378 722 489 l 696 357 q 682 335 693 343 q 657 326 671 326 l 163 326 q 162 321 163 326 q 160 313 161 315 q 164 194 150 250 q 219 102 178 138 q 326 67 260 67 q 430 85 386 67 q 501 124 474 103 q 539 157 529 146 q 563 178 556 175 q 586 182 571 182 l 608 182 q 628 174 621 182 q 632 154 635 167 q 601 106 626 135 q 531 50 575 78 q 431 4 488 22 q 310 -14 375 -14 m 179 404 l 621 404 l 622 410 q 625 535 640 479 q 566 623 610 590 q 453 656 522 656 q 328 623 383 656 q 236 535 274 590 q 181 410 199 479 l 179 404 m 456 857 q 435 865 442 857 q 431 888 428 874 l 446 954 q 458 977 449 968 q 482 986 468 986 l 549 986 q 570 977 563 986 q 575 954 578 968 l 560 888 q 547 865 557 874 q 522 857 536 857 l 456 857 z "},"è":{"ha":756,"x_min":61,"x_max":722,"o":"m 310 -14 q 163 26 221 -14 q 83 139 106 67 q 74 306 61 211 q 84 361 76 326 q 97 417 92 396 q 178 583 125 511 q 305 696 231 656 q 469 736 379 736 q 625 693 567 736 q 703 569 683 650 q 700 378 722 489 l 696 357 q 682 335 693 343 q 657 326 671 326 l 163 326 q 162 321 163 326 q 160 313 161 315 q 164 194 150 250 q 219 102 178 138 q 326 67 260 67 q 430 85 386 67 q 501 124 474 103 q 539 157 529 146 q 563 178 556 175 q 586 182 571 182 l 608 182 q 628 174 621 182 q 632 154 635 167 q 601 106 626 135 q 531 50 575 78 q 431 4 488 22 q 310 -14 375 -14 m 179 404 l 621 404 l 622 410 q 625 535 640 479 q 566 623 610 590 q 453 656 522 656 q 328 623 383 656 q 236 535 274 590 q 181 410 199 479 l 179 404 m 497 826 q 475 828 483 826 q 457 840 467 831 l 336 960 q 329 982 326 969 q 358 1007 335 1007 l 418 1007 q 447 1001 439 1007 q 464 982 456 996 l 533 869 q 538 847 540 858 q 511 826 532 826 l 497 826 z "},"ē":{"ha":756,"x_min":61,"x_max":722,"o":"m 310 -14 q 163 26 221 -14 q 83 139 106 67 q 74 306 61 211 q 84 361 76 326 q 97 417 92 396 q 178 583 125 511 q 305 696 231 656 q 469 736 379 736 q 625 693 567 736 q 703 569 683 650 q 700 378 722 489 l 696 357 q 682 335 693 343 q 657 326 671 326 l 163 326 q 162 321 163 326 q 160 313 161 315 q 164 194 150 250 q 219 102 178 138 q 326 67 260 67 q 430 85 386 67 q 501 124 474 103 q 539 157 529 146 q 563 178 556 175 q 586 182 571 182 l 608 182 q 628 174 621 182 q 632 154 635 167 q 601 106 626 135 q 531 50 575 78 q 431 4 488 22 q 310 -14 375 -14 m 179 404 l 621 404 l 622 410 q 625 535 640 479 q 566 623 610 590 q 453 656 522 656 q 328 623 383 656 q 236 535 274 590 q 181 410 199 479 l 179 404 m 358 864 q 338 872 344 864 q 333 894 332 881 l 338 914 q 351 936 340 928 q 375 944 361 944 l 651 944 q 672 936 665 944 q 675 914 678 928 l 671 894 q 659 872 669 881 q 635 864 649 864 l 358 864 z "},"ę":{"ha":760,"x_min":58,"x_max":725,"o":"m 319 -306 q 228 -282 264 -306 q 178 -215 192 -258 q 178 -114 165 -172 q 197 -53 185 -82 q 228 -3 210 -25 q 97 106 136 24 q 75 306 58 188 q 85 361 78 326 q 99 417 93 396 q 179 583 126 511 q 306 696 232 656 q 471 736 381 736 q 627 693 568 736 q 706 569 686 650 q 701 378 725 489 l 697 357 q 683 335 694 343 q 658 326 672 326 l 164 326 l 161 313 q 165 194 151 250 q 220 102 179 138 q 328 67 261 67 q 431 85 388 67 q 503 124 475 103 q 540 157 531 146 q 565 178 557 175 q 588 182 572 182 l 610 182 q 629 174 622 182 q 633 154 636 167 q 593 98 628 131 q 502 35 558 65 q 375 -8 446 6 q 302 -41 332 -17 q 261 -114 272 -65 q 274 -197 250 -167 q 343 -226 297 -226 l 364 -226 q 384 -235 378 -226 q 388 -257 390 -243 l 383 -275 q 370 -297 381 -289 q 346 -306 360 -306 l 319 -306 m 179 404 l 621 404 l 622 410 q 622 535 638 479 q 565 623 607 590 q 453 656 522 656 q 327 623 383 656 q 233 535 271 590 q 181 410 196 479 l 179 404 z "},"f":{"ha":494,"x_min":76,"x_max":617,"o":"m 121 0 q 100 8 107 0 q 96 31 93 17 l 226 642 l 103 642 q 83 650 89 642 q 78 672 76 658 l 82 692 q 95 714 85 706 q 119 722 106 722 l 243 722 l 260 801 q 305 915 274 864 q 387 997 336 967 q 510 1028 438 1028 l 590 1028 q 610 1019 604 1028 q 614 997 617 1011 l 610 978 q 597 956 607 964 q 572 947 586 947 l 510 947 q 398 908 438 947 q 343 794 358 868 l 328 722 l 511 722 q 531 714 525 722 q 535 692 538 706 l 531 672 q 519 650 529 658 q 494 642 508 642 l 311 642 l 181 31 q 168 8 178 17 q 144 0 158 0 l 121 0 z "},"g":{"ha":804,"x_min":-25,"x_max":751,"o":"m 231 -306 q 93 -282 144 -306 q 15 -224 42 -258 q -18 -156 -11 -190 q -21 -101 -25 -122 q -10 -78 -18 -87 q 10 -69 -3 -69 l 36 -69 q 54 -74 47 -69 q 63 -99 61 -79 q 76 -151 64 -121 q 123 -203 88 -181 q 231 -225 158 -225 q 355 -206 296 -225 q 457 -137 414 -186 q 518 0 500 -87 l 538 96 q 438 17 494 49 q 294 -14 381 -14 q 159 15 211 -14 q 81 93 107 44 q 51 201 56 142 q 56 322 46 261 q 63 361 58 343 q 72 400 67 379 q 117 520 89 461 q 188 628 144 579 q 292 707 231 678 q 436 736 353 736 q 574 704 522 736 q 650 626 626 672 l 664 690 q 677 713 667 704 q 701 722 688 722 l 724 722 q 744 713 738 722 q 749 690 751 704 l 606 14 q 569 -110 592 -53 q 505 -212 546 -168 q 397 -281 464 -257 q 231 -306 331 -306 m 294 67 q 432 104 372 67 q 531 198 492 142 q 583 311 569 254 q 595 361 589 332 q 604 411 601 390 q 604 524 614 468 q 555 618 594 581 q 436 656 515 656 q 305 619 361 656 q 212 525 249 583 q 157 400 175 467 q 147 361 151 379 q 140 322 143 343 q 135 197 129 256 q 178 103 142 139 q 294 67 215 67 z "},"ğ":{"ha":804,"x_min":-25,"x_max":751,"o":"m 231 -306 q 93 -282 144 -306 q 15 -224 42 -258 q -18 -156 -11 -190 q -21 -101 -25 -122 q -10 -78 -18 -87 q 10 -69 -3 -69 l 36 -69 q 54 -74 47 -69 q 63 -99 61 -79 q 76 -151 64 -121 q 123 -203 88 -181 q 231 -225 158 -225 q 355 -206 296 -225 q 457 -137 414 -186 q 518 0 500 -87 l 538 96 q 438 17 494 49 q 294 -14 381 -14 q 159 15 211 -14 q 81 93 107 44 q 51 201 56 142 q 56 322 46 261 q 63 361 58 343 q 72 400 67 379 q 117 520 89 461 q 188 628 144 579 q 292 707 231 678 q 436 736 353 736 q 574 704 522 736 q 650 626 626 672 l 664 690 q 677 713 667 704 q 701 722 688 722 l 724 722 q 744 713 738 722 q 749 690 751 704 l 606 14 q 569 -110 592 -53 q 505 -212 546 -168 q 397 -281 464 -257 q 231 -306 331 -306 m 294 67 q 432 104 372 67 q 531 198 492 142 q 583 311 569 254 q 595 361 589 332 q 604 411 601 390 q 604 524 614 468 q 555 618 594 581 q 436 656 515 656 q 305 619 361 656 q 212 525 249 583 q 157 400 175 467 q 147 361 151 379 q 140 322 143 343 q 135 197 129 256 q 178 103 142 139 q 294 67 215 67 m 488 819 q 399 843 431 819 q 360 904 368 867 q 360 981 351 942 q 371 999 363 992 q 392 1007 379 1007 l 413 1007 q 431 999 425 1007 q 433 981 436 992 q 435 918 426 947 q 490 889 443 889 q 560 918 539 889 q 592 981 582 947 q 603 999 594 992 q 624 1007 611 1007 l 644 1007 q 663 999 657 1007 q 665 981 668 992 q 639 904 657 942 q 585 843 621 867 q 488 819 549 819 z "},"ĝ":{"ha":804,"x_min":-25,"x_max":751,"o":"m 231 -306 q 93 -282 144 -306 q 15 -224 42 -258 q -18 -156 -11 -190 q -21 -101 -25 -122 q -10 -78 -18 -87 q 10 -69 -3 -69 l 36 -69 q 54 -74 47 -69 q 63 -99 61 -79 q 76 -151 64 -121 q 123 -203 88 -181 q 231 -225 158 -225 q 355 -206 296 -225 q 457 -137 414 -186 q 518 0 500 -87 l 538 96 q 438 17 494 49 q 294 -14 381 -14 q 159 15 211 -14 q 81 93 107 44 q 51 201 56 142 q 56 322 46 261 q 63 361 58 343 q 72 400 67 379 q 117 520 89 461 q 188 628 144 579 q 292 707 231 678 q 436 736 353 736 q 574 704 522 736 q 650 626 626 672 l 664 690 q 677 713 667 704 q 701 722 688 722 l 724 722 q 744 713 738 722 q 749 690 751 704 l 606 14 q 569 -110 592 -53 q 505 -212 546 -168 q 397 -281 464 -257 q 231 -306 331 -306 m 294 67 q 432 104 372 67 q 531 198 492 142 q 583 311 569 254 q 595 361 589 332 q 604 411 601 390 q 604 524 614 468 q 555 618 594 581 q 436 656 515 656 q 305 619 361 656 q 212 525 249 583 q 157 400 175 467 q 147 361 151 379 q 140 322 143 343 q 135 197 129 256 q 178 103 142 139 q 294 67 215 67 m 300 826 q 285 840 285 826 q 297 861 285 851 l 453 988 q 481 1005 471 1003 q 501 1007 492 1007 l 515 1007 q 535 1005 526 1007 q 556 988 544 1003 l 657 863 q 663 842 665 853 q 642 826 660 826 l 614 826 q 600 829 606 826 q 590 836 594 832 l 500 919 l 374 836 q 361 829 367 832 q 347 826 356 826 l 300 826 z "},"ģ":{"ha":804,"x_min":-25,"x_max":751,"o":"m 231 -306 q 93 -282 144 -306 q 15 -224 42 -258 q -18 -156 -11 -190 q -21 -101 -25 -122 q -10 -78 -18 -87 q 10 -69 -3 -69 l 36 -69 q 54 -74 47 -69 q 63 -99 61 -79 q 76 -151 64 -121 q 123 -203 88 -181 q 231 -225 158 -225 q 355 -206 296 -225 q 457 -137 414 -186 q 518 0 500 -87 l 538 96 q 438 17 494 49 q 294 -14 381 -14 q 159 15 211 -14 q 81 93 107 44 q 51 201 56 142 q 56 322 46 261 q 63 361 58 343 q 72 400 67 379 q 117 520 89 461 q 188 628 144 579 q 292 707 231 678 q 436 736 353 736 q 574 704 522 736 q 650 626 626 672 l 664 690 q 677 713 667 704 q 701 722 688 722 l 724 722 q 744 713 738 722 q 749 690 751 704 l 606 14 q 569 -110 592 -53 q 505 -212 546 -168 q 397 -281 464 -257 q 231 -306 331 -306 m 294 67 q 432 104 372 67 q 531 198 492 142 q 583 311 569 254 q 595 361 589 332 q 604 411 601 390 q 604 524 614 468 q 555 618 594 581 q 436 656 515 656 q 305 619 361 656 q 212 525 249 583 q 157 400 175 467 q 147 361 151 379 q 140 322 143 343 q 135 197 129 256 q 178 103 142 139 q 294 67 215 67 m 429 826 q 416 833 419 826 q 414 849 413 840 q 418 860 415 854 q 425 874 421 867 l 511 1019 q 529 1041 521 1033 q 553 1049 538 1049 l 578 1049 q 592 1040 589 1049 q 592 1019 596 1032 l 535 864 q 519 837 529 847 q 492 826 508 826 l 429 826 z "},"ġ":{"ha":804,"x_min":-25,"x_max":751,"o":"m 231 -306 q 93 -282 144 -306 q 15 -224 42 -258 q -18 -156 -11 -190 q -21 -101 -25 -122 q -10 -78 -18 -87 q 10 -69 -3 -69 l 36 -69 q 54 -74 47 -69 q 63 -99 61 -79 q 76 -151 64 -121 q 123 -203 88 -181 q 231 -225 158 -225 q 355 -206 296 -225 q 457 -137 414 -186 q 518 0 500 -87 l 538 96 q 438 17 494 49 q 294 -14 381 -14 q 159 15 211 -14 q 81 93 107 44 q 51 201 56 142 q 56 322 46 261 q 63 361 58 343 q 72 400 67 379 q 117 520 89 461 q 188 628 144 579 q 292 707 231 678 q 436 736 353 736 q 574 704 522 736 q 650 626 626 672 l 664 690 q 677 713 667 704 q 701 722 688 722 l 724 722 q 744 713 738 722 q 749 690 751 704 l 606 14 q 569 -110 592 -53 q 505 -212 546 -168 q 397 -281 464 -257 q 231 -306 331 -306 m 294 67 q 432 104 372 67 q 531 198 492 142 q 583 311 569 254 q 595 361 589 332 q 604 411 601 390 q 604 524 614 468 q 555 618 594 581 q 436 656 515 656 q 305 619 361 656 q 212 525 249 583 q 157 400 175 467 q 147 361 151 379 q 140 322 143 343 q 135 197 129 256 q 178 103 142 139 q 294 67 215 67 m 446 857 q 425 865 432 857 q 421 888 418 874 l 436 954 q 449 977 439 968 q 472 986 458 986 l 539 986 q 560 977 553 986 q 565 954 568 968 l 550 888 q 537 865 547 874 q 513 857 526 857 l 446 857 z "},"h":{"ha":821,"x_min":29,"x_max":738,"o":"m 57 0 q 36 8 43 0 q 32 31 29 17 l 229 956 q 242 978 232 969 q 265 986 251 986 l 289 986 q 310 978 303 986 q 314 956 317 969 l 243 626 q 342 706 286 675 q 485 736 399 736 q 641 695 583 736 q 718 584 699 654 q 718 425 738 514 l 633 31 q 621 8 631 17 q 597 0 611 0 l 574 0 q 553 8 560 0 q 549 31 546 17 l 631 418 q 622 592 654 529 q 485 656 589 656 q 360 627 419 656 q 258 546 300 599 q 199 418 215 493 l 117 31 q 104 8 114 17 q 81 0 94 0 l 57 0 z "},"ħ":{"ha":821,"x_min":29,"x_max":738,"o":"m 114 793 q 94 801 100 793 q 90 824 88 810 l 94 843 q 107 865 97 857 q 131 874 117 874 l 376 874 q 397 865 390 874 q 401 843 404 857 l 397 824 q 384 801 394 810 q 360 793 374 793 l 114 793 m 57 0 q 36 8 43 0 q 32 31 29 17 l 229 956 q 242 978 232 969 q 265 986 251 986 l 289 986 q 310 978 303 986 q 314 956 317 969 l 243 626 q 342 706 286 675 q 485 736 399 736 q 641 695 583 736 q 718 584 699 654 q 718 425 738 514 l 633 31 q 621 8 631 17 q 597 0 611 0 l 574 0 q 553 8 560 0 q 549 31 546 17 l 631 418 q 622 592 654 529 q 485 656 589 656 q 360 627 419 656 q 258 546 300 599 q 199 418 215 493 l 117 31 q 104 8 114 17 q 81 0 94 0 l 57 0 z "},"ĥ":{"ha":821,"x_min":29,"x_max":738,"o":"m 57 0 q 36 8 43 0 q 32 31 29 17 l 229 956 q 242 978 232 969 q 265 986 251 986 l 289 986 q 310 978 303 986 q 314 956 317 969 l 243 626 q 342 706 286 675 q 485 736 399 736 q 641 695 583 736 q 718 584 699 654 q 718 425 738 514 l 633 31 q 621 8 631 17 q 597 0 611 0 l 574 0 q 553 8 560 0 q 549 31 546 17 l 631 418 q 622 592 654 529 q 485 656 589 656 q 360 627 419 656 q 258 546 300 599 q 199 418 215 493 l 117 31 q 104 8 114 17 q 81 0 94 0 l 57 0 m 329 1042 q 314 1056 314 1042 q 326 1076 314 1067 l 482 1203 q 510 1220 500 1218 q 531 1222 521 1222 l 544 1222 q 565 1220 556 1222 q 585 1203 574 1218 l 686 1078 q 692 1057 694 1068 q 671 1042 689 1042 l 643 1042 q 629 1044 635 1042 q 619 1051 624 1047 l 529 1135 l 403 1051 q 390 1044 396 1047 q 376 1042 385 1042 l 329 1042 z "},"i":{"ha":311,"x_min":29,"x_max":332,"o":"m 57 0 q 36 8 43 0 q 32 31 29 17 l 172 692 q 185 714 175 706 q 210 722 196 722 l 233 722 q 253 714 247 722 q 257 692 260 706 l 117 31 q 104 8 114 17 q 81 0 94 0 l 57 0 m 226 871 q 206 879 213 871 q 201 901 200 888 l 214 954 q 226 977 217 968 q 250 986 236 986 l 303 986 q 324 977 317 986 q 329 954 332 968 l 317 901 q 304 879 315 888 q 279 871 293 871 l 226 871 z "},"ı":{"ha":311,"x_min":29,"x_max":260,"o":"m 57 0 q 36 8 43 0 q 32 31 29 17 l 172 692 q 185 714 175 706 q 210 722 196 722 l 233 722 q 253 714 247 722 q 257 692 260 706 l 117 31 q 104 8 114 17 q 81 0 94 0 l 57 0 z "},"í":{"ha":311,"x_min":29,"x_max":458,"o":"m 57 0 q 36 8 43 0 q 32 31 29 17 l 172 692 q 185 714 175 706 q 210 722 196 722 l 233 722 q 253 714 247 722 q 257 692 260 706 l 117 31 q 104 8 114 17 q 81 0 94 0 l 57 0 m 208 826 q 192 849 186 826 q 203 867 194 858 l 324 982 q 349 1001 339 996 q 381 1007 360 1007 l 438 1007 q 458 986 458 1007 q 447 964 458 971 l 269 840 q 247 828 256 831 q 224 826 238 826 l 208 826 z "},"ĭ":{"ha":311,"x_min":29,"x_max":433,"o":"m 57 0 q 36 8 43 0 q 32 31 29 17 l 172 692 q 185 714 175 706 q 210 722 196 722 l 233 722 q 253 714 247 722 q 257 692 260 706 l 117 31 q 104 8 114 17 q 81 0 94 0 l 57 0 m 253 819 q 165 843 196 819 q 125 904 133 867 q 125 981 117 942 q 136 999 128 992 q 157 1007 144 1007 l 178 1007 q 196 999 190 1007 q 199 981 201 992 q 200 918 192 947 q 256 889 208 889 q 326 918 304 889 q 357 981 347 947 q 368 999 360 992 q 389 1007 376 1007 l 410 1007 q 428 999 422 1007 q 431 981 433 992 q 404 904 422 942 q 350 843 386 867 q 253 819 314 819 z "},"î":{"ha":311,"x_min":29,"x_max":431,"o":"m 57 0 q 36 8 43 0 q 32 31 29 17 l 172 692 q 185 714 175 706 q 210 722 196 722 l 233 722 q 253 714 247 722 q 257 692 260 706 l 117 31 q 104 8 114 17 q 81 0 94 0 l 57 0 m 65 826 q 50 840 50 826 q 63 861 50 851 l 218 988 q 247 1005 236 1003 q 267 1007 257 1007 l 281 1007 q 301 1005 292 1007 q 321 988 310 1003 l 422 863 q 428 842 431 853 q 407 826 425 826 l 379 826 q 365 829 371 826 q 356 836 360 832 l 265 919 l 139 836 q 126 829 132 832 q 113 826 121 826 l 65 826 z "},"ï":{"ha":311,"x_min":29,"x_max":438,"o":"m 57 0 q 36 8 43 0 q 32 31 29 17 l 172 692 q 185 714 175 706 q 210 722 196 722 l 233 722 q 253 714 247 722 q 257 692 260 706 l 117 31 q 104 8 114 17 q 81 0 94 0 l 57 0 m 332 871 q 312 879 318 871 q 307 901 306 888 l 319 954 q 332 977 322 968 q 356 986 342 986 l 408 986 q 430 977 422 986 q 435 954 438 968 l 422 901 q 409 879 419 888 q 385 871 399 871 l 332 871 m 119 871 q 99 879 106 871 q 94 901 93 888 l 107 954 q 119 977 110 968 q 143 986 129 986 l 196 986 q 217 977 210 986 q 222 954 225 968 l 210 901 q 197 879 207 888 q 172 871 186 871 l 119 871 z "},"ì":{"ha":311,"x_min":29,"x_max":296,"o":"m 57 0 q 36 8 43 0 q 32 31 29 17 l 172 692 q 185 714 175 706 q 210 722 196 722 l 233 722 q 253 714 247 722 q 257 692 260 706 l 117 31 q 104 8 114 17 q 81 0 94 0 l 57 0 m 253 826 q 231 828 239 826 q 213 840 222 831 l 92 960 q 85 982 82 969 q 114 1007 90 1007 l 174 1007 q 203 1001 194 1007 q 219 982 211 996 l 289 869 q 293 847 296 858 q 267 826 288 826 l 253 826 z "},"ĳ":{"ha":636,"x_min":29,"x_max":656,"o":"m 57 0 q 36 8 43 0 q 32 31 29 17 l 172 692 q 185 714 175 706 q 210 722 196 722 l 233 722 q 253 714 247 722 q 257 692 260 706 l 117 31 q 104 8 114 17 q 81 0 94 0 l 57 0 m 226 871 q 206 879 213 871 q 201 901 200 888 l 214 954 q 226 977 217 968 q 250 986 236 986 l 303 986 q 324 977 317 986 q 329 954 332 968 l 317 901 q 304 879 315 888 q 279 871 293 871 l 226 871 m 164 -264 q 144 -256 150 -264 q 140 -233 138 -247 l 144 -214 q 157 -192 147 -200 q 181 -183 167 -183 l 193 -183 q 295 -139 261 -183 q 343 -31 329 -94 l 496 692 q 509 714 499 706 q 533 722 519 722 l 557 722 q 577 714 571 722 q 581 692 583 706 l 428 -31 q 388 -149 414 -96 q 311 -233 361 -201 q 176 -264 261 -264 l 164 -264 m 550 871 q 530 879 536 871 q 525 901 524 888 l 538 954 q 550 977 540 968 q 574 986 560 986 l 626 986 q 648 977 640 986 q 653 954 656 968 l 640 901 q 628 879 639 888 q 603 871 617 871 l 550 871 z "},"ī":{"ha":311,"x_min":29,"x_max":433,"o":"m 57 0 q 36 8 43 0 q 32 31 29 17 l 172 692 q 185 714 175 706 q 210 722 196 722 l 233 722 q 253 714 247 722 q 257 692 260 706 l 117 31 q 104 8 114 17 q 81 0 94 0 l 57 0 m 114 864 q 94 872 100 864 q 89 894 88 881 l 93 914 q 106 936 96 928 q 131 944 117 944 l 407 944 q 427 936 421 944 q 431 914 433 928 l 426 894 q 415 872 425 881 q 390 864 404 864 l 114 864 z "},"į":{"ha":339,"x_min":-110,"x_max":379,"o":"m 50 -306 q -72 -254 -35 -306 q -92 -114 -110 -203 q -26 13 -75 -36 q 90 75 22 63 l 92 81 q 92 85 92 83 q 93 89 92 88 l 221 692 q 234 714 224 706 q 258 722 244 722 l 282 722 q 302 714 296 722 q 306 692 308 706 l 165 31 q 152 8 163 17 q 128 0 142 0 l 121 0 q 39 -31 75 0 q -8 -114 3 -61 q 4 -197 -19 -167 q 74 -226 28 -226 l 94 -226 q 115 -235 108 -226 q 118 -257 121 -243 l 114 -275 q 101 -297 111 -289 q 76 -306 90 -306 l 50 -306 m 274 871 q 253 879 260 871 q 250 901 247 888 l 261 954 q 274 977 264 968 q 299 986 285 986 l 351 986 q 372 977 365 986 q 376 954 379 968 l 365 901 q 351 879 363 888 q 326 871 340 871 l 274 871 z "},"ĩ":{"ha":311,"x_min":29,"x_max":432,"o":"m 57 0 q 36 8 43 0 q 32 31 29 17 l 172 692 q 185 714 175 706 q 210 722 196 722 l 233 722 q 253 714 247 722 q 257 692 260 706 l 117 31 q 104 8 114 17 q 81 0 94 0 l 57 0 m 315 819 q 265 831 283 819 q 233 855 247 843 q 199 867 218 867 q 173 857 183 867 q 153 837 163 847 q 128 826 143 826 l 100 826 q 85 833 90 826 q 82 849 81 840 q 95 886 85 868 q 122 919 106 904 q 158 942 138 933 q 199 950 178 950 q 250 938 232 950 q 282 915 268 926 q 315 903 296 903 q 342 913 332 903 q 360 934 351 924 q 385 944 369 944 l 413 944 q 428 938 424 944 q 431 922 432 931 q 417 884 428 903 q 391 851 407 865 q 356 828 375 836 q 315 819 336 819 z "},"j":{"ha":325,"x_min":-174,"x_max":344,"o":"m -147 -264 q -167 -256 -161 -264 q -171 -233 -174 -247 l -167 -214 q -154 -192 -164 -200 q -131 -183 -144 -183 l -118 -183 q -16 -139 -50 -183 q 32 -31 18 -94 l 185 692 q 198 714 188 706 q 222 722 208 722 l 246 722 q 266 714 260 722 q 269 692 272 706 l 117 -31 q 76 -149 103 -96 q 0 -233 50 -201 q -135 -264 -50 -264 l -147 -264 m 239 871 q 219 879 225 871 q 214 901 213 888 l 226 954 q 239 977 229 968 q 263 986 249 986 l 315 986 q 337 977 329 986 q 342 954 344 968 l 329 901 q 317 879 328 888 q 292 871 306 871 l 239 871 z "},"ȷ":{"ha":368,"x_min":-131,"x_max":315,"o":"m -106 -264 q -124 -256 -118 -264 q -128 -233 -131 -247 l -124 -214 q -112 -192 -121 -200 q -89 -183 -103 -183 l -83 -183 q 4 -162 -26 -183 q 51 -107 35 -142 q 75 -31 67 -72 l 218 642 l 101 642 q 81 650 88 642 q 76 672 74 658 l 81 692 q 94 714 83 706 q 118 722 104 722 l 289 722 q 309 714 303 722 q 313 692 315 706 l 160 -31 q 117 -149 146 -96 q 37 -233 89 -201 q -100 -264 -15 -264 l -106 -264 z "},"ĵ":{"ha":368,"x_min":-131,"x_max":415,"o":"m -106 -264 q -124 -256 -118 -264 q -128 -233 -131 -247 l -124 -214 q -112 -192 -121 -200 q -89 -183 -103 -183 l -83 -183 q 4 -162 -26 -183 q 51 -107 35 -142 q 75 -31 67 -72 l 218 642 l 101 642 q 81 650 88 642 q 76 672 74 658 l 81 692 q 94 714 83 706 q 118 722 104 722 l 289 722 q 309 714 303 722 q 313 692 315 706 l 160 -31 q 117 -149 146 -96 q 37 -233 89 -201 q -100 -264 -15 -264 l -106 -264 m 50 826 q 35 840 35 826 q 47 861 35 851 l 203 988 q 231 1005 221 1003 q 251 1007 242 1007 l 265 1007 q 285 1005 276 1007 q 306 988 294 1003 l 407 863 q 413 842 415 853 q 392 826 410 826 l 364 826 q 350 829 356 826 q 340 836 344 832 l 250 919 l 124 836 q 111 829 117 832 q 97 826 106 826 l 50 826 z "},"k":{"ha":674,"x_min":29,"x_max":683,"o":"m 57 0 q 36 8 43 0 q 32 31 29 17 l 229 956 q 242 978 232 969 q 265 986 251 986 l 289 986 q 310 978 303 986 q 314 956 317 969 l 211 474 l 557 699 q 590 718 581 714 q 621 722 600 722 l 658 722 q 681 703 678 722 q 657 667 683 683 l 249 400 l 568 47 q 574 17 582 33 q 549 0 567 0 l 526 0 q 496 8 504 0 q 481 21 488 15 l 185 344 l 117 31 q 104 8 114 17 q 81 0 94 0 l 57 0 z "},"ķ":{"ha":674,"x_min":29,"x_max":683,"o":"m 57 0 q 36 8 43 0 q 32 31 29 17 l 229 956 q 242 978 232 969 q 265 986 251 986 l 289 986 q 310 978 303 986 q 314 956 317 969 l 211 474 l 557 699 q 590 718 581 714 q 621 722 600 722 l 658 722 q 681 703 678 722 q 657 667 683 683 l 249 400 l 568 47 q 574 17 582 33 q 549 0 567 0 l 526 0 q 496 8 504 0 q 481 21 488 15 l 185 344 l 117 31 q 104 8 114 17 q 81 0 94 0 l 57 0 m 135 -292 q 120 -283 124 -292 q 121 -262 117 -275 l 178 -107 q 194 -80 185 -90 q 221 -69 204 -69 l 283 -69 q 297 -76 293 -69 q 299 -92 301 -83 q 294 -103 297 -97 q 288 -117 292 -110 l 201 -262 q 183 -284 192 -276 q 160 -292 175 -292 l 135 -292 z "},"ĸ":{"ha":678,"x_min":49,"x_max":708,"o":"m 75 0 q 55 8 61 0 q 51 31 49 17 l 192 692 q 205 714 194 706 q 229 722 215 722 l 253 722 q 273 714 267 722 q 276 692 279 706 l 221 428 l 599 699 q 632 718 622 714 q 663 722 642 722 l 685 722 q 703 715 697 722 q 706 694 708 707 q 699 681 704 689 q 682 667 694 674 l 256 361 l 581 56 q 591 41 588 49 q 592 28 594 33 q 581 8 590 15 q 558 0 571 0 l 533 0 q 504 5 513 0 q 481 24 496 10 l 192 294 l 136 31 q 123 8 133 17 q 99 0 113 0 l 75 0 z "},"l":{"ha":313,"x_min":29,"x_max":317,"o":"m 57 0 q 36 8 43 0 q 32 31 29 17 l 229 956 q 242 978 232 969 q 265 986 251 986 l 289 986 q 310 978 303 986 q 314 956 317 969 l 117 31 q 104 8 114 17 q 81 0 94 0 l 57 0 z "},"ĺ":{"ha":313,"x_min":29,"x_max":521,"o":"m 57 0 q 36 8 43 0 q 32 31 29 17 l 229 956 q 242 978 232 969 q 265 986 251 986 l 289 986 q 310 978 303 986 q 314 956 317 969 l 117 31 q 104 8 114 17 q 81 0 94 0 l 57 0 m 271 1042 q 254 1064 249 1042 q 265 1082 257 1074 l 386 1197 q 412 1217 401 1211 q 443 1222 422 1222 l 500 1222 q 521 1201 521 1222 q 510 1179 521 1186 l 332 1056 q 309 1044 318 1046 q 286 1042 300 1042 l 271 1042 z "},"ľ":{"ha":326,"x_min":29,"x_max":531,"o":"m 57 0 q 36 8 43 0 q 32 31 29 17 l 229 956 q 242 978 232 969 q 265 986 251 986 l 289 986 q 310 978 303 986 q 314 956 317 969 l 117 31 q 104 8 114 17 q 81 0 94 0 l 57 0 m 364 764 q 349 772 353 764 q 350 793 346 781 l 407 949 q 424 976 414 965 q 450 986 433 986 l 513 986 q 526 979 522 986 q 528 964 531 972 q 524 952 526 958 q 517 939 521 946 l 431 793 q 413 772 421 779 q 389 764 404 764 l 364 764 z "},"ļ":{"ha":313,"x_min":-75,"x_max":317,"o":"m 57 0 q 36 8 43 0 q 32 31 29 17 l 229 956 q 242 978 232 969 q 265 986 251 986 l 289 986 q 310 978 303 986 q 314 956 317 969 l 117 31 q 104 8 114 17 q 81 0 94 0 l 57 0 m -57 -292 q -72 -283 -68 -292 q -71 -262 -75 -275 l -14 -107 q 3 -80 -7 -90 q 29 -69 13 -69 l 92 -69 q 106 -76 101 -69 q 107 -92 110 -83 q 103 -103 106 -97 q 96 -117 100 -110 l 10 -262 q -8 -284 0 -276 q -32 -292 -17 -292 l -57 -292 z "},"ŀ":{"ha":424,"x_min":29,"x_max":460,"o":"m 57 0 q 36 8 43 0 q 32 31 29 17 l 229 956 q 242 978 232 969 q 265 986 251 986 l 289 986 q 310 978 303 986 q 314 956 317 969 l 117 31 q 104 8 114 17 q 81 0 94 0 l 57 0 m 338 435 q 317 443 324 435 q 313 465 310 451 l 328 532 q 340 555 331 546 q 364 564 350 564 l 431 564 q 452 555 444 564 q 457 532 460 546 l 442 465 q 428 443 439 451 q 404 435 418 435 l 338 435 z "},"ł":{"ha":343,"x_min":57,"x_max":367,"o":"m 93 0 q 73 8 79 0 q 69 31 67 17 l 157 442 l 100 422 q 81 418 88 418 q 63 424 69 418 q 60 443 57 431 l 65 469 q 76 492 68 485 q 103 504 85 499 l 175 529 l 265 956 q 278 978 268 969 q 303 986 289 986 l 326 986 q 347 978 340 986 q 350 956 353 969 l 267 561 l 324 582 q 343 586 336 586 q 360 580 354 586 q 364 561 367 574 l 358 535 q 347 513 356 519 q 321 500 339 507 l 249 474 l 154 31 q 141 8 151 17 q 117 0 131 0 l 93 0 z "},"m":{"ha":1221,"x_min":29,"x_max":1140,"o":"m 57 0 q 36 8 43 0 q 32 31 29 17 l 172 692 q 185 714 175 706 q 210 722 196 722 l 233 722 q 253 714 247 722 q 257 692 260 706 l 247 643 q 306 694 276 674 q 370 725 335 714 q 451 736 406 736 q 585 703 529 736 q 660 606 642 669 q 767 701 704 665 q 910 736 829 736 q 1038 702 983 736 q 1117 601 1093 668 q 1119 435 1140 535 l 1033 31 q 1021 8 1031 17 q 997 0 1011 0 l 974 0 q 953 8 960 0 q 949 31 946 17 l 1032 421 q 1040 563 1051 513 q 992 635 1028 614 q 907 656 957 656 q 815 635 865 656 q 721 563 764 614 q 658 421 678 513 l 575 31 q 563 8 572 17 q 539 0 553 0 l 515 0 q 494 8 501 0 q 490 31 488 17 l 574 421 q 580 563 593 513 q 531 635 567 614 q 449 656 496 656 q 356 635 407 656 q 263 563 306 614 q 200 422 219 513 l 117 31 q 104 8 114 17 q 81 0 94 0 l 57 0 z "},"n":{"ha":819,"x_min":29,"x_max":736,"o":"m 57 0 q 36 8 43 0 q 32 31 29 17 l 172 692 q 185 714 175 706 q 210 722 196 722 l 233 722 q 253 714 247 722 q 257 692 260 706 l 243 626 q 347 706 286 675 q 488 736 408 736 q 649 695 593 736 q 721 584 706 654 q 717 425 736 514 l 632 31 q 619 8 629 17 q 596 0 610 0 l 572 0 q 551 8 558 0 q 547 31 544 17 l 629 418 q 628 596 654 536 q 488 656 601 656 q 300 592 378 656 q 199 418 222 529 l 117 31 q 104 8 114 17 q 81 0 94 0 l 57 0 z "},"ń":{"ha":819,"x_min":29,"x_max":736,"o":"m 57 0 q 36 8 43 0 q 32 31 29 17 l 172 692 q 185 714 175 706 q 210 722 196 722 l 233 722 q 253 714 247 722 q 257 692 260 706 l 243 626 q 347 706 286 675 q 488 736 408 736 q 649 695 593 736 q 721 584 706 654 q 717 425 736 514 l 632 31 q 619 8 629 17 q 596 0 610 0 l 572 0 q 551 8 558 0 q 547 31 544 17 l 629 418 q 628 596 654 536 q 488 656 601 656 q 300 592 378 656 q 199 418 222 529 l 117 31 q 104 8 114 17 q 81 0 94 0 l 57 0 m 464 826 q 447 849 442 826 q 458 867 450 858 l 579 982 q 605 1001 594 996 q 636 1007 615 1007 l 693 1007 q 714 986 714 1007 q 703 964 714 971 l 525 840 q 502 828 511 831 q 479 826 493 826 l 464 826 z "},"ŉ":{"ha":819,"x_min":29,"x_max":736,"o":"m 65 792 q 51 800 54 792 q 51 821 47 808 l 108 976 q 125 1003 115 993 q 151 1014 135 1014 l 214 1014 q 228 1007 224 1014 q 229 992 232 1000 q 225 980 228 986 q 218 967 222 974 l 132 821 q 114 799 122 807 q 90 792 106 792 l 65 792 m 57 0 q 36 8 43 0 q 32 31 29 17 l 172 692 q 185 714 175 706 q 210 722 196 722 l 233 722 q 253 714 247 722 q 257 692 260 706 l 243 626 q 347 706 286 675 q 488 736 408 736 q 649 695 593 736 q 721 584 706 654 q 717 425 736 514 l 632 31 q 619 8 629 17 q 596 0 610 0 l 572 0 q 551 8 558 0 q 547 31 544 17 l 629 418 q 628 596 654 536 q 488 656 601 656 q 300 592 378 656 q 199 418 222 529 l 117 31 q 104 8 114 17 q 81 0 94 0 l 57 0 z "},"ň":{"ha":819,"x_min":29,"x_max":736,"o":"m 57 0 q 36 8 43 0 q 32 31 29 17 l 172 692 q 185 714 175 706 q 210 722 196 722 l 233 722 q 253 714 247 722 q 257 692 260 706 l 243 626 q 347 706 286 675 q 488 736 408 736 q 649 695 593 736 q 721 584 706 654 q 717 425 736 514 l 632 31 q 619 8 629 17 q 596 0 610 0 l 572 0 q 551 8 558 0 q 547 31 544 17 l 629 418 q 628 596 654 536 q 488 656 601 656 q 300 592 378 656 q 199 418 222 529 l 117 31 q 104 8 114 17 q 81 0 94 0 l 57 0 m 494 826 q 475 829 485 826 q 454 846 465 832 l 353 971 q 346 988 346 981 q 353 1001 346 996 q 368 1007 360 1007 l 396 1007 q 410 1004 404 1007 q 419 997 415 1001 l 510 914 l 636 997 q 649 1004 643 1001 q 663 1007 654 1007 l 710 1007 q 725 993 725 1007 q 713 972 725 983 l 557 846 q 529 829 539 832 q 508 826 519 826 l 494 826 z "},"ņ":{"ha":819,"x_min":29,"x_max":736,"o":"m 57 0 q 36 8 43 0 q 32 31 29 17 l 172 692 q 185 714 175 706 q 210 722 196 722 l 233 722 q 253 714 247 722 q 257 692 260 706 l 243 626 q 347 706 286 675 q 488 736 408 736 q 649 695 593 736 q 721 584 706 654 q 717 425 736 514 l 632 31 q 619 8 629 17 q 596 0 610 0 l 572 0 q 551 8 558 0 q 547 31 544 17 l 629 418 q 628 596 654 536 q 488 656 601 656 q 300 592 378 656 q 199 418 222 529 l 117 31 q 104 8 114 17 q 81 0 94 0 l 57 0 m 203 -292 q 188 -283 192 -292 q 189 -262 185 -275 l 246 -107 q 263 -80 253 -90 q 289 -69 272 -69 l 351 -69 q 365 -76 361 -69 q 367 -92 369 -83 q 363 -103 365 -97 q 356 -117 360 -110 l 269 -262 q 251 -284 260 -276 q 228 -292 243 -292 l 203 -292 z "},"ñ":{"ha":819,"x_min":29,"x_max":736,"o":"m 57 0 q 36 8 43 0 q 32 31 29 17 l 172 692 q 185 714 175 706 q 210 722 196 722 l 233 722 q 253 714 247 722 q 257 692 260 706 l 243 626 q 347 706 286 675 q 488 736 408 736 q 649 695 593 736 q 721 584 706 654 q 717 425 736 514 l 632 31 q 619 8 629 17 q 596 0 610 0 l 572 0 q 551 8 558 0 q 547 31 544 17 l 629 418 q 628 596 654 536 q 488 656 601 656 q 300 592 378 656 q 199 418 222 529 l 117 31 q 104 8 114 17 q 81 0 94 0 l 57 0 m 571 819 q 521 831 539 819 q 488 855 503 843 q 454 867 474 867 q 428 857 439 867 q 408 837 418 847 q 383 826 399 826 l 356 826 q 341 833 346 826 q 338 849 336 840 q 351 886 340 868 q 377 919 361 904 q 413 942 393 933 q 454 950 433 950 q 506 938 488 950 q 538 915 524 926 q 571 903 551 903 q 597 913 588 903 q 616 934 607 924 q 640 944 625 944 l 668 944 q 683 938 679 944 q 686 922 688 931 q 673 884 683 903 q 647 851 663 865 q 611 828 631 836 q 571 819 592 819 z "},"ŋ":{"ha":819,"x_min":29,"x_max":736,"o":"m 344 -312 q 324 -304 331 -312 q 319 -282 317 -296 l 324 -262 q 337 -240 326 -249 q 361 -232 347 -232 l 367 -232 q 452 -211 421 -232 q 499 -156 483 -190 q 524 -79 515 -121 l 629 418 q 628 596 654 536 q 488 656 601 656 q 300 592 378 656 q 199 418 222 529 l 117 31 q 104 8 114 17 q 81 0 94 0 l 57 0 q 36 8 43 0 q 32 31 29 17 l 172 692 q 185 714 175 706 q 210 722 196 722 l 233 722 q 253 714 247 722 q 257 692 260 706 l 243 626 q 347 706 286 675 q 488 736 408 736 q 649 695 593 736 q 721 584 706 654 q 717 425 736 514 l 608 -79 q 571 -197 594 -144 q 497 -281 547 -250 q 350 -312 446 -312 l 344 -312 z "},"o":{"ha":772,"x_min":38,"x_max":713,"o":"m 303 -14 q 146 28 207 -14 q 61 142 85 69 q 54 303 38 214 q 65 361 57 324 q 79 419 74 399 q 149 581 101 510 q 272 694 197 653 q 446 736 346 736 q 606 694 546 736 q 690 581 667 653 q 696 419 713 510 q 684 361 692 399 q 671 303 676 324 q 601 142 649 214 q 478 28 553 69 q 303 -14 404 -14 m 303 67 q 480 129 401 67 q 588 310 558 192 q 599 361 593 331 q 610 413 606 392 q 588 594 631 532 q 446 656 544 656 q 270 594 349 656 q 163 413 192 532 q 150 361 157 392 q 140 310 143 331 q 161 129 119 192 q 303 67 203 67 z "},"ó":{"ha":772,"x_min":38,"x_max":713,"o":"m 303 -14 q 146 28 207 -14 q 61 142 85 69 q 54 303 38 214 q 65 361 57 324 q 79 419 74 399 q 149 581 101 510 q 272 694 197 653 q 446 736 346 736 q 606 694 546 736 q 690 581 667 653 q 696 419 713 510 q 684 361 692 399 q 671 303 676 324 q 601 142 649 214 q 478 28 553 69 q 303 -14 404 -14 m 303 67 q 480 129 401 67 q 588 310 558 192 q 599 361 593 331 q 610 413 606 392 q 588 594 631 532 q 446 656 544 656 q 270 594 349 656 q 163 413 192 532 q 150 361 157 392 q 140 310 143 331 q 161 129 119 192 q 303 67 203 67 m 440 826 q 424 849 418 826 q 435 867 426 858 l 556 982 q 581 1001 571 996 q 613 1007 592 1007 l 669 1007 q 690 986 690 1007 q 679 964 690 971 l 501 840 q 478 828 488 831 q 456 826 469 826 l 440 826 z "},"ŏ":{"ha":772,"x_min":38,"x_max":713,"o":"m 303 -14 q 146 28 207 -14 q 61 142 85 69 q 54 303 38 214 q 65 361 57 324 q 79 419 74 399 q 149 581 101 510 q 272 694 197 653 q 446 736 346 736 q 606 694 546 736 q 690 581 667 653 q 696 419 713 510 q 684 361 692 399 q 671 303 676 324 q 601 142 649 214 q 478 28 553 69 q 303 -14 404 -14 m 303 67 q 480 129 401 67 q 588 310 558 192 q 599 361 593 331 q 610 413 606 392 q 588 594 631 532 q 446 656 544 656 q 270 594 349 656 q 163 413 192 532 q 150 361 157 392 q 140 310 143 331 q 161 129 119 192 q 303 67 203 67 m 485 819 q 397 843 428 819 q 357 904 365 867 q 357 981 349 942 q 368 999 360 992 q 389 1007 376 1007 l 410 1007 q 428 999 422 1007 q 431 981 433 992 q 432 918 424 947 q 488 889 440 889 q 558 918 536 889 q 589 981 579 947 q 600 999 592 992 q 621 1007 608 1007 l 642 1007 q 660 999 654 1007 q 663 981 665 992 q 636 904 654 942 q 582 843 618 867 q 485 819 546 819 z "},"ô":{"ha":772,"x_min":38,"x_max":713,"o":"m 303 -14 q 146 28 207 -14 q 61 142 85 69 q 54 303 38 214 q 65 361 57 324 q 79 419 74 399 q 149 581 101 510 q 272 694 197 653 q 446 736 346 736 q 606 694 546 736 q 690 581 667 653 q 696 419 713 510 q 684 361 692 399 q 671 303 676 324 q 601 142 649 214 q 478 28 553 69 q 303 -14 404 -14 m 303 67 q 480 129 401 67 q 588 310 558 192 q 599 361 593 331 q 610 413 606 392 q 588 594 631 532 q 446 656 544 656 q 270 594 349 656 q 163 413 192 532 q 150 361 157 392 q 140 310 143 331 q 161 129 119 192 q 303 67 203 67 m 297 826 q 282 840 282 826 q 294 861 282 851 l 450 988 q 478 1005 468 1003 q 499 1007 489 1007 l 513 1007 q 533 1005 524 1007 q 553 988 542 1003 l 654 863 q 660 842 663 853 q 639 826 657 826 l 611 826 q 597 829 603 826 q 588 836 592 832 l 497 919 l 371 836 q 358 829 364 832 q 344 826 353 826 l 297 826 z "},"ö":{"ha":772,"x_min":38,"x_max":713,"o":"m 303 -14 q 146 28 207 -14 q 61 142 85 69 q 54 303 38 214 q 65 361 57 324 q 79 419 74 399 q 149 581 101 510 q 272 694 197 653 q 446 736 346 736 q 606 694 546 736 q 690 581 667 653 q 696 419 713 510 q 684 361 692 399 q 671 303 676 324 q 601 142 649 214 q 478 28 553 69 q 303 -14 404 -14 m 303 67 q 480 129 401 67 q 588 310 558 192 q 599 361 593 331 q 610 413 606 392 q 588 594 631 532 q 446 656 544 656 q 270 594 349 656 q 163 413 192 532 q 150 361 157 392 q 140 310 143 331 q 161 129 119 192 q 303 67 203 67 m 564 871 q 544 879 550 871 q 539 901 538 888 l 551 954 q 564 977 554 968 q 588 986 574 986 l 640 986 q 662 977 654 986 q 667 954 669 968 l 654 901 q 641 879 651 888 q 617 871 631 871 l 564 871 m 351 871 q 331 879 338 871 q 326 901 325 888 l 339 954 q 351 977 342 968 q 375 986 361 986 l 428 986 q 449 977 442 986 q 454 954 457 968 l 442 901 q 428 879 439 888 q 404 871 418 871 l 351 871 z "},"ò":{"ha":772,"x_min":38,"x_max":713,"o":"m 303 -14 q 146 28 207 -14 q 61 142 85 69 q 54 303 38 214 q 65 361 57 324 q 79 419 74 399 q 149 581 101 510 q 272 694 197 653 q 446 736 346 736 q 606 694 546 736 q 690 581 667 653 q 696 419 713 510 q 684 361 692 399 q 671 303 676 324 q 601 142 649 214 q 478 28 553 69 q 303 -14 404 -14 m 303 67 q 480 129 401 67 q 588 310 558 192 q 599 361 593 331 q 610 413 606 392 q 588 594 631 532 q 446 656 544 656 q 270 594 349 656 q 163 413 192 532 q 150 361 157 392 q 140 310 143 331 q 161 129 119 192 q 303 67 203 67 m 485 826 q 463 828 471 826 q 444 840 454 831 l 324 960 q 317 982 314 969 q 346 1007 322 1007 l 406 1007 q 435 1001 426 1007 q 451 982 443 996 l 521 869 q 525 847 528 858 q 499 826 519 826 l 485 826 z "},"ő":{"ha":772,"x_min":38,"x_max":743,"o":"m 303 -14 q 146 28 207 -14 q 61 142 85 69 q 54 303 38 214 q 65 361 57 324 q 79 419 74 399 q 149 581 101 510 q 272 694 197 653 q 446 736 346 736 q 606 694 546 736 q 690 581 667 653 q 696 419 713 510 q 684 361 692 399 q 671 303 676 324 q 601 142 649 214 q 478 28 553 69 q 303 -14 404 -14 m 303 67 q 480 129 401 67 q 588 310 558 192 q 599 361 593 331 q 610 413 606 392 q 588 594 631 532 q 446 656 544 656 q 270 594 349 656 q 163 413 192 532 q 150 361 157 392 q 140 310 143 331 q 161 129 119 192 q 303 67 203 67 m 547 826 q 528 842 528 826 q 530 851 528 846 q 535 860 532 856 l 615 981 q 637 1001 624 994 q 672 1007 650 1007 l 721 1007 q 743 988 743 1007 q 733 965 743 975 l 607 846 q 561 826 585 826 l 547 826 m 349 826 q 329 842 329 826 q 331 851 329 846 q 336 860 333 856 l 417 981 q 438 1001 425 994 q 474 1007 451 1007 l 522 1007 q 544 988 544 1007 q 535 965 544 975 l 408 846 q 363 826 386 826 l 349 826 z "},"ō":{"ha":772,"x_min":38,"x_max":713,"o":"m 303 -14 q 146 28 207 -14 q 61 142 85 69 q 54 303 38 214 q 65 361 57 324 q 79 419 74 399 q 149 581 101 510 q 272 694 197 653 q 446 736 346 736 q 606 694 546 736 q 690 581 667 653 q 696 419 713 510 q 684 361 692 399 q 671 303 676 324 q 601 142 649 214 q 478 28 553 69 q 303 -14 404 -14 m 303 67 q 480 129 401 67 q 588 310 558 192 q 599 361 593 331 q 610 413 606 392 q 588 594 631 532 q 446 656 544 656 q 270 594 349 656 q 163 413 192 532 q 150 361 157 392 q 140 310 143 331 q 161 129 119 192 q 303 67 203 67 m 346 864 q 326 872 332 864 q 321 894 319 881 l 325 914 q 338 936 328 928 q 363 944 349 944 l 639 944 q 659 936 653 944 q 663 914 665 928 l 658 894 q 647 872 657 881 q 622 864 636 864 l 346 864 z "},"ø":{"ha":772,"x_min":11,"x_max":763,"o":"m 303 -14 q 146 28 207 -14 q 61 142 85 69 q 54 303 38 214 q 65 361 57 324 q 79 419 74 399 q 149 581 101 510 q 272 694 197 653 q 446 736 346 736 q 606 694 546 736 q 690 581 667 653 q 696 419 713 510 q 684 361 692 399 q 671 303 676 324 q 601 142 649 214 q 478 28 553 69 q 303 -14 404 -14 m 303 67 q 480 129 401 67 q 588 310 558 192 q 599 361 593 331 q 610 413 606 392 q 588 594 631 532 q 446 656 544 656 q 270 594 349 656 q 163 413 192 532 q 150 361 157 392 q 140 310 143 331 q 161 129 119 192 q 303 67 203 67 m 33 -39 q 19 -33 26 -39 q 11 -18 11 -28 q 21 1 11 -8 l 676 739 q 693 753 685 747 q 718 760 701 760 l 742 760 q 756 754 749 760 q 763 740 763 749 q 753 719 763 729 l 97 -18 q 81 -33 89 -26 q 57 -39 72 -39 l 33 -39 z "},"ǿ":{"ha":772,"x_min":11,"x_max":763,"o":"m 303 -14 q 146 28 207 -14 q 61 142 85 69 q 54 303 38 214 q 65 361 57 324 q 79 419 74 399 q 149 581 101 510 q 272 694 197 653 q 446 736 346 736 q 606 694 546 736 q 690 581 667 653 q 696 419 713 510 q 684 361 692 399 q 671 303 676 324 q 601 142 649 214 q 478 28 553 69 q 303 -14 404 -14 m 303 67 q 480 129 401 67 q 588 310 558 192 q 599 361 593 331 q 610 413 606 392 q 588 594 631 532 q 446 656 544 656 q 270 594 349 656 q 163 413 192 532 q 150 361 157 392 q 140 310 143 331 q 161 129 119 192 q 303 67 203 67 m 33 -39 q 19 -33 26 -39 q 11 -18 11 -28 q 21 1 11 -8 l 676 739 q 693 753 685 747 q 718 760 701 760 l 742 760 q 756 754 749 760 q 763 740 763 749 q 753 719 763 729 l 97 -18 q 81 -33 89 -26 q 57 -39 72 -39 l 33 -39 m 449 826 q 432 849 426 826 q 443 867 435 858 l 564 982 q 590 1001 579 996 q 621 1007 600 1007 l 678 1007 q 699 986 699 1007 q 688 964 699 971 l 510 840 q 487 828 496 831 q 464 826 478 826 l 449 826 z "},"õ":{"ha":772,"x_min":38,"x_max":713,"o":"m 303 -14 q 146 28 207 -14 q 61 142 85 69 q 54 303 38 214 q 65 361 57 324 q 79 419 74 399 q 149 581 101 510 q 272 694 197 653 q 446 736 346 736 q 606 694 546 736 q 690 581 667 653 q 696 419 713 510 q 684 361 692 399 q 671 303 676 324 q 601 142 649 214 q 478 28 553 69 q 303 -14 404 -14 m 303 67 q 480 129 401 67 q 588 310 558 192 q 599 361 593 331 q 610 413 606 392 q 588 594 631 532 q 446 656 544 656 q 270 594 349 656 q 163 413 192 532 q 150 361 157 392 q 140 310 143 331 q 161 129 119 192 q 303 67 203 67 m 547 819 q 497 831 515 819 q 465 855 479 843 q 431 867 450 867 q 405 857 415 867 q 385 837 394 847 q 360 826 375 826 l 332 826 q 317 833 322 826 q 314 849 313 840 q 327 886 317 868 q 353 919 338 904 q 390 942 369 933 q 431 950 410 950 q 482 938 464 950 q 514 915 500 926 q 547 903 528 903 q 574 913 564 903 q 592 934 583 924 q 617 944 601 944 l 644 944 q 660 938 656 944 q 663 922 664 931 q 649 884 660 903 q 623 851 639 865 q 588 828 607 836 q 547 819 568 819 z "},"œ":{"ha":1293,"x_min":61,"x_max":1263,"o":"m 318 -14 q 160 28 218 -14 q 81 142 101 69 q 78 303 61 214 q 88 361 81 324 q 101 419 96 399 q 174 581 124 510 q 301 694 225 653 q 478 736 378 736 q 636 694 578 736 q 714 581 694 651 q 842 694 767 653 q 1008 736 917 736 q 1165 693 1106 736 q 1243 569 1224 650 q 1239 378 1263 489 l 1235 357 q 1221 335 1232 343 q 1196 326 1210 326 l 701 326 l 699 313 q 703 194 689 250 q 758 102 717 138 q 865 67 799 67 q 963 85 921 67 q 1033 124 1006 103 q 1071 157 1061 146 q 1095 178 1088 175 q 1118 182 1103 182 l 1140 182 q 1160 174 1153 182 q 1164 154 1167 167 q 1133 106 1158 135 q 1065 50 1107 78 q 967 4 1022 22 q 849 -14 911 -14 q 701 27 758 -14 q 621 140 643 68 q 494 28 569 69 q 318 -14 418 -14 m 335 67 q 506 129 432 67 q 611 310 581 192 q 623 361 617 331 q 632 413 629 392 q 606 594 654 532 q 461 656 558 656 q 290 594 364 656 q 185 413 215 532 q 173 361 179 392 q 164 310 167 331 q 190 129 142 192 q 335 67 238 67 m 718 404 l 1160 404 l 1161 410 q 1161 535 1176 479 q 1103 623 1146 590 q 992 656 1061 656 q 866 623 922 656 q 772 535 810 590 q 719 410 735 479 l 718 404 z "},"p":{"ha":804,"x_min":-26,"x_max":736,"o":"m 1 -264 q -19 -256 -12 -264 q -24 -233 -26 -247 l 174 692 q 186 714 176 706 q 210 722 196 722 l 233 722 q 254 714 247 722 q 258 692 261 706 l 244 626 q 343 705 289 674 q 489 736 397 736 q 621 707 569 736 q 698 629 672 678 q 730 521 724 581 q 726 400 736 461 q 719 361 724 379 q 710 322 715 343 q 667 203 694 263 q 596 94 639 143 q 491 15 553 44 q 346 -14 429 -14 q 205 18 254 -14 q 132 96 156 50 l 61 -233 q 49 -256 58 -247 q 25 -264 39 -264 l 1 -264 m 346 67 q 477 103 422 67 q 568 198 532 139 q 624 322 604 257 q 634 361 631 343 q 640 400 638 379 q 644 525 651 467 q 601 619 636 583 q 489 656 565 656 q 349 618 410 656 q 251 524 289 581 q 199 411 213 468 q 186 357 193 390 q 175 303 179 324 q 176 193 165 247 q 228 103 188 139 q 346 67 269 67 z "},"þ":{"ha":804,"x_min":-26,"x_max":736,"o":"m 1 -264 q -19 -256 -12 -264 q -24 -233 -26 -247 l 231 956 q 243 978 233 969 q 267 986 253 986 l 290 986 q 311 978 304 986 q 315 956 318 971 l 244 626 q 341 703 285 671 q 489 736 397 736 q 621 707 569 736 q 698 629 672 678 q 730 521 724 581 q 726 400 736 461 q 719 361 724 379 q 710 322 715 343 q 667 203 694 263 q 596 94 639 143 q 491 15 553 44 q 346 -14 429 -14 q 205 18 254 -14 q 132 96 156 50 l 61 -233 q 49 -256 58 -247 q 25 -264 39 -264 l 1 -264 m 346 67 q 477 103 422 67 q 568 198 532 139 q 624 322 604 257 q 634 361 631 343 q 640 400 638 379 q 644 525 651 467 q 601 619 636 583 q 489 656 565 656 q 349 618 410 656 q 251 524 289 581 q 199 411 213 468 q 186 357 193 390 q 175 303 179 324 q 176 193 165 247 q 228 103 188 139 q 346 67 269 67 z "},"q":{"ha":806,"x_min":46,"x_max":753,"o":"m 493 -264 q 473 -256 479 -264 q 469 -233 467 -247 l 539 96 q 439 18 496 50 q 296 -14 382 -14 q 163 15 215 -14 q 85 90 111 43 q 52 196 58 138 q 56 315 46 254 q 64 361 58 336 q 75 407 69 386 q 140 564 96 489 q 256 688 183 639 q 438 736 329 736 q 576 705 524 736 q 651 626 628 674 l 665 692 q 678 714 668 706 q 703 722 689 722 l 726 722 q 747 714 740 722 q 750 692 753 706 l 554 -233 q 541 -256 551 -247 q 517 -264 531 -264 l 493 -264 m 296 67 q 433 103 374 67 q 532 193 493 139 q 583 303 571 247 q 596 357 589 324 q 606 411 603 390 q 606 524 617 468 q 556 618 596 581 q 438 656 517 656 q 306 619 361 656 q 214 525 250 583 q 158 400 178 467 q 149 361 153 379 q 142 322 144 343 q 138 197 132 256 q 179 103 143 139 q 296 67 215 67 z "},"r":{"ha":486,"x_min":29,"x_max":531,"o":"m 57 0 q 36 8 43 0 q 32 31 29 17 l 172 690 q 185 713 175 704 q 210 722 196 722 l 232 722 q 253 713 246 722 q 257 690 260 704 l 243 626 q 329 699 275 675 q 453 722 383 722 l 504 722 q 524 714 518 722 q 528 692 531 706 l 524 672 q 511 650 521 658 q 488 642 501 642 l 428 642 q 285 593 344 642 q 208 461 226 544 l 117 31 q 103 8 114 17 q 79 0 93 0 l 57 0 z "},"ŕ":{"ha":486,"x_min":29,"x_max":576,"o":"m 57 0 q 36 8 43 0 q 32 31 29 17 l 172 690 q 185 713 175 704 q 210 722 196 722 l 232 722 q 253 713 246 722 q 257 690 260 704 l 243 626 q 329 699 275 675 q 453 722 383 722 l 504 722 q 524 714 518 722 q 528 692 531 706 l 524 672 q 511 650 521 658 q 488 642 501 642 l 428 642 q 285 593 344 642 q 208 461 226 544 l 117 31 q 103 8 114 17 q 79 0 93 0 l 57 0 m 326 826 q 310 849 304 826 q 321 867 313 858 l 442 982 q 467 1001 457 996 q 499 1007 478 1007 l 556 1007 q 576 986 576 1007 q 565 964 576 971 l 388 840 q 365 828 374 831 q 342 826 356 826 l 326 826 z "},"ř":{"ha":486,"x_min":29,"x_max":588,"o":"m 57 0 q 36 8 43 0 q 32 31 29 17 l 172 690 q 185 713 175 704 q 210 722 196 722 l 232 722 q 253 713 246 722 q 257 690 260 704 l 243 626 q 329 699 275 675 q 453 722 383 722 l 504 722 q 524 714 518 722 q 528 692 531 706 l 524 672 q 511 650 521 658 q 488 642 501 642 l 428 642 q 285 593 344 642 q 208 461 226 544 l 117 31 q 103 8 114 17 q 79 0 93 0 l 57 0 m 357 826 q 338 829 347 826 q 317 846 328 832 l 215 971 q 208 988 208 981 q 215 1001 208 996 q 231 1007 222 1007 l 258 1007 q 272 1004 267 1007 q 282 997 278 1001 l 372 914 l 499 997 q 511 1004 506 1001 q 525 1007 517 1007 l 572 1007 q 588 993 588 1007 q 575 972 588 983 l 419 846 q 392 829 401 832 q 371 826 382 826 l 357 826 z "},"ŗ":{"ha":486,"x_min":-79,"x_max":531,"o":"m 57 0 q 36 8 43 0 q 32 31 29 17 l 172 690 q 185 713 175 704 q 210 722 196 722 l 232 722 q 253 713 246 722 q 257 690 260 704 l 243 626 q 329 699 275 675 q 453 722 383 722 l 504 722 q 524 714 518 722 q 528 692 531 706 l 524 672 q 511 650 521 658 q 488 642 501 642 l 428 642 q 285 593 344 642 q 208 461 226 544 l 117 31 q 103 8 114 17 q 79 0 93 0 l 57 0 m -61 -292 q -76 -283 -72 -292 q -75 -262 -79 -275 l -18 -107 q -1 -80 -11 -90 q 25 -69 8 -69 l 88 -69 q 101 -76 97 -69 q 103 -92 106 -83 q 99 -103 101 -97 q 92 -117 96 -110 l 6 -262 q -12 -284 -4 -276 q -36 -292 -21 -292 l -61 -292 z "},"s":{"ha":683,"x_min":28,"x_max":649,"o":"m 271 -14 q 151 6 199 -14 q 75 52 103 25 q 38 106 47 79 q 29 146 28 132 q 44 169 32 161 q 65 176 56 176 l 86 176 q 101 174 94 176 q 113 158 107 171 q 144 113 125 135 q 198 79 164 92 q 288 67 232 67 q 432 99 371 67 q 507 193 493 131 q 498 256 515 232 q 433 297 481 279 q 303 335 386 315 q 180 385 219 356 q 131 452 140 414 q 132 535 122 490 q 180 630 143 583 q 278 706 217 676 q 424 736 340 736 q 536 718 492 736 q 606 674 581 700 q 640 624 631 649 q 646 583 649 599 q 633 561 644 569 q 610 553 622 553 l 589 553 q 572 558 578 553 q 563 571 565 563 q 538 613 553 593 q 492 644 522 632 q 407 656 463 656 q 276 622 324 656 q 217 535 228 588 q 222 481 210 504 q 275 440 233 458 q 400 400 317 421 q 531 352 485 381 q 590 285 576 324 q 592 193 603 246 q 539 90 581 138 q 429 15 497 43 q 271 -14 361 -14 z "},"ś":{"ha":683,"x_min":28,"x_max":649,"o":"m 271 -14 q 151 6 199 -14 q 75 52 103 25 q 38 106 47 79 q 29 146 28 132 q 44 169 32 161 q 65 176 56 176 l 86 176 q 101 174 94 176 q 113 158 107 171 q 144 113 125 135 q 198 79 164 92 q 288 67 232 67 q 432 99 371 67 q 507 193 493 131 q 498 256 515 232 q 433 297 481 279 q 303 335 386 315 q 180 385 219 356 q 131 452 140 414 q 132 535 122 490 q 180 630 143 583 q 278 706 217 676 q 424 736 340 736 q 536 718 492 736 q 606 674 581 700 q 640 624 631 649 q 646 583 649 599 q 633 561 644 569 q 610 553 622 553 l 589 553 q 572 558 578 553 q 563 571 565 563 q 538 613 553 593 q 492 644 522 632 q 407 656 463 656 q 276 622 324 656 q 217 535 228 588 q 222 481 210 504 q 275 440 233 458 q 400 400 317 421 q 531 352 485 381 q 590 285 576 324 q 592 193 603 246 q 539 90 581 138 q 429 15 497 43 q 271 -14 361 -14 m 389 826 q 372 849 367 826 q 383 867 375 858 l 504 982 q 530 1001 519 996 q 561 1007 540 1007 l 618 1007 q 639 986 639 1007 q 628 964 639 971 l 450 840 q 427 828 436 831 q 404 826 418 826 l 389 826 z "},"š":{"ha":683,"x_min":28,"x_max":650,"o":"m 271 -14 q 151 6 199 -14 q 75 52 103 25 q 38 106 47 79 q 29 146 28 132 q 44 169 32 161 q 65 176 56 176 l 86 176 q 101 174 94 176 q 113 158 107 171 q 144 113 125 135 q 198 79 164 92 q 288 67 232 67 q 432 99 371 67 q 507 193 493 131 q 498 256 515 232 q 433 297 481 279 q 303 335 386 315 q 180 385 219 356 q 131 452 140 414 q 132 535 122 490 q 180 630 143 583 q 278 706 217 676 q 424 736 340 736 q 536 718 492 736 q 606 674 581 700 q 640 624 631 649 q 646 583 649 599 q 633 561 644 569 q 610 553 622 553 l 589 553 q 572 558 578 553 q 563 571 565 563 q 538 613 553 593 q 492 644 522 632 q 407 656 463 656 q 276 622 324 656 q 217 535 228 588 q 222 481 210 504 q 275 440 233 458 q 400 400 317 421 q 531 352 485 381 q 590 285 576 324 q 592 193 603 246 q 539 90 581 138 q 429 15 497 43 q 271 -14 361 -14 m 419 826 q 400 829 410 826 q 379 846 390 832 l 278 971 q 271 988 271 981 q 278 1001 271 996 q 293 1007 285 1007 l 321 1007 q 335 1004 329 1007 q 344 997 340 1001 l 435 914 l 561 997 q 574 1004 568 1001 q 588 1007 579 1007 l 635 1007 q 650 993 650 1007 q 638 972 650 983 l 482 846 q 454 829 464 832 q 433 826 444 826 l 419 826 z "},"ş":{"ha":683,"x_min":26,"x_max":649,"o":"m 236 -306 q 170 -291 197 -304 q 134 -261 143 -278 q 138 -235 125 -244 l 161 -217 q 183 -212 175 -206 q 206 -231 192 -219 q 250 -242 219 -242 q 295 -227 274 -242 q 322 -186 317 -212 q 313 -147 328 -161 q 274 -133 297 -133 q 249 -140 261 -133 q 226 -148 236 -146 q 207 -139 215 -150 l 190 -115 q 189 -94 185 -107 q 199 -72 193 -82 l 233 -11 q 106 28 151 -3 q 43 93 60 58 q 29 146 26 128 q 44 169 32 161 q 65 176 56 176 l 86 176 q 101 174 94 176 q 113 158 107 171 q 144 113 125 135 q 198 79 164 92 q 288 67 232 67 q 432 99 371 67 q 507 193 493 131 q 498 256 515 232 q 433 297 481 279 q 303 335 386 315 q 180 385 219 356 q 131 452 140 414 q 132 535 122 490 q 180 630 143 583 q 278 706 217 676 q 424 736 340 736 q 536 718 492 736 q 606 674 581 700 q 640 624 631 649 q 646 583 649 599 q 633 561 644 569 q 610 553 622 553 l 589 553 q 572 558 578 553 q 563 571 565 563 q 538 613 553 593 q 492 644 522 632 q 407 656 463 656 q 276 622 324 656 q 217 535 228 588 q 222 481 210 504 q 275 440 233 458 q 400 400 317 421 q 531 352 485 381 q 590 285 576 324 q 592 193 603 246 q 500 54 575 114 q 304 -14 425 -6 l 272 -75 q 292 -71 282 -72 q 313 -69 303 -69 q 381 -101 358 -69 q 393 -183 404 -133 q 342 -270 383 -233 q 236 -306 301 -307 z "},"ŝ":{"ha":683,"x_min":28,"x_max":649,"o":"m 271 -14 q 151 6 199 -14 q 75 52 103 25 q 38 106 47 79 q 29 146 28 132 q 44 169 32 161 q 65 176 56 176 l 86 176 q 101 174 94 176 q 113 158 107 171 q 144 113 125 135 q 198 79 164 92 q 288 67 232 67 q 432 99 371 67 q 507 193 493 131 q 498 256 515 232 q 433 297 481 279 q 303 335 386 315 q 180 385 219 356 q 131 452 140 414 q 132 535 122 490 q 180 630 143 583 q 278 706 217 676 q 424 736 340 736 q 536 718 492 736 q 606 674 581 700 q 640 624 631 649 q 646 583 649 599 q 633 561 644 569 q 610 553 622 553 l 589 553 q 572 558 578 553 q 563 571 565 563 q 538 613 553 593 q 492 644 522 632 q 407 656 463 656 q 276 622 324 656 q 217 535 228 588 q 222 481 210 504 q 275 440 233 458 q 400 400 317 421 q 531 352 485 381 q 590 285 576 324 q 592 193 603 246 q 539 90 581 138 q 429 15 497 43 q 271 -14 361 -14 m 246 826 q 231 840 231 826 q 243 861 231 851 l 399 988 q 427 1005 417 1003 q 447 1007 438 1007 l 461 1007 q 481 1005 472 1007 q 501 988 490 1003 l 603 863 q 608 842 611 853 q 588 826 606 826 l 560 826 q 546 829 551 826 q 536 836 540 832 l 446 919 l 319 836 q 307 829 313 832 q 293 826 301 826 l 246 826 z "},"ș":{"ha":683,"x_min":28,"x_max":649,"o":"m 271 -14 q 151 6 199 -14 q 75 52 103 25 q 38 106 47 79 q 29 146 28 132 q 44 169 32 161 q 65 176 56 176 l 86 176 q 101 174 94 176 q 113 158 107 171 q 144 113 125 135 q 198 79 164 92 q 288 67 232 67 q 432 99 371 67 q 507 193 493 131 q 498 256 515 232 q 433 297 481 279 q 303 335 386 315 q 180 385 219 356 q 131 452 140 414 q 132 535 122 490 q 180 630 143 583 q 278 706 217 676 q 424 736 340 736 q 536 718 492 736 q 606 674 581 700 q 640 624 631 649 q 646 583 649 599 q 633 561 644 569 q 610 553 622 553 l 589 553 q 572 558 578 553 q 563 571 565 563 q 538 613 553 593 q 492 644 522 632 q 407 656 463 656 q 276 622 324 656 q 217 535 228 588 q 222 481 210 504 q 275 440 233 458 q 400 400 317 421 q 531 352 485 381 q 590 285 576 324 q 592 193 603 246 q 539 90 581 138 q 429 15 497 43 q 271 -14 361 -14 m 167 -292 q 152 -283 156 -292 q 153 -262 149 -275 l 210 -107 q 226 -80 217 -90 q 253 -69 236 -69 l 315 -69 q 329 -76 325 -69 q 331 -92 333 -83 q 326 -103 329 -97 q 319 -117 324 -110 l 233 -262 q 215 -284 224 -276 q 192 -292 207 -292 l 167 -292 z "},"ß":{"ha":789,"x_min":50,"x_max":778,"o":"m 76 0 q 56 8 63 0 q 53 31 50 17 l 194 697 q 253 839 211 774 q 365 945 294 904 q 536 986 436 986 q 691 947 638 986 q 761 851 744 908 q 764 733 778 793 q 723 631 751 674 q 660 563 694 589 q 594 524 625 536 q 684 464 657 503 q 715 377 711 425 q 708 281 719 329 q 672 185 699 235 q 600 94 644 136 q 493 26 556 51 q 349 0 431 0 l 244 0 q 224 8 231 0 q 221 31 218 17 l 225 50 q 238 72 228 64 q 263 81 249 81 l 353 81 q 536 139 467 81 q 624 281 606 197 q 597 424 642 365 q 438 482 551 482 l 347 482 q 327 490 333 482 q 324 513 321 499 l 328 532 q 340 554 331 546 q 364 563 350 563 l 440 563 q 603 608 544 564 q 679 733 663 651 q 652 857 696 808 q 519 906 608 906 q 366 852 431 906 q 278 690 301 799 l 138 31 q 124 8 135 17 q 100 0 114 0 l 76 0 z "},"ſ":{"ha":374,"x_min":72,"x_max":614,"o":"m 118 0 q 97 8 104 0 q 93 31 90 17 l 224 642 l 100 642 q 79 650 86 642 q 75 672 72 658 l 79 692 q 92 714 82 706 q 117 722 103 722 l 240 722 l 257 801 q 302 915 271 864 q 384 997 333 967 q 507 1028 435 1028 l 588 1028 q 608 1019 601 1028 q 611 997 614 1011 l 607 978 q 594 956 604 964 q 569 947 583 947 l 507 947 q 395 908 435 947 q 340 794 356 868 l 178 31 q 165 8 175 17 q 142 0 156 0 l 118 0 z "},"t":{"ha":488,"x_min":72,"x_max":508,"o":"m 275 0 q 148 31 185 0 q 109 114 111 61 q 121 232 107 167 l 208 642 l 100 642 q 79 650 86 642 q 75 672 72 658 l 79 692 q 92 714 82 706 q 117 722 103 722 l 225 722 l 275 956 q 288 978 278 969 q 311 986 297 986 l 335 986 q 356 978 349 986 q 360 956 363 969 l 310 722 l 482 722 q 502 714 496 722 q 506 692 508 706 l 501 672 q 489 650 499 658 q 465 642 479 642 l 293 642 l 207 238 q 194 153 197 189 q 208 99 190 118 q 276 81 225 81 l 360 81 q 380 72 374 81 q 383 50 386 64 l 379 31 q 367 8 376 17 q 343 0 357 0 l 275 0 z "},"ŧ":{"ha":499,"x_min":35,"x_max":517,"o":"m 283 0 q 156 31 193 0 q 117 114 119 61 q 129 232 115 167 l 169 422 l 61 422 q 41 431 47 422 q 38 453 35 439 l 42 472 q 54 494 44 486 q 78 503 64 503 l 186 503 l 217 642 l 108 642 q 88 650 94 642 q 83 672 82 658 l 88 692 q 101 714 90 706 q 125 722 111 722 l 233 722 l 283 956 q 296 978 286 969 q 319 986 306 986 l 343 986 q 364 978 357 986 q 368 956 371 969 l 318 722 l 490 722 q 510 714 504 722 q 514 692 517 706 l 510 672 q 498 650 508 658 q 474 642 488 642 l 301 642 l 271 503 l 443 503 q 464 494 457 503 q 468 472 471 486 l 464 453 q 451 431 461 439 q 426 422 440 422 l 254 422 l 215 238 q 202 153 206 189 q 216 99 199 118 q 285 81 233 81 l 368 81 q 388 72 382 81 q 392 50 394 64 l 388 31 q 375 8 385 17 q 351 0 365 0 l 283 0 z "},"ť":{"ha":488,"x_min":72,"x_max":639,"o":"m 275 0 q 148 31 185 0 q 109 114 111 61 q 121 232 107 167 l 208 642 l 100 642 q 79 650 86 642 q 75 672 72 658 l 79 692 q 92 714 82 706 q 117 722 103 722 l 225 722 l 275 956 q 288 978 278 969 q 311 986 297 986 l 335 986 q 356 978 349 986 q 360 956 363 969 l 310 722 l 482 722 q 502 714 496 722 q 506 692 508 706 l 501 672 q 489 650 499 658 q 465 642 479 642 l 293 642 l 207 238 q 194 153 197 189 q 208 99 190 118 q 276 81 225 81 l 360 81 q 380 72 374 81 q 383 50 386 64 l 379 31 q 367 8 376 17 q 343 0 357 0 l 275 0 m 472 847 q 458 856 461 847 q 458 876 454 864 l 515 1032 q 532 1059 522 1049 q 558 1069 542 1069 l 621 1069 q 635 1063 631 1069 q 636 1047 639 1056 q 632 1035 635 1042 q 625 1022 629 1029 l 539 876 q 521 855 529 863 q 497 847 513 847 l 472 847 z "},"ț":{"ha":488,"x_min":72,"x_max":508,"o":"m 275 0 q 148 31 185 0 q 109 114 111 61 q 121 232 107 167 l 208 642 l 100 642 q 79 650 86 642 q 75 672 72 658 l 79 692 q 92 714 82 706 q 117 722 103 722 l 225 722 l 275 956 q 288 978 278 969 q 311 986 297 986 l 335 986 q 356 978 349 986 q 360 956 363 969 l 310 722 l 482 722 q 502 714 496 722 q 506 692 508 706 l 501 672 q 489 650 499 658 q 465 642 479 642 l 293 642 l 207 238 q 194 153 197 189 q 208 99 190 118 q 276 81 225 81 l 360 81 q 380 72 374 81 q 383 50 386 64 l 379 31 q 367 8 376 17 q 343 0 357 0 l 275 0 m 97 -292 q 83 -283 86 -292 q 83 -262 79 -275 l 140 -107 q 157 -80 147 -90 q 183 -69 167 -69 l 246 -69 q 260 -76 256 -69 q 261 -92 264 -83 q 257 -103 260 -97 q 250 -117 254 -110 l 164 -262 q 146 -284 154 -276 q 122 -292 138 -292 l 97 -292 z "},"u":{"ha":814,"x_min":64,"x_max":763,"o":"m 308 -14 q 147 27 203 -14 q 78 139 92 68 q 82 297 64 210 l 165 692 q 178 714 168 706 q 203 722 189 722 l 226 722 q 247 714 240 722 q 250 692 253 706 l 168 304 q 156 173 151 226 q 197 93 161 119 q 308 67 232 67 q 491 130 413 67 q 593 304 569 193 l 675 692 q 688 714 678 706 q 713 722 699 722 l 736 722 q 756 714 750 722 q 760 692 763 706 l 619 31 q 607 8 617 17 q 583 0 597 0 l 560 0 q 539 8 546 0 q 535 31 532 17 l 549 96 q 485 39 517 64 q 413 0 454 14 q 308 -14 372 -14 z "},"ú":{"ha":814,"x_min":64,"x_max":763,"o":"m 308 -14 q 147 27 203 -14 q 78 139 92 68 q 82 297 64 210 l 165 692 q 178 714 168 706 q 203 722 189 722 l 226 722 q 247 714 240 722 q 250 692 253 706 l 168 304 q 156 173 151 226 q 197 93 161 119 q 308 67 232 67 q 491 130 413 67 q 593 304 569 193 l 675 692 q 688 714 678 706 q 713 722 699 722 l 736 722 q 756 714 750 722 q 760 692 763 706 l 619 31 q 607 8 617 17 q 583 0 597 0 l 560 0 q 539 8 546 0 q 535 31 532 17 l 549 96 q 485 39 517 64 q 413 0 454 14 q 308 -14 372 -14 m 442 826 q 425 849 419 826 q 436 867 428 858 l 557 982 q 583 1001 572 996 q 614 1007 593 1007 l 671 1007 q 692 986 692 1007 q 681 964 692 971 l 503 840 q 480 828 489 831 q 457 826 471 826 l 442 826 z "},"ŭ":{"ha":814,"x_min":64,"x_max":763,"o":"m 308 -14 q 147 27 203 -14 q 78 139 92 68 q 82 297 64 210 l 165 692 q 178 714 168 706 q 203 722 189 722 l 226 722 q 247 714 240 722 q 250 692 253 706 l 168 304 q 156 173 151 226 q 197 93 161 119 q 308 67 232 67 q 491 130 413 67 q 593 304 569 193 l 675 692 q 688 714 678 706 q 713 722 699 722 l 736 722 q 756 714 750 722 q 760 692 763 706 l 619 31 q 607 8 617 17 q 583 0 597 0 l 560 0 q 539 8 546 0 q 535 31 532 17 l 549 96 q 485 39 517 64 q 413 0 454 14 q 308 -14 372 -14 m 486 819 q 398 843 429 819 q 358 904 367 867 q 358 981 350 942 q 369 999 361 992 q 390 1007 378 1007 l 411 1007 q 429 999 424 1007 q 432 981 435 992 q 433 918 425 947 q 489 889 442 889 q 559 918 538 889 q 590 981 581 947 q 601 999 593 992 q 622 1007 610 1007 l 643 1007 q 661 999 656 1007 q 664 981 667 992 q 638 904 656 942 q 583 843 619 867 q 486 819 547 819 z "},"û":{"ha":814,"x_min":64,"x_max":763,"o":"m 308 -14 q 147 27 203 -14 q 78 139 92 68 q 82 297 64 210 l 165 692 q 178 714 168 706 q 203 722 189 722 l 226 722 q 247 714 240 722 q 250 692 253 706 l 168 304 q 156 173 151 226 q 197 93 161 119 q 308 67 232 67 q 491 130 413 67 q 593 304 569 193 l 675 692 q 688 714 678 706 q 713 722 699 722 l 736 722 q 756 714 750 722 q 760 692 763 706 l 619 31 q 607 8 617 17 q 583 0 597 0 l 560 0 q 539 8 546 0 q 535 31 532 17 l 549 96 q 485 39 517 64 q 413 0 454 14 q 308 -14 372 -14 m 299 826 q 283 840 283 826 q 296 861 283 851 l 451 988 q 480 1005 469 1003 q 500 1007 490 1007 l 514 1007 q 534 1005 525 1007 q 554 988 543 1003 l 656 863 q 661 842 664 853 q 640 826 658 826 l 613 826 q 599 829 604 826 q 589 836 593 832 l 499 919 l 372 836 q 360 829 365 832 q 346 826 354 826 l 299 826 z "},"ü":{"ha":814,"x_min":64,"x_max":763,"o":"m 308 -14 q 147 27 203 -14 q 78 139 92 68 q 82 297 64 210 l 165 692 q 178 714 168 706 q 203 722 189 722 l 226 722 q 247 714 240 722 q 250 692 253 706 l 168 304 q 156 173 151 226 q 197 93 161 119 q 308 67 232 67 q 491 130 413 67 q 593 304 569 193 l 675 692 q 688 714 678 706 q 713 722 699 722 l 736 722 q 756 714 750 722 q 760 692 763 706 l 619 31 q 607 8 617 17 q 583 0 597 0 l 560 0 q 539 8 546 0 q 535 31 532 17 l 549 96 q 485 39 517 64 q 413 0 454 14 q 308 -14 372 -14 m 565 871 q 545 879 551 871 q 540 901 539 888 l 553 954 q 565 977 556 968 q 589 986 575 986 l 642 986 q 663 977 656 986 q 668 954 671 968 l 656 901 q 642 879 653 888 q 618 871 632 871 l 565 871 m 353 871 q 333 879 339 871 q 328 901 326 888 l 340 954 q 353 977 343 968 q 376 986 363 986 l 429 986 q 451 977 443 986 q 456 954 458 968 l 443 901 q 430 879 440 888 q 406 871 419 871 l 353 871 z "},"ù":{"ha":814,"x_min":64,"x_max":763,"o":"m 308 -14 q 147 27 203 -14 q 78 139 92 68 q 82 297 64 210 l 165 692 q 178 714 168 706 q 203 722 189 722 l 226 722 q 247 714 240 722 q 250 692 253 706 l 168 304 q 156 173 151 226 q 197 93 161 119 q 308 67 232 67 q 491 130 413 67 q 593 304 569 193 l 675 692 q 688 714 678 706 q 713 722 699 722 l 736 722 q 756 714 750 722 q 760 692 763 706 l 619 31 q 607 8 617 17 q 583 0 597 0 l 560 0 q 539 8 546 0 q 535 31 532 17 l 549 96 q 485 39 517 64 q 413 0 454 14 q 308 -14 372 -14 m 486 826 q 464 828 472 826 q 446 840 456 831 l 325 960 q 318 982 315 969 q 347 1007 324 1007 l 407 1007 q 436 1001 428 1007 q 453 982 444 996 l 522 869 q 526 847 529 858 q 500 826 521 826 l 486 826 z "},"ű":{"ha":814,"x_min":64,"x_max":763,"o":"m 308 -14 q 147 27 203 -14 q 78 139 92 68 q 82 297 64 210 l 165 692 q 178 714 168 706 q 203 722 189 722 l 226 722 q 247 714 240 722 q 250 692 253 706 l 168 304 q 156 173 151 226 q 197 93 161 119 q 308 67 232 67 q 491 130 413 67 q 593 304 569 193 l 675 692 q 688 714 678 706 q 713 722 699 722 l 736 722 q 756 714 750 722 q 760 692 763 706 l 619 31 q 607 8 617 17 q 583 0 597 0 l 560 0 q 539 8 546 0 q 535 31 532 17 l 549 96 q 485 39 517 64 q 413 0 454 14 q 308 -14 372 -14 m 549 826 q 529 842 529 826 q 531 851 529 846 q 536 860 533 856 l 617 981 q 638 1001 625 994 q 674 1007 651 1007 l 722 1007 q 744 988 744 1007 q 735 965 744 975 l 608 846 q 563 826 586 826 l 549 826 m 350 826 q 331 842 331 826 q 333 851 331 846 q 338 860 335 856 l 418 981 q 440 1001 426 994 q 475 1007 453 1007 l 524 1007 q 546 988 546 1007 q 536 965 546 975 l 410 846 q 364 826 388 826 l 350 826 z "},"ū":{"ha":814,"x_min":64,"x_max":763,"o":"m 308 -14 q 147 27 203 -14 q 78 139 92 68 q 82 297 64 210 l 165 692 q 178 714 168 706 q 203 722 189 722 l 226 722 q 247 714 240 722 q 250 692 253 706 l 168 304 q 156 173 151 226 q 197 93 161 119 q 308 67 232 67 q 491 130 413 67 q 593 304 569 193 l 675 692 q 688 714 678 706 q 713 722 699 722 l 736 722 q 756 714 750 722 q 760 692 763 706 l 619 31 q 607 8 617 17 q 583 0 597 0 l 560 0 q 539 8 546 0 q 535 31 532 17 l 549 96 q 485 39 517 64 q 413 0 454 14 q 308 -14 372 -14 m 347 864 q 327 872 333 864 q 322 894 321 881 l 326 914 q 340 936 329 928 q 364 944 350 944 l 640 944 q 660 936 654 944 q 664 914 667 928 l 660 894 q 648 872 658 881 q 624 864 638 864 l 347 864 z "},"ų":{"ha":813,"x_min":83,"x_max":782,"o":"m 524 -306 q 451 -285 482 -306 q 407 -224 419 -264 q 407 -125 394 -183 q 442 -46 417 -81 q 499 13 468 -11 q 558 49 531 38 q 559 54 558 51 q 560 60 560 57 l 568 96 q 462 17 521 47 q 313 -14 403 -14 q 165 27 218 -14 q 98 139 113 68 q 101 297 83 210 l 185 692 q 198 714 188 706 q 222 722 208 722 l 246 722 q 266 714 260 722 q 269 692 272 706 l 188 304 q 343 67 138 67 q 515 130 442 67 q 613 304 589 193 l 694 692 q 708 714 697 706 q 732 722 718 722 l 756 722 q 776 714 769 722 q 779 692 782 706 l 639 31 q 631 15 638 22 q 610 0 624 7 l 606 -3 q 529 -50 557 -22 q 490 -125 501 -78 q 496 -202 479 -178 q 547 -226 513 -226 l 554 -226 q 574 -235 568 -226 q 578 -257 581 -243 l 574 -275 q 560 -297 571 -289 q 536 -306 550 -306 l 524 -306 z "},"ů":{"ha":814,"x_min":64,"x_max":763,"o":"m 308 -14 q 147 27 203 -14 q 78 139 92 68 q 82 297 64 210 l 165 692 q 178 714 168 706 q 203 722 189 722 l 226 722 q 247 714 240 722 q 250 692 253 706 l 168 304 q 156 173 151 226 q 197 93 161 119 q 308 67 232 67 q 491 130 413 67 q 593 304 569 193 l 675 692 q 688 714 678 706 q 713 722 699 722 l 736 722 q 756 714 750 722 q 760 692 763 706 l 619 31 q 607 8 617 17 q 583 0 597 0 l 560 0 q 539 8 546 0 q 535 31 532 17 l 549 96 q 485 39 517 64 q 413 0 454 14 q 308 -14 372 -14 m 479 819 q 405 849 433 819 q 386 924 376 879 q 433 999 397 969 q 515 1028 469 1028 q 590 999 561 1028 q 608 924 619 969 q 562 848 599 876 q 479 819 525 819 m 483 882 q 519 894 504 882 q 539 924 535 906 q 536 953 543 942 q 510 965 529 965 q 474 953 489 965 q 456 924 460 942 q 459 894 451 906 q 483 882 467 882 z "},"ũ":{"ha":814,"x_min":64,"x_max":763,"o":"m 308 -14 q 147 27 203 -14 q 78 139 92 68 q 82 297 64 210 l 165 692 q 178 714 168 706 q 203 722 189 722 l 226 722 q 247 714 240 722 q 250 692 253 706 l 168 304 q 156 173 151 226 q 197 93 161 119 q 308 67 232 67 q 491 130 413 67 q 593 304 569 193 l 675 692 q 688 714 678 706 q 713 722 699 722 l 736 722 q 756 714 750 722 q 760 692 763 706 l 619 31 q 607 8 617 17 q 583 0 597 0 l 560 0 q 539 8 546 0 q 535 31 532 17 l 549 96 q 485 39 517 64 q 413 0 454 14 q 308 -14 372 -14 m 549 819 q 499 831 517 819 q 466 855 481 843 q 432 867 451 867 q 406 857 417 867 q 386 837 396 847 q 361 826 376 826 l 333 826 q 319 833 324 826 q 315 849 314 840 q 328 886 318 868 q 355 919 339 904 q 391 942 371 933 q 432 950 411 950 q 483 938 465 950 q 515 915 501 926 q 549 903 529 903 q 575 913 565 903 q 594 934 585 924 q 618 944 603 944 l 646 944 q 661 938 657 944 q 664 922 665 931 q 651 884 661 903 q 624 851 640 865 q 589 828 608 836 q 549 819 569 819 z "},"v":{"ha":740,"x_min":106,"x_max":757,"o":"m 268 0 q 238 10 246 0 q 226 35 229 19 l 108 689 q 115 715 106 707 q 135 722 124 722 l 161 722 q 182 716 174 722 q 193 692 190 710 l 299 101 l 661 701 q 673 715 664 707 q 696 722 682 722 l 729 722 q 749 710 742 722 q 744 679 757 699 l 353 35 q 331 10 343 19 q 297 0 319 0 l 268 0 z "},"w":{"ha":1092,"x_min":111,"x_max":1097,"o":"m 210 0 q 183 8 192 0 q 172 35 175 17 l 113 690 q 119 713 111 703 q 144 722 126 722 l 168 722 q 188 717 182 722 q 196 701 194 711 l 247 124 l 547 694 q 560 713 551 703 q 588 722 569 722 l 621 722 q 644 713 639 722 q 651 694 650 703 l 714 124 l 1008 701 q 1018 715 1011 707 q 1039 722 1025 722 l 1072 722 q 1094 711 1092 722 q 1090 685 1097 700 l 758 35 q 738 8 749 17 q 707 0 726 0 l 681 0 q 653 8 663 0 q 640 35 643 17 l 579 582 l 292 35 q 269 8 282 17 q 238 0 257 0 l 210 0 z "},"ẃ":{"ha":1092,"x_min":111,"x_max":1097,"o":"m 210 0 q 183 8 192 0 q 172 35 175 17 l 113 690 q 119 713 111 703 q 144 722 126 722 l 168 722 q 188 717 182 722 q 196 701 194 711 l 247 124 l 547 694 q 560 713 551 703 q 588 722 569 722 l 621 722 q 644 713 639 722 q 651 694 650 703 l 714 124 l 1008 701 q 1018 715 1011 707 q 1039 722 1025 722 l 1072 722 q 1094 711 1092 722 q 1090 685 1097 700 l 758 35 q 738 8 749 17 q 707 0 726 0 l 681 0 q 653 8 663 0 q 640 35 643 17 l 579 582 l 292 35 q 269 8 282 17 q 238 0 257 0 l 210 0 m 581 826 q 564 849 558 826 q 575 867 567 858 l 696 982 q 722 1001 711 996 q 753 1007 732 1007 l 810 1007 q 831 986 831 1007 q 819 964 831 971 l 642 840 q 619 828 628 831 q 596 826 610 826 l 581 826 z "},"ŵ":{"ha":1092,"x_min":111,"x_max":1097,"o":"m 210 0 q 183 8 192 0 q 172 35 175 17 l 113 690 q 119 713 111 703 q 144 722 126 722 l 168 722 q 188 717 182 722 q 196 701 194 711 l 247 124 l 547 694 q 560 713 551 703 q 588 722 569 722 l 621 722 q 644 713 639 722 q 651 694 650 703 l 714 124 l 1008 701 q 1018 715 1011 707 q 1039 722 1025 722 l 1072 722 q 1094 711 1092 722 q 1090 685 1097 700 l 758 35 q 738 8 749 17 q 707 0 726 0 l 681 0 q 653 8 663 0 q 640 35 643 17 l 579 582 l 292 35 q 269 8 282 17 q 238 0 257 0 l 210 0 m 438 826 q 422 840 422 826 q 435 861 422 851 l 590 988 q 619 1005 608 1003 q 639 1007 629 1007 l 653 1007 q 673 1005 664 1007 q 693 988 682 1003 l 794 863 q 800 842 803 853 q 779 826 797 826 l 751 826 q 738 829 743 826 q 728 836 732 832 l 638 919 l 511 836 q 499 829 504 832 q 485 826 493 826 l 438 826 z "},"ẅ":{"ha":1092,"x_min":111,"x_max":1097,"o":"m 210 0 q 183 8 192 0 q 172 35 175 17 l 113 690 q 119 713 111 703 q 144 722 126 722 l 168 722 q 188 717 182 722 q 196 701 194 711 l 247 124 l 547 694 q 560 713 551 703 q 588 722 569 722 l 621 722 q 644 713 639 722 q 651 694 650 703 l 714 124 l 1008 701 q 1018 715 1011 707 q 1039 722 1025 722 l 1072 722 q 1094 711 1092 722 q 1090 685 1097 700 l 758 35 q 738 8 749 17 q 707 0 726 0 l 681 0 q 653 8 663 0 q 640 35 643 17 l 579 582 l 292 35 q 269 8 282 17 q 238 0 257 0 l 210 0 m 704 871 q 684 879 690 871 q 679 901 678 888 l 692 954 q 704 977 694 968 q 728 986 714 986 l 781 986 q 802 977 794 986 q 807 954 810 968 l 794 901 q 781 879 792 888 q 757 871 771 871 l 704 871 m 492 871 q 472 879 478 871 q 467 901 465 888 l 479 954 q 492 977 482 968 q 515 986 501 986 l 568 986 q 590 977 582 986 q 594 954 597 968 l 582 901 q 569 879 579 888 q 544 871 558 871 l 492 871 z "},"ẁ":{"ha":1092,"x_min":111,"x_max":1097,"o":"m 210 0 q 183 8 192 0 q 172 35 175 17 l 113 690 q 119 713 111 703 q 144 722 126 722 l 168 722 q 188 717 182 722 q 196 701 194 711 l 247 124 l 547 694 q 560 713 551 703 q 588 722 569 722 l 621 722 q 644 713 639 722 q 651 694 650 703 l 714 124 l 1008 701 q 1018 715 1011 707 q 1039 722 1025 722 l 1072 722 q 1094 711 1092 722 q 1090 685 1097 700 l 758 35 q 738 8 749 17 q 707 0 726 0 l 681 0 q 653 8 663 0 q 640 35 643 17 l 579 582 l 292 35 q 269 8 282 17 q 238 0 257 0 l 210 0 m 625 826 q 603 828 611 826 q 585 840 594 831 l 464 960 q 457 982 454 969 q 486 1007 463 1007 l 546 1007 q 575 1001 567 1007 q 592 982 583 996 l 661 869 q 665 847 668 858 q 639 826 660 826 l 625 826 z "},"x":{"ha":718,"x_min":-37,"x_max":736,"o":"m -4 0 q -30 17 -22 0 q -24 47 -37 33 l 296 369 l 121 679 q 119 707 114 692 q 143 722 125 722 l 169 722 q 191 715 183 722 q 203 701 199 708 l 358 425 l 633 701 q 649 715 640 708 q 679 722 658 722 l 701 722 q 726 707 717 724 q 719 674 736 690 l 401 351 l 574 43 q 577 15 582 29 q 553 0 572 0 l 526 0 q 504 7 513 0 q 492 21 496 14 l 338 294 l 67 21 q 51 8 61 15 q 21 0 42 0 l -4 0 z "},"y":{"ha":742,"x_min":61,"x_max":767,"o":"m 88 -264 q 67 -250 72 -264 q 74 -218 61 -236 l 244 49 l 108 686 q 112 711 106 700 q 138 722 118 722 l 163 722 q 183 717 176 722 q 192 701 190 711 l 310 150 l 667 701 q 681 716 672 710 q 703 722 689 722 l 736 722 q 757 712 747 722 q 754 682 767 701 l 156 -243 q 142 -258 150 -251 q 119 -264 133 -264 l 88 -264 z "},"ý":{"ha":742,"x_min":61,"x_max":767,"o":"m 88 -264 q 67 -250 72 -264 q 74 -218 61 -236 l 244 49 l 108 686 q 112 711 106 700 q 138 722 118 722 l 163 722 q 183 717 176 722 q 192 701 190 711 l 310 150 l 667 701 q 681 716 672 710 q 703 722 689 722 l 736 722 q 757 712 747 722 q 754 682 767 701 l 156 -243 q 142 -258 150 -251 q 119 -264 133 -264 l 88 -264 m 414 826 q 397 849 392 826 q 408 867 400 858 l 529 982 q 555 1001 544 996 q 586 1007 565 1007 l 643 1007 q 664 986 664 1007 q 653 964 664 971 l 475 840 q 452 828 461 831 q 429 826 443 826 l 414 826 z "},"ŷ":{"ha":742,"x_min":61,"x_max":767,"o":"m 88 -264 q 67 -250 72 -264 q 74 -218 61 -236 l 244 49 l 108 686 q 112 711 106 700 q 138 722 118 722 l 163 722 q 183 717 176 722 q 192 701 190 711 l 310 150 l 667 701 q 681 716 672 710 q 703 722 689 722 l 736 722 q 757 712 747 722 q 754 682 767 701 l 156 -243 q 142 -258 150 -251 q 119 -264 133 -264 l 88 -264 m 271 826 q 256 840 256 826 q 268 861 256 851 l 424 988 q 452 1005 442 1003 q 472 1007 463 1007 l 486 1007 q 506 1005 497 1007 q 526 988 515 1003 l 628 863 q 633 842 636 853 q 613 826 631 826 l 585 826 q 571 829 576 826 q 561 836 565 832 l 471 919 l 344 836 q 332 829 338 832 q 318 826 326 826 l 271 826 z "},"ÿ":{"ha":742,"x_min":61,"x_max":767,"o":"m 88 -264 q 67 -250 72 -264 q 74 -218 61 -236 l 244 49 l 108 686 q 112 711 106 700 q 138 722 118 722 l 163 722 q 183 717 176 722 q 192 701 190 711 l 310 150 l 667 701 q 681 716 672 710 q 703 722 689 722 l 736 722 q 757 712 747 722 q 754 682 767 701 l 156 -243 q 142 -258 150 -251 q 119 -264 133 -264 l 88 -264 m 538 871 q 517 879 524 871 q 513 901 511 888 l 525 954 q 538 977 528 968 q 561 986 547 986 l 614 986 q 635 977 628 986 q 640 954 643 968 l 628 901 q 615 879 625 888 q 590 871 604 871 l 538 871 m 325 871 q 305 879 311 871 q 300 901 299 888 l 313 954 q 325 977 315 968 q 349 986 335 986 l 401 986 q 423 977 415 986 q 428 954 431 968 l 415 901 q 402 879 413 888 q 378 871 392 871 l 325 871 z "},"ỳ":{"ha":742,"x_min":61,"x_max":767,"o":"m 88 -264 q 67 -250 72 -264 q 74 -218 61 -236 l 244 49 l 108 686 q 112 711 106 700 q 138 722 118 722 l 163 722 q 183 717 176 722 q 192 701 190 711 l 310 150 l 667 701 q 681 716 672 710 q 703 722 689 722 l 736 722 q 757 712 747 722 q 754 682 767 701 l 156 -243 q 142 -258 150 -251 q 119 -264 133 -264 l 88 -264 m 458 826 q 436 828 444 826 q 418 840 428 831 l 297 960 q 290 982 288 969 q 319 1007 296 1007 l 379 1007 q 408 1001 400 1007 q 425 982 417 996 l 494 869 q 499 847 501 858 q 472 826 493 826 l 458 826 z "},"z":{"ha":675,"x_min":-28,"x_max":660,"o":"m 0 0 q -21 8 -14 0 q -25 31 -28 17 l -19 54 q -15 69 -17 64 q -7 81 -12 75 l 533 642 l 150 642 q 129 650 136 642 q 125 672 122 658 l 129 692 q 142 714 132 706 q 167 722 153 722 l 633 722 q 653 714 647 722 q 657 692 660 706 l 653 668 q 639 642 651 654 l 100 81 l 525 81 q 545 72 539 81 q 549 50 551 64 l 544 31 q 532 8 542 17 q 508 0 522 0 l 0 0 z "},"ź":{"ha":675,"x_min":-28,"x_max":660,"o":"m 0 0 q -21 8 -14 0 q -25 31 -28 17 l -19 54 q -15 69 -17 64 q -7 81 -12 75 l 533 642 l 150 642 q 129 650 136 642 q 125 672 122 658 l 129 692 q 142 714 132 706 q 167 722 153 722 l 633 722 q 653 714 647 722 q 657 692 660 706 l 653 668 q 639 642 651 654 l 100 81 l 525 81 q 545 72 539 81 q 549 50 551 64 l 544 31 q 532 8 542 17 q 508 0 522 0 l 0 0 m 389 826 q 372 849 367 826 q 383 867 375 858 l 504 982 q 530 1001 519 996 q 561 1007 540 1007 l 618 1007 q 639 986 639 1007 q 628 964 639 971 l 450 840 q 427 828 436 831 q 404 826 418 826 l 389 826 z "},"ž":{"ha":675,"x_min":-28,"x_max":660,"o":"m 0 0 q -21 8 -14 0 q -25 31 -28 17 l -19 54 q -15 69 -17 64 q -7 81 -12 75 l 533 642 l 150 642 q 129 650 136 642 q 125 672 122 658 l 129 692 q 142 714 132 706 q 167 722 153 722 l 633 722 q 653 714 647 722 q 657 692 660 706 l 653 668 q 639 642 651 654 l 100 81 l 525 81 q 545 72 539 81 q 549 50 551 64 l 544 31 q 532 8 542 17 q 508 0 522 0 l 0 0 m 419 826 q 400 829 410 826 q 379 846 390 832 l 278 971 q 271 988 271 981 q 278 1001 271 996 q 293 1007 285 1007 l 321 1007 q 335 1004 329 1007 q 344 997 340 1001 l 435 914 l 561 997 q 574 1004 568 1001 q 588 1007 579 1007 l 635 1007 q 650 993 650 1007 q 638 972 650 983 l 482 846 q 454 829 464 832 q 433 826 444 826 l 419 826 z "},"ż":{"ha":675,"x_min":-28,"x_max":660,"o":"m 0 0 q -21 8 -14 0 q -25 31 -28 17 l -19 54 q -15 69 -17 64 q -7 81 -12 75 l 533 642 l 150 642 q 129 650 136 642 q 125 672 122 658 l 129 692 q 142 714 132 706 q 167 722 153 722 l 633 722 q 653 714 647 722 q 657 692 660 706 l 653 668 q 639 642 651 654 l 100 81 l 525 81 q 545 72 539 81 q 549 50 551 64 l 544 31 q 532 8 542 17 q 508 0 522 0 l 0 0 m 392 857 q 371 865 378 857 q 367 888 364 874 l 382 954 q 394 977 385 968 q 418 986 404 986 l 485 986 q 506 977 499 986 q 511 954 514 968 l 496 888 q 483 865 493 874 q 458 857 472 857 l 392 857 z "},"ﬁ":{"ha":685,"x_min":76,"x_max":699,"o":"m 121 0 q 100 8 107 0 q 96 31 93 17 l 226 642 l 103 642 q 83 650 89 642 q 78 672 76 658 l 82 692 q 95 714 85 706 q 119 722 106 722 l 243 722 l 260 801 q 305 915 274 864 q 387 997 336 967 q 510 1028 438 1028 l 672 1028 q 692 1019 686 1028 q 696 997 699 1011 l 692 978 q 678 956 689 964 q 654 947 668 947 l 510 947 q 398 908 438 947 q 343 794 358 868 l 328 722 l 607 722 q 627 714 621 722 q 631 692 633 706 l 490 31 q 478 8 488 17 q 454 0 468 0 l 431 0 q 410 8 417 0 q 406 31 403 17 l 535 642 l 311 642 l 181 31 q 168 8 178 17 q 144 0 158 0 l 121 0 z "},"ﬂ":{"ha":768,"x_min":76,"x_max":781,"o":"m 121 0 q 100 8 107 0 q 96 31 93 17 l 226 642 l 103 642 q 83 650 89 642 q 78 672 76 658 l 82 692 q 95 714 85 706 q 119 722 106 722 l 243 722 l 260 801 q 305 915 274 864 q 387 997 336 967 q 510 1028 438 1028 l 590 1028 q 610 1019 604 1028 q 614 997 617 1011 l 610 978 q 597 956 607 964 q 572 947 586 947 l 510 947 q 398 908 438 947 q 343 794 358 868 l 328 722 l 635 722 l 693 997 q 706 1019 696 1011 q 729 1028 715 1028 l 753 1028 q 774 1019 767 1028 q 778 997 781 1011 l 572 31 q 560 8 569 17 q 536 0 550 0 l 513 0 q 492 8 499 0 q 488 31 485 17 l 617 642 l 311 642 l 181 31 q 168 8 178 17 q 144 0 158 0 l 121 0 z "},"ª":{"ha":506,"x_min":132,"x_max":508,"o":"m 260 596 q 166 627 200 596 q 138 701 132 658 q 195 790 144 754 q 326 836 246 825 l 413 849 q 416 865 414 853 q 408 888 418 878 q 365 899 399 899 q 309 892 328 899 q 278 878 290 885 q 251 871 267 871 l 228 871 q 201 894 197 871 q 224 928 206 908 q 278 964 243 949 q 365 979 314 979 q 476 938 444 979 q 494 831 508 896 l 451 633 q 440 611 450 619 q 415 603 429 603 l 392 603 q 372 611 378 603 q 367 633 365 619 l 369 643 q 326 610 354 624 q 260 596 297 596 m 260 671 q 353 703 317 671 q 397 776 389 735 l 326 767 q 251 742 275 760 q 224 704 226 725 q 230 681 222 690 q 260 671 238 671 z "},"º":{"ha":497,"x_min":138,"x_max":508,"o":"m 289 596 q 177 635 217 596 q 151 757 138 674 q 158 788 153 768 q 165 818 163 808 q 242 940 188 901 q 363 979 297 979 q 441 962 407 979 q 492 909 475 944 q 499 818 508 874 q 492 788 497 808 q 485 757 488 768 q 443 666 471 701 q 376 613 415 631 q 289 596 338 596 m 297 676 q 363 697 336 676 q 400 757 390 718 q 408 788 403 768 q 414 818 413 808 q 407 876 419 854 q 353 899 394 899 q 287 876 314 899 q 250 818 260 854 q 242 788 247 808 q 236 757 238 768 q 243 697 231 718 q 297 676 256 676 z "}}}
